<mxfile host="drawio-plugin" modified="2022-11-02T11:07:16.020Z" agent="5.0 (X11; Linux x86_64) AppleWebKit/537.36 (KHTML, like Gecko) Chrome/98.0.4758.102 Safari/537.36" etag="QOOFJv0I5vZYsixbHKsi" version="15.5.4" type="embed" pages="9"><diagram id="hWY7U9qNnVhTt3DX3ntC" name="Page-1"><mxGraphModel dx="665" dy="1706" grid="1" gridSize="10" guides="1" tooltips="1" connect="1" arrows="1" fold="1" page="1" pageScale="1" pageWidth="850" pageHeight="1100" math="0" shadow="0"><root><mxCell id="0"/><mxCell id="1" parent="0"/><mxCell id="bD91W2XOQY5hAJAodvem-5" value="" style="edgeStyle=orthogonalEdgeStyle;rounded=0;orthogonalLoop=1;jettySize=auto;html=1;endArrow=none;endFill=0;" parent="1" source="bD91W2XOQY5hAJAodvem-1" target="bD91W2XOQY5hAJAodvem-4" edge="1"><mxGeometry relative="1" as="geometry"/></mxCell><mxCell id="bD91W2XOQY5hAJAodvem-1" value="rpc" style="rounded=0;whiteSpace=wrap;html=1;" parent="1" vertex="1"><mxGeometry x="200" y="-30" width="280" height="60" as="geometry"/></mxCell><mxCell id="bD91W2XOQY5hAJAodvem-3" value="" style="edgeStyle=orthogonalEdgeStyle;rounded=0;orthogonalLoop=1;jettySize=auto;html=1;endArrow=none;endFill=0;" parent="1" source="bD91W2XOQY5hAJAodvem-2" target="bD91W2XOQY5hAJAodvem-1" edge="1"><mxGeometry relative="1" as="geometry"/></mxCell><mxCell id="bD91W2XOQY5hAJAodvem-2" value="" style="ellipse;whiteSpace=wrap;html=1;aspect=fixed;" parent="1" vertex="1"><mxGeometry x="320" y="-100" width="40" height="40" as="geometry"/></mxCell><mxCell id="bD91W2XOQY5hAJAodvem-4" value="security" style="rounded=0;whiteSpace=wrap;html=1;" parent="1" vertex="1"><mxGeometry x="560" y="-30" width="120" height="60" as="geometry"/></mxCell><mxCell id="bD91W2XOQY5hAJAodvem-6" value="scheduler" style="rounded=0;whiteSpace=wrap;html=1;" parent="1" vertex="1"><mxGeometry x="680" y="370" width="260" height="60" as="geometry"/></mxCell><mxCell id="bD91W2XOQY5hAJAodvem-7" value="Task&lt;br&gt;Adaptor" style="rounded=0;whiteSpace=wrap;html=1;" parent="1" vertex="1"><mxGeometry x="520" y="770" width="120" height="60" as="geometry"/></mxCell><mxCell id="bD91W2XOQY5hAJAodvem-8" value="Job&lt;br&gt;Adaptor" style="rounded=0;whiteSpace=wrap;html=1;" parent="1" vertex="1"><mxGeometry x="360" y="770" width="120" height="60" as="geometry"/></mxCell><mxCell id="bD91W2XOQY5hAJAodvem-9" value="Data&lt;br&gt;Adaptor" style="rounded=0;whiteSpace=wrap;html=1;" parent="1" vertex="1"><mxGeometry x="680" y="770" width="120" height="60" as="geometry"/></mxCell><mxCell id="bD91W2XOQY5hAJAodvem-10" value="translator" style="rounded=0;whiteSpace=wrap;html=1;" parent="1" vertex="1"><mxGeometry x="960" y="370" width="200" height="60" as="geometry"/></mxCell><mxCell id="bD91W2XOQY5hAJAodvem-11" value="Party&lt;br&gt;Adaptor" style="rounded=0;whiteSpace=wrap;html=1;" parent="1" vertex="1"><mxGeometry x="840" y="770" width="120" height="60" as="geometry"/></mxCell><mxCell id="bD91W2XOQY5hAJAodvem-12" value="Algorithm&lt;br&gt;Adaptor" style="rounded=0;whiteSpace=wrap;html=1;" parent="1" vertex="1"><mxGeometry x="200" y="770" width="120" height="60" as="geometry"/></mxCell><mxCell id="bD91W2XOQY5hAJAodvem-13" value="Engine Adaptor" style="rounded=0;whiteSpace=wrap;html=1;" parent="1" vertex="1"><mxGeometry x="40" y="680" width="760" height="60" as="geometry"/></mxCell><mxCell id="bD91W2XOQY5hAJAodvem-15" value="Platform&lt;br&gt;Adaptor" style="rounded=0;whiteSpace=wrap;html=1;" parent="1" vertex="1"><mxGeometry x="40" y="770" width="120" height="60" as="geometry"/></mxCell><mxCell id="LYwiwmfVed3FTVfcy1CA-1" value="Translator Dispatcher" style="rounded=0;whiteSpace=wrap;html=1;" parent="1" vertex="1"><mxGeometry x="960" y="270" width="200" height="60" as="geometry"/></mxCell><mxCell id="LYwiwmfVed3FTVfcy1CA-2" value="Direct Dispatcher" style="rounded=0;whiteSpace=wrap;html=1;" parent="1" vertex="1"><mxGeometry x="680" y="270" width="260" height="60" as="geometry"/></mxCell><mxCell id="LYwiwmfVed3FTVfcy1CA-3" value="Cooperated Engine" style="rounded=0;whiteSpace=wrap;html=1;" parent="1" vertex="1"><mxGeometry x="680" y="190" width="480" height="60" as="geometry"/></mxCell><mxCell id="7xXbilF10oUpDjBb4EwD-2" value="HighFlip Engine" style="rounded=0;whiteSpace=wrap;html=1;" parent="1" vertex="1"><mxGeometry x="40" y="490" width="760" height="60" as="geometry"/></mxCell><mxCell id="7xXbilF10oUpDjBb4EwD-3" value="Entity Repository" style="rounded=0;whiteSpace=wrap;html=1;" parent="1" vertex="1"><mxGeometry x="880" y="570" width="240" height="60" as="geometry"/></mxCell><mxCell id="7xXbilF10oUpDjBb4EwD-4" value="Job" style="rounded=0;whiteSpace=wrap;html=1;" parent="1" vertex="1"><mxGeometry x="40" y="570" width="120" height="60" as="geometry"/></mxCell><mxCell id="7xXbilF10oUpDjBb4EwD-5" value="Algorithm" style="rounded=0;whiteSpace=wrap;html=1;" parent="1" vertex="1"><mxGeometry x="200" y="570" width="120" height="60" as="geometry"/></mxCell><mxCell id="GMDEp99Axr-EPxR9zVlu-1" value="Task" style="rounded=0;whiteSpace=wrap;html=1;" parent="1" vertex="1"><mxGeometry x="350" y="570" width="120" height="60" as="geometry"/></mxCell><mxCell id="GMDEp99Axr-EPxR9zVlu-2" value="Data" style="rounded=0;whiteSpace=wrap;html=1;" parent="1" vertex="1"><mxGeometry x="520" y="570" width="120" height="60" as="geometry"/></mxCell><mxCell id="GMDEp99Axr-EPxR9zVlu-3" value="Party" style="rounded=0;whiteSpace=wrap;html=1;" parent="1" vertex="1"><mxGeometry x="680" y="570" width="120" height="60" as="geometry"/></mxCell></root></mxGraphModel></diagram><diagram id="_ahkKecmwNlGabeCPghR" name="Page-2"><mxGraphModel dx="1578" dy="911" grid="1" gridSize="10" guides="1" tooltips="1" connect="1" arrows="1" fold="1" page="1" pageScale="1" pageWidth="850" pageHeight="1100" math="0" shadow="0"><root><mxCell id="0"/><mxCell id="1" parent="0"/><mxCell id="d903LDQl9oNjZx6RZ9Mn-1" value="" style="group" vertex="1" connectable="0" parent="1"><mxGeometry x="240" y="840" width="310" height="200" as="geometry"/></mxCell><mxCell id="d903LDQl9oNjZx6RZ9Mn-2" value="" style="group" vertex="1" connectable="0" parent="d903LDQl9oNjZx6RZ9Mn-1"><mxGeometry x="40" width="270" height="200" as="geometry"/></mxCell><mxCell id="d903LDQl9oNjZx6RZ9Mn-3" value="" style="group" vertex="1" connectable="0" parent="d903LDQl9oNjZx6RZ9Mn-2"><mxGeometry y="40" width="270" height="160" as="geometry"/></mxCell><mxCell id="d903LDQl9oNjZx6RZ9Mn-4" value="" style="whiteSpace=wrap;html=1;aspect=fixed;fillColor=#f5f5f5;fontColor=#333333;strokeColor=#666666;" vertex="1" parent="d903LDQl9oNjZx6RZ9Mn-3"><mxGeometry x="80" width="160" height="160" as="geometry"/></mxCell><mxCell id="d903LDQl9oNjZx6RZ9Mn-5" value="" style="rounded=0;whiteSpace=wrap;html=1;" vertex="1" parent="d903LDQl9oNjZx6RZ9Mn-3"><mxGeometry width="80" height="160" as="geometry"/></mxCell><mxCell id="d903LDQl9oNjZx6RZ9Mn-6" value="" style="shape=dataStorage;whiteSpace=wrap;html=1;fixedSize=1;direction=south;size=10;fillColor=#1ba1e2;fontColor=#ffffff;strokeColor=#000000;" vertex="1" parent="d903LDQl9oNjZx6RZ9Mn-3"><mxGeometry x="20" y="20" width="40" height="105" as="geometry"/></mxCell><mxCell id="d903LDQl9oNjZx6RZ9Mn-7" value="" style="shape=dataStorage;whiteSpace=wrap;html=1;fixedSize=1;rotation=-90;size=10;" vertex="1" parent="d903LDQl9oNjZx6RZ9Mn-3"><mxGeometry x="22.5" y="102.5" width="35" height="40" as="geometry"/></mxCell><mxCell id="d903LDQl9oNjZx6RZ9Mn-8" value="HIGHFLIP" style="text;html=1;align=center;verticalAlign=middle;whiteSpace=wrap;rounded=0;rotation=-90;fontColor=#FFFFFF;" vertex="1" parent="d903LDQl9oNjZx6RZ9Mn-3"><mxGeometry x="10" y="50" width="60" height="30" as="geometry"/></mxCell><mxCell id="d903LDQl9oNjZx6RZ9Mn-9" value="" style="rounded=1;whiteSpace=wrap;html=1;fontColor=#FFFFFF;" vertex="1" parent="d903LDQl9oNjZx6RZ9Mn-3"><mxGeometry x="130" y="40" width="50" height="25" as="geometry"/></mxCell><mxCell id="d903LDQl9oNjZx6RZ9Mn-10" value="" style="rounded=1;whiteSpace=wrap;html=1;fontColor=#FFFFFF;" vertex="1" parent="d903LDQl9oNjZx6RZ9Mn-3"><mxGeometry x="130" y="80" width="50" height="25" as="geometry"/></mxCell><mxCell id="d903LDQl9oNjZx6RZ9Mn-11" value="" style="rounded=1;whiteSpace=wrap;html=1;fontColor=#FFFFFF;" vertex="1" parent="d903LDQl9oNjZx6RZ9Mn-3"><mxGeometry x="100" y="118.5" width="50" height="25" as="geometry"/></mxCell><mxCell id="d903LDQl9oNjZx6RZ9Mn-12" value="" style="rounded=1;whiteSpace=wrap;html=1;fontColor=#FFFFFF;" vertex="1" parent="d903LDQl9oNjZx6RZ9Mn-3"><mxGeometry x="170" y="118.5" width="50" height="25" as="geometry"/></mxCell><mxCell id="d903LDQl9oNjZx6RZ9Mn-13" value="" style="endArrow=none;html=1;rounded=0;fontColor=#FFFFFF;entryX=0.25;entryY=1;entryDx=0;entryDy=0;exitX=0.5;exitY=0;exitDx=0;exitDy=0;" edge="1" parent="d903LDQl9oNjZx6RZ9Mn-3" source="d903LDQl9oNjZx6RZ9Mn-11" target="d903LDQl9oNjZx6RZ9Mn-10"><mxGeometry width="50" height="50" relative="1" as="geometry"><mxPoint x="110" y="46" as="sourcePoint"/><mxPoint x="160" y="-4" as="targetPoint"/></mxGeometry></mxCell><mxCell id="d903LDQl9oNjZx6RZ9Mn-14" value="" style="endArrow=none;html=1;rounded=0;fontColor=#FFFFFF;entryX=0.75;entryY=1;entryDx=0;entryDy=0;exitX=0.5;exitY=0;exitDx=0;exitDy=0;" edge="1" parent="d903LDQl9oNjZx6RZ9Mn-3" source="d903LDQl9oNjZx6RZ9Mn-12" target="d903LDQl9oNjZx6RZ9Mn-10"><mxGeometry width="50" height="50" relative="1" as="geometry"><mxPoint x="110" y="36" as="sourcePoint"/><mxPoint x="160" y="-14" as="targetPoint"/></mxGeometry></mxCell><mxCell id="d903LDQl9oNjZx6RZ9Mn-15" value="" style="endArrow=classic;html=1;rounded=0;fontColor=#FFFFFF;entryX=0;entryY=0.5;entryDx=0;entryDy=0;edgeStyle=orthogonalEdgeStyle;endFill=1;exitX=0.75;exitY=1;exitDx=0;exitDy=0;" edge="1" parent="d903LDQl9oNjZx6RZ9Mn-3" source="d903LDQl9oNjZx6RZ9Mn-7" target="d903LDQl9oNjZx6RZ9Mn-17"><mxGeometry width="50" height="50" relative="1" as="geometry"><mxPoint x="60" y="70" as="sourcePoint"/><mxPoint x="138.75" y="-29.049999999999955" as="targetPoint"/><Array as="points"><mxPoint x="100" y="114"/><mxPoint x="100" y="19"/><mxPoint x="145" y="19"/></Array></mxGeometry></mxCell><mxCell id="d903LDQl9oNjZx6RZ9Mn-16" value="" style="endArrow=none;html=1;rounded=0;fontColor=#FFFFFF;entryX=0.5;entryY=1;entryDx=0;entryDy=0;exitX=0.5;exitY=0;exitDx=0;exitDy=0;" edge="1" parent="d903LDQl9oNjZx6RZ9Mn-3" source="d903LDQl9oNjZx6RZ9Mn-10" target="d903LDQl9oNjZx6RZ9Mn-9"><mxGeometry width="50" height="50" relative="1" as="geometry"><mxPoint x="300" y="139" as="sourcePoint"/><mxPoint x="350" y="89" as="targetPoint"/></mxGeometry></mxCell><mxCell id="d903LDQl9oNjZx6RZ9Mn-17" value="" style="ellipse;whiteSpace=wrap;html=1;aspect=fixed;fontSize=32;" vertex="1" parent="d903LDQl9oNjZx6RZ9Mn-3"><mxGeometry x="145" y="9" width="19" height="19" as="geometry"/></mxCell><mxCell id="d903LDQl9oNjZx6RZ9Mn-18" value="" style="endArrow=none;html=1;rounded=0;fontColor=#FFFFFF;entryX=0.5;entryY=1;entryDx=0;entryDy=0;" edge="1" parent="d903LDQl9oNjZx6RZ9Mn-3" source="d903LDQl9oNjZx6RZ9Mn-9" target="d903LDQl9oNjZx6RZ9Mn-17"><mxGeometry width="50" height="50" relative="1" as="geometry"><mxPoint x="435" y="196" as="sourcePoint"/><mxPoint x="435" y="159" as="targetPoint"/></mxGeometry></mxCell><mxCell id="d903LDQl9oNjZx6RZ9Mn-21" value="" style="verticalLabelPosition=bottom;verticalAlign=top;html=1;shape=mxgraph.basic.star;fontSize=32;fillColor=#ffff88;strokeColor=#36393d;" vertex="1" parent="d903LDQl9oNjZx6RZ9Mn-3"><mxGeometry x="200" width="40" height="40" as="geometry"/></mxCell><mxCell id="d903LDQl9oNjZx6RZ9Mn-19" value="" style="ellipse;whiteSpace=wrap;html=1;aspect=fixed;fillColor=#FFFFFF;fontColor=#ffffff;strokeColor=#000000;" vertex="1" parent="d903LDQl9oNjZx6RZ9Mn-2"><mxGeometry x="27.5" width="25" height="25" as="geometry"/></mxCell><mxCell id="d903LDQl9oNjZx6RZ9Mn-20" value="" style="edgeStyle=orthogonalEdgeStyle;rounded=0;orthogonalLoop=1;jettySize=auto;html=1;endArrow=none;endFill=0;entryX=0;entryY=0.5;entryDx=0;entryDy=0;" edge="1" parent="d903LDQl9oNjZx6RZ9Mn-2" source="d903LDQl9oNjZx6RZ9Mn-19" target="d903LDQl9oNjZx6RZ9Mn-6"><mxGeometry relative="1" as="geometry"><mxPoint x="20" y="105" as="targetPoint"/></mxGeometry></mxCell><mxCell id="d903LDQl9oNjZx6RZ9Mn-25" value="" style="group" vertex="1" connectable="0" parent="1"><mxGeometry x="520" y="840" width="310" height="200" as="geometry"/></mxCell><mxCell id="d903LDQl9oNjZx6RZ9Mn-26" value="" style="group" vertex="1" connectable="0" parent="d903LDQl9oNjZx6RZ9Mn-25"><mxGeometry x="40" width="270" height="200" as="geometry"/></mxCell><mxCell id="d903LDQl9oNjZx6RZ9Mn-27" value="" style="group" vertex="1" connectable="0" parent="d903LDQl9oNjZx6RZ9Mn-26"><mxGeometry y="40" width="270" height="160" as="geometry"/></mxCell><mxCell id="d903LDQl9oNjZx6RZ9Mn-28" value="" style="whiteSpace=wrap;html=1;aspect=fixed;fillColor=#f5f5f5;fontColor=#333333;strokeColor=#666666;" vertex="1" parent="d903LDQl9oNjZx6RZ9Mn-27"><mxGeometry x="80" width="160" height="160" as="geometry"/></mxCell><mxCell id="d903LDQl9oNjZx6RZ9Mn-29" value="" style="rounded=0;whiteSpace=wrap;html=1;" vertex="1" parent="d903LDQl9oNjZx6RZ9Mn-27"><mxGeometry width="80" height="160" as="geometry"/></mxCell><mxCell id="d903LDQl9oNjZx6RZ9Mn-30" value="" style="shape=dataStorage;whiteSpace=wrap;html=1;fixedSize=1;direction=south;size=10;fillColor=#1ba1e2;fontColor=#ffffff;strokeColor=#000000;" vertex="1" parent="d903LDQl9oNjZx6RZ9Mn-27"><mxGeometry x="20" y="20" width="40" height="105" as="geometry"/></mxCell><mxCell id="d903LDQl9oNjZx6RZ9Mn-31" value="" style="shape=dataStorage;whiteSpace=wrap;html=1;fixedSize=1;rotation=-90;size=10;" vertex="1" parent="d903LDQl9oNjZx6RZ9Mn-27"><mxGeometry x="22.5" y="102.5" width="35" height="40" as="geometry"/></mxCell><mxCell id="d903LDQl9oNjZx6RZ9Mn-32" value="HIGHFLIP" style="text;html=1;align=center;verticalAlign=middle;whiteSpace=wrap;rounded=0;rotation=-90;fontColor=#FFFFFF;" vertex="1" parent="d903LDQl9oNjZx6RZ9Mn-27"><mxGeometry x="10" y="50" width="60" height="30" as="geometry"/></mxCell><mxCell id="d903LDQl9oNjZx6RZ9Mn-33" value="" style="rounded=1;whiteSpace=wrap;html=1;fontColor=#FFFFFF;" vertex="1" parent="d903LDQl9oNjZx6RZ9Mn-27"><mxGeometry x="130" y="40" width="50" height="25" as="geometry"/></mxCell><mxCell id="d903LDQl9oNjZx6RZ9Mn-34" value="" style="rounded=1;whiteSpace=wrap;html=1;fontColor=#FFFFFF;" vertex="1" parent="d903LDQl9oNjZx6RZ9Mn-27"><mxGeometry x="130" y="80" width="50" height="25" as="geometry"/></mxCell><mxCell id="d903LDQl9oNjZx6RZ9Mn-35" value="" style="rounded=1;whiteSpace=wrap;html=1;fontColor=#FFFFFF;" vertex="1" parent="d903LDQl9oNjZx6RZ9Mn-27"><mxGeometry x="100" y="118.5" width="50" height="25" as="geometry"/></mxCell><mxCell id="d903LDQl9oNjZx6RZ9Mn-36" value="" style="rounded=1;whiteSpace=wrap;html=1;fontColor=#FFFFFF;" vertex="1" parent="d903LDQl9oNjZx6RZ9Mn-27"><mxGeometry x="170" y="118.5" width="50" height="25" as="geometry"/></mxCell><mxCell id="d903LDQl9oNjZx6RZ9Mn-37" value="" style="endArrow=none;html=1;rounded=0;fontColor=#FFFFFF;entryX=0.25;entryY=1;entryDx=0;entryDy=0;exitX=0.5;exitY=0;exitDx=0;exitDy=0;" edge="1" parent="d903LDQl9oNjZx6RZ9Mn-27" source="d903LDQl9oNjZx6RZ9Mn-35" target="d903LDQl9oNjZx6RZ9Mn-34"><mxGeometry width="50" height="50" relative="1" as="geometry"><mxPoint x="110" y="46" as="sourcePoint"/><mxPoint x="160" y="-4" as="targetPoint"/></mxGeometry></mxCell><mxCell id="d903LDQl9oNjZx6RZ9Mn-38" value="" style="endArrow=none;html=1;rounded=0;fontColor=#FFFFFF;entryX=0.75;entryY=1;entryDx=0;entryDy=0;exitX=0.5;exitY=0;exitDx=0;exitDy=0;" edge="1" parent="d903LDQl9oNjZx6RZ9Mn-27" source="d903LDQl9oNjZx6RZ9Mn-36" target="d903LDQl9oNjZx6RZ9Mn-34"><mxGeometry width="50" height="50" relative="1" as="geometry"><mxPoint x="110" y="36" as="sourcePoint"/><mxPoint x="160" y="-14" as="targetPoint"/></mxGeometry></mxCell><mxCell id="d903LDQl9oNjZx6RZ9Mn-39" value="" style="endArrow=classic;html=1;rounded=0;fontColor=#FFFFFF;entryX=0;entryY=0.5;entryDx=0;entryDy=0;edgeStyle=orthogonalEdgeStyle;endFill=1;exitX=0.75;exitY=1;exitDx=0;exitDy=0;" edge="1" parent="d903LDQl9oNjZx6RZ9Mn-27" source="d903LDQl9oNjZx6RZ9Mn-31" target="d903LDQl9oNjZx6RZ9Mn-41"><mxGeometry width="50" height="50" relative="1" as="geometry"><mxPoint x="60" y="70" as="sourcePoint"/><mxPoint x="138.75" y="-29.049999999999955" as="targetPoint"/><Array as="points"><mxPoint x="100" y="114"/><mxPoint x="100" y="19"/><mxPoint x="145" y="19"/></Array></mxGeometry></mxCell><mxCell id="d903LDQl9oNjZx6RZ9Mn-40" value="" style="endArrow=none;html=1;rounded=0;fontColor=#FFFFFF;entryX=0.5;entryY=1;entryDx=0;entryDy=0;exitX=0.5;exitY=0;exitDx=0;exitDy=0;" edge="1" parent="d903LDQl9oNjZx6RZ9Mn-27" source="d903LDQl9oNjZx6RZ9Mn-34" target="d903LDQl9oNjZx6RZ9Mn-33"><mxGeometry width="50" height="50" relative="1" as="geometry"><mxPoint x="300" y="139" as="sourcePoint"/><mxPoint x="350" y="89" as="targetPoint"/></mxGeometry></mxCell><mxCell id="d903LDQl9oNjZx6RZ9Mn-41" value="" style="ellipse;whiteSpace=wrap;html=1;aspect=fixed;fontSize=32;" vertex="1" parent="d903LDQl9oNjZx6RZ9Mn-27"><mxGeometry x="145" y="9" width="19" height="19" as="geometry"/></mxCell><mxCell id="d903LDQl9oNjZx6RZ9Mn-42" value="" style="endArrow=none;html=1;rounded=0;fontColor=#FFFFFF;entryX=0.5;entryY=1;entryDx=0;entryDy=0;" edge="1" parent="d903LDQl9oNjZx6RZ9Mn-27" source="d903LDQl9oNjZx6RZ9Mn-33" target="d903LDQl9oNjZx6RZ9Mn-41"><mxGeometry width="50" height="50" relative="1" as="geometry"><mxPoint x="435" y="196" as="sourcePoint"/><mxPoint x="435" y="159" as="targetPoint"/></mxGeometry></mxCell><mxCell id="OnuFVDSwPq5-EYyluT9i-2" value="" style="verticalLabelPosition=bottom;verticalAlign=top;html=1;shape=mxgraph.basic.6_point_star;fontSize=32;fillColor=#ffff88;strokeColor=#36393d;" vertex="1" parent="d903LDQl9oNjZx6RZ9Mn-27"><mxGeometry x="195" width="45" height="40" as="geometry"/></mxCell><mxCell id="d903LDQl9oNjZx6RZ9Mn-43" value="" style="ellipse;whiteSpace=wrap;html=1;aspect=fixed;fillColor=#FFFFFF;fontColor=#ffffff;strokeColor=#000000;" vertex="1" parent="d903LDQl9oNjZx6RZ9Mn-26"><mxGeometry x="27.5" width="25" height="25" as="geometry"/></mxCell><mxCell id="d903LDQl9oNjZx6RZ9Mn-44" value="" style="edgeStyle=orthogonalEdgeStyle;rounded=0;orthogonalLoop=1;jettySize=auto;html=1;endArrow=none;endFill=0;entryX=0;entryY=0.5;entryDx=0;entryDy=0;" edge="1" parent="d903LDQl9oNjZx6RZ9Mn-26" source="d903LDQl9oNjZx6RZ9Mn-43" target="d903LDQl9oNjZx6RZ9Mn-30"><mxGeometry relative="1" as="geometry"><mxPoint x="20" y="105" as="targetPoint"/></mxGeometry></mxCell><mxCell id="d903LDQl9oNjZx6RZ9Mn-45" value="" style="group" vertex="1" connectable="0" parent="1"><mxGeometry x="800" y="840" width="310" height="200" as="geometry"/></mxCell><mxCell id="d903LDQl9oNjZx6RZ9Mn-46" value="" style="group" vertex="1" connectable="0" parent="d903LDQl9oNjZx6RZ9Mn-45"><mxGeometry x="40" width="270" height="200" as="geometry"/></mxCell><mxCell id="d903LDQl9oNjZx6RZ9Mn-47" value="" style="group" vertex="1" connectable="0" parent="d903LDQl9oNjZx6RZ9Mn-46"><mxGeometry y="40" width="270" height="160" as="geometry"/></mxCell><mxCell id="d903LDQl9oNjZx6RZ9Mn-48" value="" style="whiteSpace=wrap;html=1;aspect=fixed;fillColor=#f5f5f5;fontColor=#333333;strokeColor=#666666;" vertex="1" parent="d903LDQl9oNjZx6RZ9Mn-47"><mxGeometry x="80" width="160" height="160" as="geometry"/></mxCell><mxCell id="d903LDQl9oNjZx6RZ9Mn-49" value="" style="rounded=0;whiteSpace=wrap;html=1;" vertex="1" parent="d903LDQl9oNjZx6RZ9Mn-47"><mxGeometry width="80" height="160" as="geometry"/></mxCell><mxCell id="d903LDQl9oNjZx6RZ9Mn-50" value="" style="shape=dataStorage;whiteSpace=wrap;html=1;fixedSize=1;direction=south;size=10;fillColor=#1ba1e2;fontColor=#ffffff;strokeColor=#000000;" vertex="1" parent="d903LDQl9oNjZx6RZ9Mn-47"><mxGeometry x="20" y="20" width="40" height="105" as="geometry"/></mxCell><mxCell id="d903LDQl9oNjZx6RZ9Mn-51" value="" style="shape=dataStorage;whiteSpace=wrap;html=1;fixedSize=1;rotation=-90;size=10;" vertex="1" parent="d903LDQl9oNjZx6RZ9Mn-47"><mxGeometry x="22.5" y="102.5" width="35" height="40" as="geometry"/></mxCell><mxCell id="d903LDQl9oNjZx6RZ9Mn-52" value="HIGHFLIP" style="text;html=1;align=center;verticalAlign=middle;whiteSpace=wrap;rounded=0;rotation=-90;fontColor=#FFFFFF;" vertex="1" parent="d903LDQl9oNjZx6RZ9Mn-47"><mxGeometry x="10" y="50" width="60" height="30" as="geometry"/></mxCell><mxCell id="d903LDQl9oNjZx6RZ9Mn-53" value="" style="rounded=1;whiteSpace=wrap;html=1;fontColor=#FFFFFF;" vertex="1" parent="d903LDQl9oNjZx6RZ9Mn-47"><mxGeometry x="130" y="40" width="50" height="25" as="geometry"/></mxCell><mxCell id="d903LDQl9oNjZx6RZ9Mn-54" value="" style="rounded=1;whiteSpace=wrap;html=1;fontColor=#FFFFFF;" vertex="1" parent="d903LDQl9oNjZx6RZ9Mn-47"><mxGeometry x="130" y="80" width="50" height="25" as="geometry"/></mxCell><mxCell id="d903LDQl9oNjZx6RZ9Mn-55" value="" style="rounded=1;whiteSpace=wrap;html=1;fontColor=#FFFFFF;" vertex="1" parent="d903LDQl9oNjZx6RZ9Mn-47"><mxGeometry x="100" y="118.5" width="50" height="25" as="geometry"/></mxCell><mxCell id="d903LDQl9oNjZx6RZ9Mn-56" value="" style="rounded=1;whiteSpace=wrap;html=1;fontColor=#FFFFFF;" vertex="1" parent="d903LDQl9oNjZx6RZ9Mn-47"><mxGeometry x="170" y="118.5" width="50" height="25" as="geometry"/></mxCell><mxCell id="d903LDQl9oNjZx6RZ9Mn-57" value="" style="endArrow=none;html=1;rounded=0;fontColor=#FFFFFF;entryX=0.25;entryY=1;entryDx=0;entryDy=0;exitX=0.5;exitY=0;exitDx=0;exitDy=0;" edge="1" parent="d903LDQl9oNjZx6RZ9Mn-47" source="d903LDQl9oNjZx6RZ9Mn-55" target="d903LDQl9oNjZx6RZ9Mn-54"><mxGeometry width="50" height="50" relative="1" as="geometry"><mxPoint x="110" y="46" as="sourcePoint"/><mxPoint x="160" y="-4" as="targetPoint"/></mxGeometry></mxCell><mxCell id="d903LDQl9oNjZx6RZ9Mn-58" value="" style="endArrow=none;html=1;rounded=0;fontColor=#FFFFFF;entryX=0.75;entryY=1;entryDx=0;entryDy=0;exitX=0.5;exitY=0;exitDx=0;exitDy=0;" edge="1" parent="d903LDQl9oNjZx6RZ9Mn-47" source="d903LDQl9oNjZx6RZ9Mn-56" target="d903LDQl9oNjZx6RZ9Mn-54"><mxGeometry width="50" height="50" relative="1" as="geometry"><mxPoint x="110" y="36" as="sourcePoint"/><mxPoint x="160" y="-14" as="targetPoint"/></mxGeometry></mxCell><mxCell id="d903LDQl9oNjZx6RZ9Mn-59" value="" style="endArrow=classic;html=1;rounded=0;fontColor=#FFFFFF;entryX=0;entryY=0.5;entryDx=0;entryDy=0;edgeStyle=orthogonalEdgeStyle;endFill=1;exitX=0.75;exitY=1;exitDx=0;exitDy=0;" edge="1" parent="d903LDQl9oNjZx6RZ9Mn-47" source="d903LDQl9oNjZx6RZ9Mn-51" target="d903LDQl9oNjZx6RZ9Mn-61"><mxGeometry width="50" height="50" relative="1" as="geometry"><mxPoint x="60" y="70" as="sourcePoint"/><mxPoint x="138.75" y="-29.049999999999955" as="targetPoint"/><Array as="points"><mxPoint x="100" y="114"/><mxPoint x="100" y="19"/><mxPoint x="145" y="19"/></Array></mxGeometry></mxCell><mxCell id="d903LDQl9oNjZx6RZ9Mn-60" value="" style="endArrow=none;html=1;rounded=0;fontColor=#FFFFFF;entryX=0.5;entryY=1;entryDx=0;entryDy=0;exitX=0.5;exitY=0;exitDx=0;exitDy=0;" edge="1" parent="d903LDQl9oNjZx6RZ9Mn-47" source="d903LDQl9oNjZx6RZ9Mn-54" target="d903LDQl9oNjZx6RZ9Mn-53"><mxGeometry width="50" height="50" relative="1" as="geometry"><mxPoint x="300" y="139" as="sourcePoint"/><mxPoint x="350" y="89" as="targetPoint"/></mxGeometry></mxCell><mxCell id="d903LDQl9oNjZx6RZ9Mn-61" value="" style="ellipse;whiteSpace=wrap;html=1;aspect=fixed;fontSize=32;" vertex="1" parent="d903LDQl9oNjZx6RZ9Mn-47"><mxGeometry x="145" y="9" width="19" height="19" as="geometry"/></mxCell><mxCell id="d903LDQl9oNjZx6RZ9Mn-62" value="" style="endArrow=none;html=1;rounded=0;fontColor=#FFFFFF;entryX=0.5;entryY=1;entryDx=0;entryDy=0;" edge="1" parent="d903LDQl9oNjZx6RZ9Mn-47" source="d903LDQl9oNjZx6RZ9Mn-53" target="d903LDQl9oNjZx6RZ9Mn-61"><mxGeometry width="50" height="50" relative="1" as="geometry"><mxPoint x="435" y="196" as="sourcePoint"/><mxPoint x="435" y="159" as="targetPoint"/></mxGeometry></mxCell><mxCell id="d903LDQl9oNjZx6RZ9Mn-65" value="" style="verticalLabelPosition=bottom;verticalAlign=top;html=1;shape=mxgraph.basic.8_point_star;fontSize=32;fillColor=#ffff88;strokeColor=default;" vertex="1" parent="d903LDQl9oNjZx6RZ9Mn-47"><mxGeometry x="200" width="40" height="40" as="geometry"/></mxCell><mxCell id="d903LDQl9oNjZx6RZ9Mn-63" value="" style="ellipse;whiteSpace=wrap;html=1;aspect=fixed;fillColor=#FFFFFF;fontColor=#ffffff;strokeColor=#000000;" vertex="1" parent="d903LDQl9oNjZx6RZ9Mn-46"><mxGeometry x="27.5" width="25" height="25" as="geometry"/></mxCell><mxCell id="d903LDQl9oNjZx6RZ9Mn-64" value="" style="edgeStyle=orthogonalEdgeStyle;rounded=0;orthogonalLoop=1;jettySize=auto;html=1;endArrow=none;endFill=0;entryX=0;entryY=0.5;entryDx=0;entryDy=0;" edge="1" parent="d903LDQl9oNjZx6RZ9Mn-46" source="d903LDQl9oNjZx6RZ9Mn-63" target="d903LDQl9oNjZx6RZ9Mn-50"><mxGeometry relative="1" as="geometry"><mxPoint x="20" y="105" as="targetPoint"/></mxGeometry></mxCell><mxCell id="d903LDQl9oNjZx6RZ9Mn-66" value="&lt;font style=&quot;font-size: 18px;&quot;&gt;HIGHFLIP&lt;/font&gt;" style="rounded=0;whiteSpace=wrap;html=1;fontColor=#FFFFFF;fontStyle=1;fontSize=18;fillColor=#1ba1e2;strokeColor=#006EAF;" vertex="1" parent="1"><mxGeometry x="280" y="740" width="800" height="60" as="geometry"/></mxCell><mxCell id="d903LDQl9oNjZx6RZ9Mn-67" value="" style="group" vertex="1" connectable="0" parent="1"><mxGeometry x="240" y="1060" width="310" height="200" as="geometry"/></mxCell><mxCell id="d903LDQl9oNjZx6RZ9Mn-68" value="" style="group" vertex="1" connectable="0" parent="d903LDQl9oNjZx6RZ9Mn-67"><mxGeometry x="40" width="270" height="200" as="geometry"/></mxCell><mxCell id="d903LDQl9oNjZx6RZ9Mn-69" value="" style="group" vertex="1" connectable="0" parent="d903LDQl9oNjZx6RZ9Mn-68"><mxGeometry y="40" width="270" height="160" as="geometry"/></mxCell><mxCell id="d903LDQl9oNjZx6RZ9Mn-70" value="" style="whiteSpace=wrap;html=1;aspect=fixed;fillColor=#f5f5f5;fontColor=#333333;strokeColor=#666666;" vertex="1" parent="d903LDQl9oNjZx6RZ9Mn-69"><mxGeometry x="80" width="160" height="160" as="geometry"/></mxCell><mxCell id="d903LDQl9oNjZx6RZ9Mn-71" value="" style="rounded=0;whiteSpace=wrap;html=1;" vertex="1" parent="d903LDQl9oNjZx6RZ9Mn-69"><mxGeometry width="80" height="160" as="geometry"/></mxCell><mxCell id="d903LDQl9oNjZx6RZ9Mn-72" value="" style="shape=dataStorage;whiteSpace=wrap;html=1;fixedSize=1;direction=south;size=10;fillColor=#1ba1e2;fontColor=#ffffff;strokeColor=#000000;" vertex="1" parent="d903LDQl9oNjZx6RZ9Mn-69"><mxGeometry x="20" y="20" width="40" height="105" as="geometry"/></mxCell><mxCell id="d903LDQl9oNjZx6RZ9Mn-73" value="" style="shape=dataStorage;whiteSpace=wrap;html=1;fixedSize=1;rotation=-90;size=10;" vertex="1" parent="d903LDQl9oNjZx6RZ9Mn-69"><mxGeometry x="22.5" y="102.5" width="35" height="40" as="geometry"/></mxCell><mxCell id="d903LDQl9oNjZx6RZ9Mn-74" value="HIGHFLIP" style="text;html=1;align=center;verticalAlign=middle;whiteSpace=wrap;rounded=0;rotation=-90;fontColor=#FFFFFF;" vertex="1" parent="d903LDQl9oNjZx6RZ9Mn-69"><mxGeometry x="10" y="50" width="60" height="30" as="geometry"/></mxCell><mxCell id="d903LDQl9oNjZx6RZ9Mn-75" value="" style="rounded=1;whiteSpace=wrap;html=1;fontColor=#FFFFFF;" vertex="1" parent="d903LDQl9oNjZx6RZ9Mn-69"><mxGeometry x="130" y="40" width="50" height="25" as="geometry"/></mxCell><mxCell id="d903LDQl9oNjZx6RZ9Mn-76" value="" style="rounded=1;whiteSpace=wrap;html=1;fontColor=#FFFFFF;" vertex="1" parent="d903LDQl9oNjZx6RZ9Mn-69"><mxGeometry x="130" y="80" width="50" height="25" as="geometry"/></mxCell><mxCell id="d903LDQl9oNjZx6RZ9Mn-77" value="" style="rounded=1;whiteSpace=wrap;html=1;fontColor=#FFFFFF;" vertex="1" parent="d903LDQl9oNjZx6RZ9Mn-69"><mxGeometry x="100" y="118.5" width="50" height="25" as="geometry"/></mxCell><mxCell id="d903LDQl9oNjZx6RZ9Mn-78" value="" style="rounded=1;whiteSpace=wrap;html=1;fontColor=#FFFFFF;" vertex="1" parent="d903LDQl9oNjZx6RZ9Mn-69"><mxGeometry x="170" y="118.5" width="50" height="25" as="geometry"/></mxCell><mxCell id="d903LDQl9oNjZx6RZ9Mn-79" value="" style="endArrow=none;html=1;rounded=0;fontColor=#FFFFFF;entryX=0.25;entryY=1;entryDx=0;entryDy=0;exitX=0.5;exitY=0;exitDx=0;exitDy=0;" edge="1" parent="d903LDQl9oNjZx6RZ9Mn-69" source="d903LDQl9oNjZx6RZ9Mn-77" target="d903LDQl9oNjZx6RZ9Mn-76"><mxGeometry width="50" height="50" relative="1" as="geometry"><mxPoint x="110" y="46" as="sourcePoint"/><mxPoint x="160" y="-4" as="targetPoint"/></mxGeometry></mxCell><mxCell id="d903LDQl9oNjZx6RZ9Mn-80" value="" style="endArrow=none;html=1;rounded=0;fontColor=#FFFFFF;entryX=0.75;entryY=1;entryDx=0;entryDy=0;exitX=0.5;exitY=0;exitDx=0;exitDy=0;" edge="1" parent="d903LDQl9oNjZx6RZ9Mn-69" source="d903LDQl9oNjZx6RZ9Mn-78" target="d903LDQl9oNjZx6RZ9Mn-76"><mxGeometry width="50" height="50" relative="1" as="geometry"><mxPoint x="110" y="36" as="sourcePoint"/><mxPoint x="160" y="-14" as="targetPoint"/></mxGeometry></mxCell><mxCell id="d903LDQl9oNjZx6RZ9Mn-81" value="" style="endArrow=classic;html=1;rounded=0;fontColor=#FFFFFF;entryX=0;entryY=0.5;entryDx=0;entryDy=0;edgeStyle=orthogonalEdgeStyle;endFill=1;exitX=0.75;exitY=1;exitDx=0;exitDy=0;" edge="1" parent="d903LDQl9oNjZx6RZ9Mn-69" source="d903LDQl9oNjZx6RZ9Mn-73" target="d903LDQl9oNjZx6RZ9Mn-83"><mxGeometry width="50" height="50" relative="1" as="geometry"><mxPoint x="60" y="70" as="sourcePoint"/><mxPoint x="138.75" y="-29.049999999999955" as="targetPoint"/><Array as="points"><mxPoint x="100" y="114"/><mxPoint x="100" y="19"/><mxPoint x="145" y="19"/></Array></mxGeometry></mxCell><mxCell id="d903LDQl9oNjZx6RZ9Mn-82" value="" style="endArrow=none;html=1;rounded=0;fontColor=#FFFFFF;entryX=0.5;entryY=1;entryDx=0;entryDy=0;exitX=0.5;exitY=0;exitDx=0;exitDy=0;" edge="1" parent="d903LDQl9oNjZx6RZ9Mn-69" source="d903LDQl9oNjZx6RZ9Mn-76" target="d903LDQl9oNjZx6RZ9Mn-75"><mxGeometry width="50" height="50" relative="1" as="geometry"><mxPoint x="300" y="139" as="sourcePoint"/><mxPoint x="350" y="89" as="targetPoint"/></mxGeometry></mxCell><mxCell id="d903LDQl9oNjZx6RZ9Mn-83" value="" style="ellipse;whiteSpace=wrap;html=1;aspect=fixed;fontSize=32;" vertex="1" parent="d903LDQl9oNjZx6RZ9Mn-69"><mxGeometry x="145" y="9" width="19" height="19" as="geometry"/></mxCell><mxCell id="d903LDQl9oNjZx6RZ9Mn-84" value="" style="endArrow=none;html=1;rounded=0;fontColor=#FFFFFF;entryX=0.5;entryY=1;entryDx=0;entryDy=0;" edge="1" parent="d903LDQl9oNjZx6RZ9Mn-69" source="d903LDQl9oNjZx6RZ9Mn-75" target="d903LDQl9oNjZx6RZ9Mn-83"><mxGeometry width="50" height="50" relative="1" as="geometry"><mxPoint x="435" y="196" as="sourcePoint"/><mxPoint x="435" y="159" as="targetPoint"/></mxGeometry></mxCell><mxCell id="d903LDQl9oNjZx6RZ9Mn-85" value="" style="verticalLabelPosition=bottom;verticalAlign=top;html=1;shape=mxgraph.basic.star;fontSize=32;fillColor=#cdeb8b;strokeColor=#36393d;" vertex="1" parent="d903LDQl9oNjZx6RZ9Mn-69"><mxGeometry x="200" width="40" height="40" as="geometry"/></mxCell><mxCell id="d903LDQl9oNjZx6RZ9Mn-86" value="" style="ellipse;whiteSpace=wrap;html=1;aspect=fixed;fillColor=#FFFFFF;fontColor=#ffffff;strokeColor=#000000;" vertex="1" parent="d903LDQl9oNjZx6RZ9Mn-68"><mxGeometry x="27.5" width="25" height="25" as="geometry"/></mxCell><mxCell id="d903LDQl9oNjZx6RZ9Mn-87" value="" style="edgeStyle=orthogonalEdgeStyle;rounded=0;orthogonalLoop=1;jettySize=auto;html=1;endArrow=none;endFill=0;entryX=0;entryY=0.5;entryDx=0;entryDy=0;" edge="1" parent="d903LDQl9oNjZx6RZ9Mn-68" source="d903LDQl9oNjZx6RZ9Mn-86" target="d903LDQl9oNjZx6RZ9Mn-72"><mxGeometry relative="1" as="geometry"><mxPoint x="20" y="105" as="targetPoint"/></mxGeometry></mxCell><mxCell id="d903LDQl9oNjZx6RZ9Mn-88" value="" style="group" vertex="1" connectable="0" parent="1"><mxGeometry x="520" y="1060" width="310" height="200" as="geometry"/></mxCell><mxCell id="d903LDQl9oNjZx6RZ9Mn-89" value="" style="group" vertex="1" connectable="0" parent="d903LDQl9oNjZx6RZ9Mn-88"><mxGeometry x="40" width="270" height="200" as="geometry"/></mxCell><mxCell id="d903LDQl9oNjZx6RZ9Mn-90" value="" style="group" vertex="1" connectable="0" parent="d903LDQl9oNjZx6RZ9Mn-89"><mxGeometry y="40" width="270" height="160" as="geometry"/></mxCell><mxCell id="d903LDQl9oNjZx6RZ9Mn-91" value="" style="whiteSpace=wrap;html=1;aspect=fixed;fillColor=#f5f5f5;fontColor=#333333;strokeColor=#666666;" vertex="1" parent="d903LDQl9oNjZx6RZ9Mn-90"><mxGeometry x="80" width="160" height="160" as="geometry"/></mxCell><mxCell id="d903LDQl9oNjZx6RZ9Mn-92" value="" style="rounded=0;whiteSpace=wrap;html=1;" vertex="1" parent="d903LDQl9oNjZx6RZ9Mn-90"><mxGeometry width="80" height="160" as="geometry"/></mxCell><mxCell id="d903LDQl9oNjZx6RZ9Mn-93" value="" style="shape=dataStorage;whiteSpace=wrap;html=1;fixedSize=1;direction=south;size=10;fillColor=#1ba1e2;fontColor=#ffffff;strokeColor=#000000;" vertex="1" parent="d903LDQl9oNjZx6RZ9Mn-90"><mxGeometry x="20" y="20" width="40" height="105" as="geometry"/></mxCell><mxCell id="d903LDQl9oNjZx6RZ9Mn-94" value="" style="shape=dataStorage;whiteSpace=wrap;html=1;fixedSize=1;rotation=-90;size=10;" vertex="1" parent="d903LDQl9oNjZx6RZ9Mn-90"><mxGeometry x="22.5" y="102.5" width="35" height="40" as="geometry"/></mxCell><mxCell id="d903LDQl9oNjZx6RZ9Mn-95" value="HIGHFLIP" style="text;html=1;align=center;verticalAlign=middle;whiteSpace=wrap;rounded=0;rotation=-90;fontColor=#FFFFFF;" vertex="1" parent="d903LDQl9oNjZx6RZ9Mn-90"><mxGeometry x="10" y="50" width="60" height="30" as="geometry"/></mxCell><mxCell id="d903LDQl9oNjZx6RZ9Mn-96" value="" style="rounded=1;whiteSpace=wrap;html=1;fontColor=#FFFFFF;" vertex="1" parent="d903LDQl9oNjZx6RZ9Mn-90"><mxGeometry x="130" y="40" width="50" height="25" as="geometry"/></mxCell><mxCell id="d903LDQl9oNjZx6RZ9Mn-97" value="" style="rounded=1;whiteSpace=wrap;html=1;fontColor=#FFFFFF;" vertex="1" parent="d903LDQl9oNjZx6RZ9Mn-90"><mxGeometry x="130" y="80" width="50" height="25" as="geometry"/></mxCell><mxCell id="d903LDQl9oNjZx6RZ9Mn-98" value="" style="rounded=1;whiteSpace=wrap;html=1;fontColor=#FFFFFF;" vertex="1" parent="d903LDQl9oNjZx6RZ9Mn-90"><mxGeometry x="100" y="118.5" width="50" height="25" as="geometry"/></mxCell><mxCell id="d903LDQl9oNjZx6RZ9Mn-99" value="" style="rounded=1;whiteSpace=wrap;html=1;fontColor=#FFFFFF;" vertex="1" parent="d903LDQl9oNjZx6RZ9Mn-90"><mxGeometry x="170" y="118.5" width="50" height="25" as="geometry"/></mxCell><mxCell id="d903LDQl9oNjZx6RZ9Mn-100" value="" style="endArrow=none;html=1;rounded=0;fontColor=#FFFFFF;entryX=0.25;entryY=1;entryDx=0;entryDy=0;exitX=0.5;exitY=0;exitDx=0;exitDy=0;" edge="1" parent="d903LDQl9oNjZx6RZ9Mn-90" source="d903LDQl9oNjZx6RZ9Mn-98" target="d903LDQl9oNjZx6RZ9Mn-97"><mxGeometry width="50" height="50" relative="1" as="geometry"><mxPoint x="110" y="46" as="sourcePoint"/><mxPoint x="160" y="-4" as="targetPoint"/></mxGeometry></mxCell><mxCell id="d903LDQl9oNjZx6RZ9Mn-101" value="" style="endArrow=none;html=1;rounded=0;fontColor=#FFFFFF;entryX=0.75;entryY=1;entryDx=0;entryDy=0;exitX=0.5;exitY=0;exitDx=0;exitDy=0;" edge="1" parent="d903LDQl9oNjZx6RZ9Mn-90" source="d903LDQl9oNjZx6RZ9Mn-99" target="d903LDQl9oNjZx6RZ9Mn-97"><mxGeometry width="50" height="50" relative="1" as="geometry"><mxPoint x="110" y="36" as="sourcePoint"/><mxPoint x="160" y="-14" as="targetPoint"/></mxGeometry></mxCell><mxCell id="d903LDQl9oNjZx6RZ9Mn-102" value="" style="endArrow=classic;html=1;rounded=0;fontColor=#FFFFFF;entryX=0;entryY=0.5;entryDx=0;entryDy=0;edgeStyle=orthogonalEdgeStyle;endFill=1;exitX=0.75;exitY=1;exitDx=0;exitDy=0;" edge="1" parent="d903LDQl9oNjZx6RZ9Mn-90" source="d903LDQl9oNjZx6RZ9Mn-94" target="d903LDQl9oNjZx6RZ9Mn-104"><mxGeometry width="50" height="50" relative="1" as="geometry"><mxPoint x="60" y="70" as="sourcePoint"/><mxPoint x="138.75" y="-29.049999999999955" as="targetPoint"/><Array as="points"><mxPoint x="100" y="114"/><mxPoint x="100" y="19"/><mxPoint x="145" y="19"/></Array></mxGeometry></mxCell><mxCell id="d903LDQl9oNjZx6RZ9Mn-103" value="" style="endArrow=none;html=1;rounded=0;fontColor=#FFFFFF;entryX=0.5;entryY=1;entryDx=0;entryDy=0;exitX=0.5;exitY=0;exitDx=0;exitDy=0;" edge="1" parent="d903LDQl9oNjZx6RZ9Mn-90" source="d903LDQl9oNjZx6RZ9Mn-97" target="d903LDQl9oNjZx6RZ9Mn-96"><mxGeometry width="50" height="50" relative="1" as="geometry"><mxPoint x="300" y="139" as="sourcePoint"/><mxPoint x="350" y="89" as="targetPoint"/></mxGeometry></mxCell><mxCell id="d903LDQl9oNjZx6RZ9Mn-104" value="" style="ellipse;whiteSpace=wrap;html=1;aspect=fixed;fontSize=32;" vertex="1" parent="d903LDQl9oNjZx6RZ9Mn-90"><mxGeometry x="145" y="9" width="19" height="19" as="geometry"/></mxCell><mxCell id="d903LDQl9oNjZx6RZ9Mn-105" value="" style="endArrow=none;html=1;rounded=0;fontColor=#FFFFFF;entryX=0.5;entryY=1;entryDx=0;entryDy=0;" edge="1" parent="d903LDQl9oNjZx6RZ9Mn-90" source="d903LDQl9oNjZx6RZ9Mn-96" target="d903LDQl9oNjZx6RZ9Mn-104"><mxGeometry width="50" height="50" relative="1" as="geometry"><mxPoint x="435" y="196" as="sourcePoint"/><mxPoint x="435" y="159" as="targetPoint"/></mxGeometry></mxCell><mxCell id="d903LDQl9oNjZx6RZ9Mn-106" value="" style="verticalLabelPosition=bottom;verticalAlign=top;html=1;shape=mxgraph.basic.6_point_star;fontSize=32;fillColor=#cdeb8b;strokeColor=#36393d;" vertex="1" parent="d903LDQl9oNjZx6RZ9Mn-90"><mxGeometry x="195" width="45" height="40" as="geometry"/></mxCell><mxCell id="d903LDQl9oNjZx6RZ9Mn-107" value="" style="ellipse;whiteSpace=wrap;html=1;aspect=fixed;fillColor=#FFFFFF;fontColor=#ffffff;strokeColor=#000000;" vertex="1" parent="d903LDQl9oNjZx6RZ9Mn-89"><mxGeometry x="27.5" width="25" height="25" as="geometry"/></mxCell><mxCell id="d903LDQl9oNjZx6RZ9Mn-108" value="" style="edgeStyle=orthogonalEdgeStyle;rounded=0;orthogonalLoop=1;jettySize=auto;html=1;endArrow=none;endFill=0;entryX=0;entryY=0.5;entryDx=0;entryDy=0;" edge="1" parent="d903LDQl9oNjZx6RZ9Mn-89" source="d903LDQl9oNjZx6RZ9Mn-107" target="d903LDQl9oNjZx6RZ9Mn-93"><mxGeometry relative="1" as="geometry"><mxPoint x="20" y="105" as="targetPoint"/></mxGeometry></mxCell><mxCell id="d903LDQl9oNjZx6RZ9Mn-109" value="" style="group" vertex="1" connectable="0" parent="1"><mxGeometry x="800" y="1060" width="310" height="200" as="geometry"/></mxCell><mxCell id="d903LDQl9oNjZx6RZ9Mn-110" value="" style="group" vertex="1" connectable="0" parent="d903LDQl9oNjZx6RZ9Mn-109"><mxGeometry x="40" width="270" height="200" as="geometry"/></mxCell><mxCell id="d903LDQl9oNjZx6RZ9Mn-111" value="" style="group" vertex="1" connectable="0" parent="d903LDQl9oNjZx6RZ9Mn-110"><mxGeometry y="40" width="270" height="160" as="geometry"/></mxCell><mxCell id="d903LDQl9oNjZx6RZ9Mn-112" value="" style="whiteSpace=wrap;html=1;aspect=fixed;fillColor=#f5f5f5;fontColor=#333333;strokeColor=#666666;" vertex="1" parent="d903LDQl9oNjZx6RZ9Mn-111"><mxGeometry x="80" width="160" height="160" as="geometry"/></mxCell><mxCell id="d903LDQl9oNjZx6RZ9Mn-113" value="" style="rounded=0;whiteSpace=wrap;html=1;" vertex="1" parent="d903LDQl9oNjZx6RZ9Mn-111"><mxGeometry width="80" height="160" as="geometry"/></mxCell><mxCell id="d903LDQl9oNjZx6RZ9Mn-114" value="" style="shape=dataStorage;whiteSpace=wrap;html=1;fixedSize=1;direction=south;size=10;fillColor=#1ba1e2;fontColor=#ffffff;strokeColor=#000000;" vertex="1" parent="d903LDQl9oNjZx6RZ9Mn-111"><mxGeometry x="20" y="20" width="40" height="105" as="geometry"/></mxCell><mxCell id="d903LDQl9oNjZx6RZ9Mn-115" value="" style="shape=dataStorage;whiteSpace=wrap;html=1;fixedSize=1;rotation=-90;size=10;" vertex="1" parent="d903LDQl9oNjZx6RZ9Mn-111"><mxGeometry x="22.5" y="102.5" width="35" height="40" as="geometry"/></mxCell><mxCell id="d903LDQl9oNjZx6RZ9Mn-116" value="HIGHFLIP" style="text;html=1;align=center;verticalAlign=middle;whiteSpace=wrap;rounded=0;rotation=-90;fontColor=#FFFFFF;" vertex="1" parent="d903LDQl9oNjZx6RZ9Mn-111"><mxGeometry x="10" y="50" width="60" height="30" as="geometry"/></mxCell><mxCell id="d903LDQl9oNjZx6RZ9Mn-117" value="" style="rounded=1;whiteSpace=wrap;html=1;fontColor=#FFFFFF;" vertex="1" parent="d903LDQl9oNjZx6RZ9Mn-111"><mxGeometry x="130" y="40" width="50" height="25" as="geometry"/></mxCell><mxCell id="d903LDQl9oNjZx6RZ9Mn-118" value="" style="rounded=1;whiteSpace=wrap;html=1;fontColor=#FFFFFF;" vertex="1" parent="d903LDQl9oNjZx6RZ9Mn-111"><mxGeometry x="130" y="80" width="50" height="25" as="geometry"/></mxCell><mxCell id="d903LDQl9oNjZx6RZ9Mn-119" value="" style="rounded=1;whiteSpace=wrap;html=1;fontColor=#FFFFFF;" vertex="1" parent="d903LDQl9oNjZx6RZ9Mn-111"><mxGeometry x="100" y="118.5" width="50" height="25" as="geometry"/></mxCell><mxCell id="d903LDQl9oNjZx6RZ9Mn-120" value="" style="rounded=1;whiteSpace=wrap;html=1;fontColor=#FFFFFF;" vertex="1" parent="d903LDQl9oNjZx6RZ9Mn-111"><mxGeometry x="170" y="118.5" width="50" height="25" as="geometry"/></mxCell><mxCell id="d903LDQl9oNjZx6RZ9Mn-121" value="" style="endArrow=none;html=1;rounded=0;fontColor=#FFFFFF;entryX=0.25;entryY=1;entryDx=0;entryDy=0;exitX=0.5;exitY=0;exitDx=0;exitDy=0;" edge="1" parent="d903LDQl9oNjZx6RZ9Mn-111" source="d903LDQl9oNjZx6RZ9Mn-119" target="d903LDQl9oNjZx6RZ9Mn-118"><mxGeometry width="50" height="50" relative="1" as="geometry"><mxPoint x="110" y="46" as="sourcePoint"/><mxPoint x="160" y="-4" as="targetPoint"/></mxGeometry></mxCell><mxCell id="d903LDQl9oNjZx6RZ9Mn-122" value="" style="endArrow=none;html=1;rounded=0;fontColor=#FFFFFF;entryX=0.75;entryY=1;entryDx=0;entryDy=0;exitX=0.5;exitY=0;exitDx=0;exitDy=0;" edge="1" parent="d903LDQl9oNjZx6RZ9Mn-111" source="d903LDQl9oNjZx6RZ9Mn-120" target="d903LDQl9oNjZx6RZ9Mn-118"><mxGeometry width="50" height="50" relative="1" as="geometry"><mxPoint x="110" y="36" as="sourcePoint"/><mxPoint x="160" y="-14" as="targetPoint"/></mxGeometry></mxCell><mxCell id="d903LDQl9oNjZx6RZ9Mn-123" value="" style="endArrow=classic;html=1;rounded=0;fontColor=#FFFFFF;entryX=0;entryY=0.5;entryDx=0;entryDy=0;edgeStyle=orthogonalEdgeStyle;endFill=1;exitX=0.75;exitY=1;exitDx=0;exitDy=0;" edge="1" parent="d903LDQl9oNjZx6RZ9Mn-111" source="d903LDQl9oNjZx6RZ9Mn-115" target="d903LDQl9oNjZx6RZ9Mn-125"><mxGeometry width="50" height="50" relative="1" as="geometry"><mxPoint x="60" y="70" as="sourcePoint"/><mxPoint x="138.75" y="-29.049999999999955" as="targetPoint"/><Array as="points"><mxPoint x="100" y="114"/><mxPoint x="100" y="19"/><mxPoint x="145" y="19"/></Array></mxGeometry></mxCell><mxCell id="d903LDQl9oNjZx6RZ9Mn-124" value="" style="endArrow=none;html=1;rounded=0;fontColor=#FFFFFF;entryX=0.5;entryY=1;entryDx=0;entryDy=0;exitX=0.5;exitY=0;exitDx=0;exitDy=0;" edge="1" parent="d903LDQl9oNjZx6RZ9Mn-111" source="d903LDQl9oNjZx6RZ9Mn-118" target="d903LDQl9oNjZx6RZ9Mn-117"><mxGeometry width="50" height="50" relative="1" as="geometry"><mxPoint x="300" y="139" as="sourcePoint"/><mxPoint x="350" y="89" as="targetPoint"/></mxGeometry></mxCell><mxCell id="d903LDQl9oNjZx6RZ9Mn-125" value="" style="ellipse;whiteSpace=wrap;html=1;aspect=fixed;fontSize=32;" vertex="1" parent="d903LDQl9oNjZx6RZ9Mn-111"><mxGeometry x="145" y="9" width="19" height="19" as="geometry"/></mxCell><mxCell id="d903LDQl9oNjZx6RZ9Mn-126" value="" style="endArrow=none;html=1;rounded=0;fontColor=#FFFFFF;entryX=0.5;entryY=1;entryDx=0;entryDy=0;" edge="1" parent="d903LDQl9oNjZx6RZ9Mn-111" source="d903LDQl9oNjZx6RZ9Mn-117" target="d903LDQl9oNjZx6RZ9Mn-125"><mxGeometry width="50" height="50" relative="1" as="geometry"><mxPoint x="435" y="196" as="sourcePoint"/><mxPoint x="435" y="159" as="targetPoint"/></mxGeometry></mxCell><mxCell id="d903LDQl9oNjZx6RZ9Mn-127" value="" style="verticalLabelPosition=bottom;verticalAlign=top;html=1;shape=mxgraph.basic.8_point_star;fontSize=32;fillColor=#cdeb8b;strokeColor=#36393d;" vertex="1" parent="d903LDQl9oNjZx6RZ9Mn-111"><mxGeometry x="200" width="40" height="40" as="geometry"/></mxCell><mxCell id="d903LDQl9oNjZx6RZ9Mn-128" value="" style="ellipse;whiteSpace=wrap;html=1;aspect=fixed;fillColor=#FFFFFF;fontColor=#ffffff;strokeColor=#000000;" vertex="1" parent="d903LDQl9oNjZx6RZ9Mn-110"><mxGeometry x="27.5" width="25" height="25" as="geometry"/></mxCell><mxCell id="d903LDQl9oNjZx6RZ9Mn-129" value="" style="edgeStyle=orthogonalEdgeStyle;rounded=0;orthogonalLoop=1;jettySize=auto;html=1;endArrow=none;endFill=0;entryX=0;entryY=0.5;entryDx=0;entryDy=0;" edge="1" parent="d903LDQl9oNjZx6RZ9Mn-110" source="d903LDQl9oNjZx6RZ9Mn-128" target="d903LDQl9oNjZx6RZ9Mn-114"><mxGeometry relative="1" as="geometry"><mxPoint x="20" y="105" as="targetPoint"/></mxGeometry></mxCell><mxCell id="uurWXp4Z2QElp1dnidFs-1" value="" style="group" vertex="1" connectable="0" parent="1"><mxGeometry x="1560" y="879" width="240" height="160" as="geometry"/></mxCell><mxCell id="uurWXp4Z2QElp1dnidFs-2" value="" style="whiteSpace=wrap;html=1;aspect=fixed;fillColor=#f5f5f5;fontColor=#333333;strokeColor=#666666;" vertex="1" parent="uurWXp4Z2QElp1dnidFs-1"><mxGeometry x="80" width="160" height="160" as="geometry"/></mxCell><mxCell id="uurWXp4Z2QElp1dnidFs-3" value="" style="rounded=1;whiteSpace=wrap;html=1;fontColor=#FFFFFF;" vertex="1" parent="uurWXp4Z2QElp1dnidFs-1"><mxGeometry x="130" y="40" width="50" height="25" as="geometry"/></mxCell><mxCell id="uurWXp4Z2QElp1dnidFs-4" value="" style="rounded=1;whiteSpace=wrap;html=1;fontColor=#FFFFFF;" vertex="1" parent="uurWXp4Z2QElp1dnidFs-1"><mxGeometry x="130" y="80" width="50" height="25" as="geometry"/></mxCell><mxCell id="uurWXp4Z2QElp1dnidFs-5" value="" style="rounded=1;whiteSpace=wrap;html=1;fontColor=#FFFFFF;" vertex="1" parent="uurWXp4Z2QElp1dnidFs-1"><mxGeometry x="100" y="118.5" width="50" height="25" as="geometry"/></mxCell><mxCell id="uurWXp4Z2QElp1dnidFs-6" value="" style="rounded=1;whiteSpace=wrap;html=1;fontColor=#FFFFFF;" vertex="1" parent="uurWXp4Z2QElp1dnidFs-1"><mxGeometry x="170" y="118.5" width="50" height="25" as="geometry"/></mxCell><mxCell id="uurWXp4Z2QElp1dnidFs-7" value="" style="endArrow=none;html=1;rounded=0;fontColor=#FFFFFF;entryX=0.25;entryY=1;entryDx=0;entryDy=0;exitX=0.5;exitY=0;exitDx=0;exitDy=0;" edge="1" parent="uurWXp4Z2QElp1dnidFs-1" source="uurWXp4Z2QElp1dnidFs-5" target="uurWXp4Z2QElp1dnidFs-4"><mxGeometry width="50" height="50" relative="1" as="geometry"><mxPoint x="110" y="46" as="sourcePoint"/><mxPoint x="160" y="-4" as="targetPoint"/></mxGeometry></mxCell><mxCell id="uurWXp4Z2QElp1dnidFs-8" value="" style="endArrow=none;html=1;rounded=0;fontColor=#FFFFFF;entryX=0.75;entryY=1;entryDx=0;entryDy=0;exitX=0.5;exitY=0;exitDx=0;exitDy=0;" edge="1" parent="uurWXp4Z2QElp1dnidFs-1" source="uurWXp4Z2QElp1dnidFs-6" target="uurWXp4Z2QElp1dnidFs-4"><mxGeometry width="50" height="50" relative="1" as="geometry"><mxPoint x="110" y="36" as="sourcePoint"/><mxPoint x="160" y="-14" as="targetPoint"/></mxGeometry></mxCell><mxCell id="uurWXp4Z2QElp1dnidFs-9" value="" style="endArrow=none;html=1;rounded=0;fontColor=#FFFFFF;entryX=0.5;entryY=1;entryDx=0;entryDy=0;exitX=0.5;exitY=0;exitDx=0;exitDy=0;" edge="1" parent="uurWXp4Z2QElp1dnidFs-1" source="uurWXp4Z2QElp1dnidFs-4" target="uurWXp4Z2QElp1dnidFs-3"><mxGeometry width="50" height="50" relative="1" as="geometry"><mxPoint x="300" y="139" as="sourcePoint"/><mxPoint x="350" y="89" as="targetPoint"/></mxGeometry></mxCell><mxCell id="uurWXp4Z2QElp1dnidFs-10" value="" style="ellipse;whiteSpace=wrap;html=1;aspect=fixed;fontSize=32;" vertex="1" parent="uurWXp4Z2QElp1dnidFs-1"><mxGeometry x="145" y="9" width="19" height="19" as="geometry"/></mxCell><mxCell id="uurWXp4Z2QElp1dnidFs-11" value="" style="endArrow=none;html=1;rounded=0;fontColor=#FFFFFF;entryX=0.5;entryY=1;entryDx=0;entryDy=0;" edge="1" parent="uurWXp4Z2QElp1dnidFs-1" source="uurWXp4Z2QElp1dnidFs-3" target="uurWXp4Z2QElp1dnidFs-10"><mxGeometry width="50" height="50" relative="1" as="geometry"><mxPoint x="435" y="196" as="sourcePoint"/><mxPoint x="435" y="159" as="targetPoint"/></mxGeometry></mxCell><mxCell id="uurWXp4Z2QElp1dnidFs-12" value="" style="group" vertex="1" connectable="0" parent="uurWXp4Z2QElp1dnidFs-1"><mxGeometry x="40" y="-39" width="80" height="79" as="geometry"/></mxCell><mxCell id="uurWXp4Z2QElp1dnidFs-13" value="" style="verticalLabelPosition=bottom;verticalAlign=top;html=1;shape=mxgraph.basic.polygon;polyCoords=[[0.25,0],[0.75,0],[1,0.25],[1,0.75],[0.75,1],[0.25,1],[0,0.75],[0,0.25]];polyline=0;fontSize=32;" vertex="1" parent="uurWXp4Z2QElp1dnidFs-12"><mxGeometry width="79.99999999999999" height="79" as="geometry"/></mxCell><mxCell id="uurWXp4Z2QElp1dnidFs-14" value="" style="sketch=0;outlineConnect=0;fontColor=#232F3E;gradientColor=none;fillColor=#232F3D;strokeColor=none;dashed=0;verticalLabelPosition=bottom;verticalAlign=top;align=center;html=1;fontSize=12;fontStyle=0;aspect=fixed;pointerEvents=1;shape=mxgraph.aws4.question;" vertex="1" parent="uurWXp4Z2QElp1dnidFs-12"><mxGeometry x="28.38709677419355" y="18.64044943820225" width="23.666021505376342" height="45.021505376344095" as="geometry"/></mxCell><mxCell id="uurWXp4Z2QElp1dnidFs-15" value="" style="edgeStyle=orthogonalEdgeStyle;rounded=0;orthogonalLoop=1;jettySize=auto;html=1;fontSize=32;" edge="1" parent="1" source="uurWXp4Z2QElp1dnidFs-16" target="uurWXp4Z2QElp1dnidFs-2"><mxGeometry relative="1" as="geometry"/></mxCell><mxCell id="uurWXp4Z2QElp1dnidFs-16" value="" style="shape=actor;whiteSpace=wrap;html=1;fontSize=32;" vertex="1" parent="1"><mxGeometry x="1840" y="914" width="70" height="90" as="geometry"/></mxCell><mxCell id="uurWXp4Z2QElp1dnidFs-17" value="Bob" style="text;html=1;strokeColor=none;fillColor=none;align=center;verticalAlign=middle;whiteSpace=wrap;rounded=0;fontSize=32;" vertex="1" parent="1"><mxGeometry x="1845" y="1014" width="60" height="30" as="geometry"/></mxCell><mxCell id="uurWXp4Z2QElp1dnidFs-19" value="Drag &amp; Drop UI" style="swimlane;startSize=20;horizontal=1;childLayout=flowLayout;flowOrientation=north;resizable=0;interRankCellSpacing=50;containerType=tree;labelBackgroundColor=none;strokeColor=default;fontSize=18;fontColor=#000000;fillColor=#FFFFFF;" vertex="1" parent="1"><mxGeometry x="280" y="400" width="270" height="280" as="geometry"/></mxCell><mxCell id="uurWXp4Z2QElp1dnidFs-20" value="Start" style="whiteSpace=wrap;html=1;labelBackgroundColor=none;strokeColor=default;fontSize=18;fontColor=#000000;fillColor=#FFFFFF;" vertex="1" parent="uurWXp4Z2QElp1dnidFs-19"><mxGeometry x="85" y="40" width="100" height="40" as="geometry"/></mxCell><mxCell id="uurWXp4Z2QElp1dnidFs-21" value="Task" style="whiteSpace=wrap;html=1;labelBackgroundColor=none;strokeColor=default;fontSize=18;fontColor=#000000;fillColor=#FFFFFF;" vertex="1" parent="uurWXp4Z2QElp1dnidFs-19"><mxGeometry x="20" y="130" width="100" height="40" as="geometry"/></mxCell><mxCell id="uurWXp4Z2QElp1dnidFs-22" value="" style="html=1;curved=1;rounded=0;fontSize=18;fontColor=#000000;noEdgeStyle=1;orthogonal=1;labelBackgroundColor=none;" edge="1" parent="uurWXp4Z2QElp1dnidFs-19" source="uurWXp4Z2QElp1dnidFs-20" target="uurWXp4Z2QElp1dnidFs-21"><mxGeometry relative="1" as="geometry"><Array as="points"><mxPoint x="112.5" y="92"/><mxPoint x="70" y="118"/></Array></mxGeometry></mxCell><mxCell id="uurWXp4Z2QElp1dnidFs-23" value="Task" style="whiteSpace=wrap;html=1;labelBackgroundColor=none;strokeColor=default;fontSize=18;fontColor=#000000;fillColor=#FFFFFF;" vertex="1" parent="uurWXp4Z2QElp1dnidFs-19"><mxGeometry x="150" y="130" width="100" height="40" as="geometry"/></mxCell><mxCell id="uurWXp4Z2QElp1dnidFs-24" value="" style="html=1;curved=1;rounded=0;fontSize=18;fontColor=#000000;noEdgeStyle=1;orthogonal=1;labelBackgroundColor=none;" edge="1" parent="uurWXp4Z2QElp1dnidFs-19" source="uurWXp4Z2QElp1dnidFs-20" target="uurWXp4Z2QElp1dnidFs-23"><mxGeometry relative="1" as="geometry"><Array as="points"><mxPoint x="157.5" y="92"/><mxPoint x="200" y="118"/></Array></mxGeometry></mxCell><mxCell id="uurWXp4Z2QElp1dnidFs-25" value="End" style="whiteSpace=wrap;html=1;labelBackgroundColor=none;strokeColor=default;fontSize=18;fontColor=#000000;fillColor=#FFFFFF;" vertex="1" parent="uurWXp4Z2QElp1dnidFs-19"><mxGeometry x="85" y="220" width="100" height="40" as="geometry"/></mxCell><mxCell id="uurWXp4Z2QElp1dnidFs-26" value="" style="html=1;curved=1;rounded=0;fontSize=18;fontColor=#000000;noEdgeStyle=1;orthogonal=1;labelBackgroundColor=none;" edge="1" parent="uurWXp4Z2QElp1dnidFs-19" source="uurWXp4Z2QElp1dnidFs-21" target="uurWXp4Z2QElp1dnidFs-25"><mxGeometry relative="1" as="geometry"><Array as="points"><mxPoint x="70" y="182"/><mxPoint x="112.5" y="208"/></Array></mxGeometry></mxCell><mxCell id="uurWXp4Z2QElp1dnidFs-27" value="" style="html=1;curved=1;rounded=0;fontSize=18;fontColor=#000000;noEdgeStyle=1;orthogonal=1;labelBackgroundColor=none;" edge="1" parent="uurWXp4Z2QElp1dnidFs-19" source="uurWXp4Z2QElp1dnidFs-23" target="uurWXp4Z2QElp1dnidFs-25"><mxGeometry relative="1" as="geometry"><Array as="points"><mxPoint x="200" y="182"/><mxPoint x="157.5" y="208"/></Array></mxGeometry></mxCell><mxCell id="uurWXp4Z2QElp1dnidFs-28" value="SCRIPT" style="shape=note;whiteSpace=wrap;html=1;backgroundOutline=1;darkOpacity=0.05;labelBackgroundColor=none;strokeColor=default;fontSize=18;fontColor=#000000;fillColor=#FFFFFF;size=47;" vertex="1" parent="1"><mxGeometry x="610" y="400" width="190" height="190" as="geometry"/></mxCell><mxCell id="uurWXp4Z2QElp1dnidFs-30" value="" style="aspect=fixed;html=1;points=[];align=center;image;fontSize=12;image=img/lib/azure2/general/Dev_Console.svg;labelBackgroundColor=none;strokeColor=default;fontColor=#000000;fillColor=#FFFFFF;" vertex="1" parent="1"><mxGeometry x="840" y="400" width="240" height="192" as="geometry"/></mxCell><mxCell id="uurWXp4Z2QElp1dnidFs-29" value="" style="sketch=0;aspect=fixed;pointerEvents=1;shadow=0;dashed=0;html=1;strokeColor=none;labelPosition=center;verticalLabelPosition=bottom;verticalAlign=top;align=center;fillColor=#00188D;shape=mxgraph.mscae.enterprise.tool;labelBackgroundColor=none;fontSize=18;fontColor=#000000;" vertex="1" parent="1"><mxGeometry x="1010" y="480" width="50" height="45" as="geometry"/></mxCell><mxCell id="uurWXp4Z2QElp1dnidFs-32" value="DSL Script" style="text;html=1;strokeColor=none;fillColor=none;align=center;verticalAlign=middle;whiteSpace=wrap;rounded=0;labelBackgroundColor=none;fontSize=18;fontColor=#000000;" vertex="1" parent="1"><mxGeometry x="630" y="620" width="120" height="30" as="geometry"/></mxCell><mxCell id="uurWXp4Z2QElp1dnidFs-33" value="Shell Tools" style="text;html=1;strokeColor=none;fillColor=none;align=center;verticalAlign=middle;whiteSpace=wrap;rounded=0;labelBackgroundColor=none;fontSize=18;fontColor=#000000;" vertex="1" parent="1"><mxGeometry x="900" y="620" width="120" height="30" as="geometry"/></mxCell></root></mxGraphModel></diagram><diagram id="VJ7zh9nSyRnbLN06CsSN" name="scenario"><mxGraphModel dx="938" dy="732" grid="1" gridSize="10" guides="1" tooltips="1" connect="1" arrows="1" fold="1" page="1" pageScale="1" pageWidth="850" pageHeight="1100" math="0" shadow="0"><root><mxCell id="0"/><mxCell id="1" parent="0"/><mxCell id="kbXhFq4__Wo8_OjIG269-69" value="" style="endArrow=none;dashed=1;html=1;rounded=0;fontColor=#FFFFFF;entryX=0;entryY=1;entryDx=0;entryDy=0;" parent="1" target="kbXhFq4__Wo8_OjIG269-40" edge="1"><mxGeometry width="50" height="50" relative="1" as="geometry"><mxPoint x="200" y="350" as="sourcePoint"/><mxPoint x="270" y="250" as="targetPoint"/></mxGeometry></mxCell><mxCell id="kbXhFq4__Wo8_OjIG269-70" value="" style="endArrow=none;dashed=1;html=1;rounded=0;fontColor=#FFFFFF;exitX=1;exitY=0.5;exitDx=0;exitDy=0;entryX=0;entryY=0.5;entryDx=0;entryDy=0;" parent="1" target="n3Tz83kUOA15m_mnSo43-22" edge="1"><mxGeometry width="50" height="50" relative="1" as="geometry"><mxPoint x="190" y="480" as="sourcePoint"/><mxPoint x="250" y="380" as="targetPoint"/></mxGeometry></mxCell><mxCell id="kbXhFq4__Wo8_OjIG269-71" value="" style="endArrow=none;dashed=1;html=1;rounded=0;fontColor=#FFFFFF;entryX=0;entryY=0.5;entryDx=0;entryDy=0;" parent="1" target="n3Tz83kUOA15m_mnSo43-58" edge="1"><mxGeometry width="50" height="50" relative="1" as="geometry"><mxPoint x="200" y="620" as="sourcePoint"/><mxPoint x="307.5000000000002" y="656.5" as="targetPoint"/></mxGeometry></mxCell><mxCell id="n3Tz83kUOA15m_mnSo43-6" value="" style="group" parent="1" vertex="1" connectable="0"><mxGeometry x="280" y="400" width="240" height="160" as="geometry"/></mxCell><mxCell id="n3Tz83kUOA15m_mnSo43-7" value="" style="whiteSpace=wrap;html=1;aspect=fixed;fillColor=#f5f5f5;fontColor=#333333;strokeColor=#666666;" parent="n3Tz83kUOA15m_mnSo43-6" vertex="1"><mxGeometry x="80" width="160" height="160" as="geometry"/></mxCell><mxCell id="n3Tz83kUOA15m_mnSo43-8" value="" style="rounded=0;whiteSpace=wrap;html=1;" parent="n3Tz83kUOA15m_mnSo43-6" vertex="1"><mxGeometry width="80" height="160" as="geometry"/></mxCell><mxCell id="n3Tz83kUOA15m_mnSo43-9" value="" style="shape=dataStorage;whiteSpace=wrap;html=1;fixedSize=1;direction=south;size=10;fillColor=#1ba1e2;fontColor=#ffffff;strokeColor=#000000;" parent="n3Tz83kUOA15m_mnSo43-6" vertex="1"><mxGeometry x="20" y="20" width="40" height="105" as="geometry"/></mxCell><mxCell id="n3Tz83kUOA15m_mnSo43-10" value="" style="shape=dataStorage;whiteSpace=wrap;html=1;fixedSize=1;rotation=-90;size=10;" parent="n3Tz83kUOA15m_mnSo43-6" vertex="1"><mxGeometry x="22.5" y="102.5" width="35" height="40" as="geometry"/></mxCell><mxCell id="n3Tz83kUOA15m_mnSo43-11" value="HIGHFLIP" style="text;html=1;align=center;verticalAlign=middle;whiteSpace=wrap;rounded=0;rotation=-90;fontColor=#FFFFFF;" parent="n3Tz83kUOA15m_mnSo43-6" vertex="1"><mxGeometry x="10" y="50" width="60" height="30" as="geometry"/></mxCell><mxCell id="n3Tz83kUOA15m_mnSo43-12" value="" style="rounded=1;whiteSpace=wrap;html=1;fontColor=#FFFFFF;" parent="n3Tz83kUOA15m_mnSo43-6" vertex="1"><mxGeometry x="130" y="40" width="50" height="25" as="geometry"/></mxCell><mxCell id="n3Tz83kUOA15m_mnSo43-13" value="" style="rounded=1;whiteSpace=wrap;html=1;fontColor=#FFFFFF;" parent="n3Tz83kUOA15m_mnSo43-6" vertex="1"><mxGeometry x="130" y="80" width="50" height="25" as="geometry"/></mxCell><mxCell id="n3Tz83kUOA15m_mnSo43-14" value="" style="rounded=1;whiteSpace=wrap;html=1;fontColor=#FFFFFF;" parent="n3Tz83kUOA15m_mnSo43-6" vertex="1"><mxGeometry x="100" y="118.5" width="50" height="25" as="geometry"/></mxCell><mxCell id="n3Tz83kUOA15m_mnSo43-15" value="" style="rounded=1;whiteSpace=wrap;html=1;fontColor=#FFFFFF;" parent="n3Tz83kUOA15m_mnSo43-6" vertex="1"><mxGeometry x="170" y="118.5" width="50" height="25" as="geometry"/></mxCell><mxCell id="n3Tz83kUOA15m_mnSo43-16" value="" style="endArrow=none;html=1;rounded=0;fontColor=#FFFFFF;entryX=0.25;entryY=1;entryDx=0;entryDy=0;exitX=0.5;exitY=0;exitDx=0;exitDy=0;" parent="n3Tz83kUOA15m_mnSo43-6" source="n3Tz83kUOA15m_mnSo43-14" target="n3Tz83kUOA15m_mnSo43-13" edge="1"><mxGeometry width="50" height="50" relative="1" as="geometry"><mxPoint x="110" y="46" as="sourcePoint"/><mxPoint x="160" y="-4" as="targetPoint"/></mxGeometry></mxCell><mxCell id="n3Tz83kUOA15m_mnSo43-17" value="" style="endArrow=none;html=1;rounded=0;fontColor=#FFFFFF;entryX=0.75;entryY=1;entryDx=0;entryDy=0;exitX=0.5;exitY=0;exitDx=0;exitDy=0;" parent="n3Tz83kUOA15m_mnSo43-6" source="n3Tz83kUOA15m_mnSo43-15" target="n3Tz83kUOA15m_mnSo43-13" edge="1"><mxGeometry width="50" height="50" relative="1" as="geometry"><mxPoint x="110" y="36" as="sourcePoint"/><mxPoint x="160" y="-14" as="targetPoint"/></mxGeometry></mxCell><mxCell id="n3Tz83kUOA15m_mnSo43-18" value="" style="endArrow=classic;html=1;rounded=0;fontColor=#FFFFFF;entryX=0;entryY=0.5;entryDx=0;entryDy=0;edgeStyle=orthogonalEdgeStyle;endFill=1;exitX=0.75;exitY=1;exitDx=0;exitDy=0;" parent="n3Tz83kUOA15m_mnSo43-6" source="n3Tz83kUOA15m_mnSo43-10" target="n3Tz83kUOA15m_mnSo43-20" edge="1"><mxGeometry width="50" height="50" relative="1" as="geometry"><mxPoint x="60" y="70" as="sourcePoint"/><mxPoint x="138.75" y="-29.049999999999955" as="targetPoint"/><Array as="points"><mxPoint x="60" y="120"/><mxPoint x="90" y="120"/><mxPoint x="90" y="19"/><mxPoint x="145" y="19"/></Array></mxGeometry></mxCell><mxCell id="n3Tz83kUOA15m_mnSo43-19" value="" style="endArrow=none;html=1;rounded=0;fontColor=#FFFFFF;entryX=0.5;entryY=1;entryDx=0;entryDy=0;exitX=0.5;exitY=0;exitDx=0;exitDy=0;" parent="n3Tz83kUOA15m_mnSo43-6" source="n3Tz83kUOA15m_mnSo43-13" target="n3Tz83kUOA15m_mnSo43-12" edge="1"><mxGeometry width="50" height="50" relative="1" as="geometry"><mxPoint x="300" y="139" as="sourcePoint"/><mxPoint x="350" y="89" as="targetPoint"/></mxGeometry></mxCell><mxCell id="n3Tz83kUOA15m_mnSo43-20" value="" style="ellipse;whiteSpace=wrap;html=1;aspect=fixed;fontSize=32;" parent="n3Tz83kUOA15m_mnSo43-6" vertex="1"><mxGeometry x="145" y="9" width="19" height="19" as="geometry"/></mxCell><mxCell id="n3Tz83kUOA15m_mnSo43-21" value="" style="endArrow=none;html=1;rounded=0;fontColor=#FFFFFF;entryX=0.5;entryY=1;entryDx=0;entryDy=0;" parent="n3Tz83kUOA15m_mnSo43-6" source="n3Tz83kUOA15m_mnSo43-12" target="n3Tz83kUOA15m_mnSo43-20" edge="1"><mxGeometry width="50" height="50" relative="1" as="geometry"><mxPoint x="435" y="196" as="sourcePoint"/><mxPoint x="435" y="159" as="targetPoint"/></mxGeometry></mxCell><mxCell id="n3Tz83kUOA15m_mnSo43-22" value="" style="ellipse;whiteSpace=wrap;html=1;aspect=fixed;fillColor=#FFFFFF;fontColor=#ffffff;strokeColor=#006EAF;" parent="1" vertex="1"><mxGeometry x="240" y="452.5" width="25" height="25" as="geometry"/></mxCell><mxCell id="n3Tz83kUOA15m_mnSo43-23" value="" style="edgeStyle=orthogonalEdgeStyle;rounded=0;orthogonalLoop=1;jettySize=auto;html=1;endArrow=none;endFill=0;" parent="1" source="n3Tz83kUOA15m_mnSo43-22" edge="1"><mxGeometry relative="1" as="geometry"><mxPoint x="300" y="465" as="targetPoint"/></mxGeometry></mxCell><mxCell id="n3Tz83kUOA15m_mnSo43-60" value="" style="group" parent="1" vertex="1" connectable="0"><mxGeometry x="240" y="120" width="280" height="200" as="geometry"/></mxCell><mxCell id="kbXhFq4__Wo8_OjIG269-37" value="" style="group" parent="n3Tz83kUOA15m_mnSo43-60" vertex="1" connectable="0"><mxGeometry x="40" width="240" height="200" as="geometry"/></mxCell><mxCell id="n3Tz83kUOA15m_mnSo43-5" value="" style="group" parent="kbXhFq4__Wo8_OjIG269-37" vertex="1" connectable="0"><mxGeometry y="40" width="240" height="160" as="geometry"/></mxCell><mxCell id="kbXhFq4__Wo8_OjIG269-38" value="" style="whiteSpace=wrap;html=1;aspect=fixed;fillColor=#f5f5f5;fontColor=#333333;strokeColor=#666666;" parent="n3Tz83kUOA15m_mnSo43-5" vertex="1"><mxGeometry x="80" width="160" height="160" as="geometry"/></mxCell><mxCell id="kbXhFq4__Wo8_OjIG269-39" value="" style="rounded=0;whiteSpace=wrap;html=1;" parent="n3Tz83kUOA15m_mnSo43-5" vertex="1"><mxGeometry width="80" height="160" as="geometry"/></mxCell><mxCell id="kbXhFq4__Wo8_OjIG269-41" value="" style="shape=dataStorage;whiteSpace=wrap;html=1;fixedSize=1;direction=south;size=10;fillColor=#1ba1e2;fontColor=#ffffff;strokeColor=#000000;" parent="n3Tz83kUOA15m_mnSo43-5" vertex="1"><mxGeometry x="20" y="20" width="40" height="105" as="geometry"/></mxCell><mxCell id="kbXhFq4__Wo8_OjIG269-43" value="" style="shape=dataStorage;whiteSpace=wrap;html=1;fixedSize=1;rotation=-90;size=10;" parent="n3Tz83kUOA15m_mnSo43-5" vertex="1"><mxGeometry x="22.5" y="102.5" width="35" height="40" as="geometry"/></mxCell><mxCell id="kbXhFq4__Wo8_OjIG269-44" value="HIGHFLIP" style="text;html=1;align=center;verticalAlign=middle;whiteSpace=wrap;rounded=0;rotation=-90;fontColor=#FFFFFF;" parent="n3Tz83kUOA15m_mnSo43-5" vertex="1"><mxGeometry x="10" y="50" width="60" height="30" as="geometry"/></mxCell><mxCell id="kbXhFq4__Wo8_OjIG269-45" value="" style="rounded=1;whiteSpace=wrap;html=1;fontColor=#FFFFFF;" parent="n3Tz83kUOA15m_mnSo43-5" vertex="1"><mxGeometry x="130" y="40" width="50" height="25" as="geometry"/></mxCell><mxCell id="kbXhFq4__Wo8_OjIG269-46" value="" style="rounded=1;whiteSpace=wrap;html=1;fontColor=#FFFFFF;" parent="n3Tz83kUOA15m_mnSo43-5" vertex="1"><mxGeometry x="130" y="80" width="50" height="25" as="geometry"/></mxCell><mxCell id="kbXhFq4__Wo8_OjIG269-48" value="" style="rounded=1;whiteSpace=wrap;html=1;fontColor=#FFFFFF;" parent="n3Tz83kUOA15m_mnSo43-5" vertex="1"><mxGeometry x="100" y="118.5" width="50" height="25" as="geometry"/></mxCell><mxCell id="kbXhFq4__Wo8_OjIG269-49" value="" style="rounded=1;whiteSpace=wrap;html=1;fontColor=#FFFFFF;" parent="n3Tz83kUOA15m_mnSo43-5" vertex="1"><mxGeometry x="170" y="118.5" width="50" height="25" as="geometry"/></mxCell><mxCell id="kbXhFq4__Wo8_OjIG269-50" value="" style="endArrow=none;html=1;rounded=0;fontColor=#FFFFFF;entryX=0.25;entryY=1;entryDx=0;entryDy=0;exitX=0.5;exitY=0;exitDx=0;exitDy=0;" parent="n3Tz83kUOA15m_mnSo43-5" source="kbXhFq4__Wo8_OjIG269-48" target="kbXhFq4__Wo8_OjIG269-46" edge="1"><mxGeometry width="50" height="50" relative="1" as="geometry"><mxPoint x="110" y="46" as="sourcePoint"/><mxPoint x="160" y="-4" as="targetPoint"/></mxGeometry></mxCell><mxCell id="kbXhFq4__Wo8_OjIG269-51" value="" style="endArrow=none;html=1;rounded=0;fontColor=#FFFFFF;entryX=0.75;entryY=1;entryDx=0;entryDy=0;exitX=0.5;exitY=0;exitDx=0;exitDy=0;" parent="n3Tz83kUOA15m_mnSo43-5" source="kbXhFq4__Wo8_OjIG269-49" target="kbXhFq4__Wo8_OjIG269-46" edge="1"><mxGeometry width="50" height="50" relative="1" as="geometry"><mxPoint x="110" y="36" as="sourcePoint"/><mxPoint x="160" y="-14" as="targetPoint"/></mxGeometry></mxCell><mxCell id="kbXhFq4__Wo8_OjIG269-54" value="" style="endArrow=classic;html=1;rounded=0;fontColor=#FFFFFF;entryX=0;entryY=0.5;entryDx=0;entryDy=0;edgeStyle=orthogonalEdgeStyle;endFill=1;exitX=0.75;exitY=1;exitDx=0;exitDy=0;" parent="n3Tz83kUOA15m_mnSo43-5" source="kbXhFq4__Wo8_OjIG269-43" target="n3Tz83kUOA15m_mnSo43-2" edge="1"><mxGeometry width="50" height="50" relative="1" as="geometry"><mxPoint x="60" y="70" as="sourcePoint"/><mxPoint x="138.75" y="-29.049999999999955" as="targetPoint"/><Array as="points"><mxPoint x="60" y="120"/><mxPoint x="90" y="120"/><mxPoint x="90" y="19"/><mxPoint x="145" y="19"/></Array></mxGeometry></mxCell><mxCell id="kbXhFq4__Wo8_OjIG269-56" value="" style="endArrow=none;html=1;rounded=0;fontColor=#FFFFFF;entryX=0.5;entryY=1;entryDx=0;entryDy=0;exitX=0.5;exitY=0;exitDx=0;exitDy=0;" parent="n3Tz83kUOA15m_mnSo43-5" source="kbXhFq4__Wo8_OjIG269-46" target="kbXhFq4__Wo8_OjIG269-45" edge="1"><mxGeometry width="50" height="50" relative="1" as="geometry"><mxPoint x="300" y="139" as="sourcePoint"/><mxPoint x="350" y="89" as="targetPoint"/></mxGeometry></mxCell><mxCell id="n3Tz83kUOA15m_mnSo43-2" value="" style="ellipse;whiteSpace=wrap;html=1;aspect=fixed;fontSize=32;" parent="n3Tz83kUOA15m_mnSo43-5" vertex="1"><mxGeometry x="145" y="9" width="19" height="19" as="geometry"/></mxCell><mxCell id="n3Tz83kUOA15m_mnSo43-3" value="" style="endArrow=none;html=1;rounded=0;fontColor=#FFFFFF;entryX=0.5;entryY=1;entryDx=0;entryDy=0;" parent="n3Tz83kUOA15m_mnSo43-5" source="kbXhFq4__Wo8_OjIG269-45" target="n3Tz83kUOA15m_mnSo43-2" edge="1"><mxGeometry width="50" height="50" relative="1" as="geometry"><mxPoint x="435" y="196" as="sourcePoint"/><mxPoint x="435" y="159" as="targetPoint"/></mxGeometry></mxCell><mxCell id="kbXhFq4__Wo8_OjIG269-40" value="" style="ellipse;whiteSpace=wrap;html=1;aspect=fixed;fillColor=#FFFFFF;fontColor=#ffffff;strokeColor=#006EAF;" parent="n3Tz83kUOA15m_mnSo43-60" vertex="1"><mxGeometry y="92.5" width="25" height="25" as="geometry"/></mxCell><mxCell id="kbXhFq4__Wo8_OjIG269-42" value="" style="edgeStyle=orthogonalEdgeStyle;rounded=0;orthogonalLoop=1;jettySize=auto;html=1;endArrow=none;endFill=0;" parent="n3Tz83kUOA15m_mnSo43-60" source="kbXhFq4__Wo8_OjIG269-40" edge="1"><mxGeometry relative="1" as="geometry"><mxPoint x="60" y="105" as="targetPoint"/></mxGeometry></mxCell><mxCell id="n3Tz83kUOA15m_mnSo43-61" value="" style="group" parent="1" vertex="1" connectable="0"><mxGeometry x="240" y="640" width="280" height="160" as="geometry"/></mxCell><mxCell id="n3Tz83kUOA15m_mnSo43-42" value="" style="group" parent="n3Tz83kUOA15m_mnSo43-61" vertex="1" connectable="0"><mxGeometry x="40" width="240" height="160" as="geometry"/></mxCell><mxCell id="n3Tz83kUOA15m_mnSo43-43" value="" style="whiteSpace=wrap;html=1;aspect=fixed;fillColor=#f5f5f5;fontColor=#333333;strokeColor=#666666;" parent="n3Tz83kUOA15m_mnSo43-42" vertex="1"><mxGeometry x="80" width="160" height="160" as="geometry"/></mxCell><mxCell id="n3Tz83kUOA15m_mnSo43-44" value="" style="rounded=0;whiteSpace=wrap;html=1;" parent="n3Tz83kUOA15m_mnSo43-42" vertex="1"><mxGeometry width="80" height="160" as="geometry"/></mxCell><mxCell id="n3Tz83kUOA15m_mnSo43-45" value="" style="shape=dataStorage;whiteSpace=wrap;html=1;fixedSize=1;direction=south;size=10;fillColor=#1ba1e2;fontColor=#ffffff;strokeColor=#000000;" parent="n3Tz83kUOA15m_mnSo43-42" vertex="1"><mxGeometry x="20" y="20" width="40" height="105" as="geometry"/></mxCell><mxCell id="n3Tz83kUOA15m_mnSo43-46" value="" style="shape=dataStorage;whiteSpace=wrap;html=1;fixedSize=1;rotation=-90;size=10;" parent="n3Tz83kUOA15m_mnSo43-42" vertex="1"><mxGeometry x="22.5" y="102.5" width="35" height="40" as="geometry"/></mxCell><mxCell id="n3Tz83kUOA15m_mnSo43-47" value="HIGHFLIP" style="text;html=1;align=center;verticalAlign=middle;whiteSpace=wrap;rounded=0;rotation=-90;fontColor=#FFFFFF;" parent="n3Tz83kUOA15m_mnSo43-42" vertex="1"><mxGeometry x="10" y="50" width="60" height="30" as="geometry"/></mxCell><mxCell id="n3Tz83kUOA15m_mnSo43-48" value="" style="rounded=1;whiteSpace=wrap;html=1;fontColor=#FFFFFF;" parent="n3Tz83kUOA15m_mnSo43-42" vertex="1"><mxGeometry x="130" y="40" width="50" height="25" as="geometry"/></mxCell><mxCell id="n3Tz83kUOA15m_mnSo43-49" value="" style="rounded=1;whiteSpace=wrap;html=1;fontColor=#FFFFFF;" parent="n3Tz83kUOA15m_mnSo43-42" vertex="1"><mxGeometry x="130" y="80" width="50" height="25" as="geometry"/></mxCell><mxCell id="n3Tz83kUOA15m_mnSo43-50" value="" style="rounded=1;whiteSpace=wrap;html=1;fontColor=#FFFFFF;" parent="n3Tz83kUOA15m_mnSo43-42" vertex="1"><mxGeometry x="100" y="118.5" width="50" height="25" as="geometry"/></mxCell><mxCell id="n3Tz83kUOA15m_mnSo43-51" value="" style="rounded=1;whiteSpace=wrap;html=1;fontColor=#FFFFFF;" parent="n3Tz83kUOA15m_mnSo43-42" vertex="1"><mxGeometry x="170" y="118.5" width="50" height="25" as="geometry"/></mxCell><mxCell id="n3Tz83kUOA15m_mnSo43-52" value="" style="endArrow=none;html=1;rounded=0;fontColor=#FFFFFF;entryX=0.25;entryY=1;entryDx=0;entryDy=0;exitX=0.5;exitY=0;exitDx=0;exitDy=0;" parent="n3Tz83kUOA15m_mnSo43-42" source="n3Tz83kUOA15m_mnSo43-50" target="n3Tz83kUOA15m_mnSo43-49" edge="1"><mxGeometry width="50" height="50" relative="1" as="geometry"><mxPoint x="110" y="46" as="sourcePoint"/><mxPoint x="160" y="-4" as="targetPoint"/></mxGeometry></mxCell><mxCell id="n3Tz83kUOA15m_mnSo43-53" value="" style="endArrow=none;html=1;rounded=0;fontColor=#FFFFFF;entryX=0.75;entryY=1;entryDx=0;entryDy=0;exitX=0.5;exitY=0;exitDx=0;exitDy=0;" parent="n3Tz83kUOA15m_mnSo43-42" source="n3Tz83kUOA15m_mnSo43-51" target="n3Tz83kUOA15m_mnSo43-49" edge="1"><mxGeometry width="50" height="50" relative="1" as="geometry"><mxPoint x="110" y="36" as="sourcePoint"/><mxPoint x="160" y="-14" as="targetPoint"/></mxGeometry></mxCell><mxCell id="n3Tz83kUOA15m_mnSo43-54" value="" style="endArrow=classic;html=1;rounded=0;fontColor=#FFFFFF;entryX=0;entryY=0.5;entryDx=0;entryDy=0;edgeStyle=orthogonalEdgeStyle;endFill=1;exitX=0.75;exitY=1;exitDx=0;exitDy=0;" parent="n3Tz83kUOA15m_mnSo43-42" source="n3Tz83kUOA15m_mnSo43-46" target="n3Tz83kUOA15m_mnSo43-56" edge="1"><mxGeometry width="50" height="50" relative="1" as="geometry"><mxPoint x="60" y="70" as="sourcePoint"/><mxPoint x="138.75" y="-29.049999999999955" as="targetPoint"/><Array as="points"><mxPoint x="60" y="120"/><mxPoint x="90" y="120"/><mxPoint x="90" y="19"/><mxPoint x="145" y="19"/></Array></mxGeometry></mxCell><mxCell id="n3Tz83kUOA15m_mnSo43-55" value="" style="endArrow=none;html=1;rounded=0;fontColor=#FFFFFF;entryX=0.5;entryY=1;entryDx=0;entryDy=0;exitX=0.5;exitY=0;exitDx=0;exitDy=0;" parent="n3Tz83kUOA15m_mnSo43-42" source="n3Tz83kUOA15m_mnSo43-49" target="n3Tz83kUOA15m_mnSo43-48" edge="1"><mxGeometry width="50" height="50" relative="1" as="geometry"><mxPoint x="300" y="139" as="sourcePoint"/><mxPoint x="350" y="89" as="targetPoint"/></mxGeometry></mxCell><mxCell id="n3Tz83kUOA15m_mnSo43-56" value="" style="ellipse;whiteSpace=wrap;html=1;aspect=fixed;fontSize=32;" parent="n3Tz83kUOA15m_mnSo43-42" vertex="1"><mxGeometry x="145" y="9" width="19" height="19" as="geometry"/></mxCell><mxCell id="n3Tz83kUOA15m_mnSo43-57" value="" style="endArrow=none;html=1;rounded=0;fontColor=#FFFFFF;entryX=0.5;entryY=1;entryDx=0;entryDy=0;" parent="n3Tz83kUOA15m_mnSo43-42" source="n3Tz83kUOA15m_mnSo43-48" target="n3Tz83kUOA15m_mnSo43-56" edge="1"><mxGeometry width="50" height="50" relative="1" as="geometry"><mxPoint x="435" y="196" as="sourcePoint"/><mxPoint x="435" y="159" as="targetPoint"/></mxGeometry></mxCell><mxCell id="n3Tz83kUOA15m_mnSo43-58" value="" style="ellipse;whiteSpace=wrap;html=1;aspect=fixed;fillColor=#FFFFFF;fontColor=#ffffff;strokeColor=#006EAF;" parent="n3Tz83kUOA15m_mnSo43-61" vertex="1"><mxGeometry y="52.5" width="25" height="25" as="geometry"/></mxCell><mxCell id="n3Tz83kUOA15m_mnSo43-59" value="" style="edgeStyle=orthogonalEdgeStyle;rounded=0;orthogonalLoop=1;jettySize=auto;html=1;endArrow=none;endFill=0;" parent="n3Tz83kUOA15m_mnSo43-61" source="n3Tz83kUOA15m_mnSo43-58" edge="1"><mxGeometry relative="1" as="geometry"><mxPoint x="60" y="65" as="targetPoint"/></mxGeometry></mxCell><mxCell id="n3Tz83kUOA15m_mnSo43-62" value="" style="verticalLabelPosition=bottom;verticalAlign=top;html=1;shape=mxgraph.basic.8_point_star;fontSize=32;" parent="1" vertex="1"><mxGeometry x="470" y="592" width="100" height="100" as="geometry"/></mxCell><mxCell id="n3Tz83kUOA15m_mnSo43-63" value="" style="verticalLabelPosition=bottom;verticalAlign=top;html=1;shape=mxgraph.basic.6_point_star;fontSize=32;" parent="1" vertex="1"><mxGeometry x="470" y="354" width="100" height="90" as="geometry"/></mxCell><mxCell id="n3Tz83kUOA15m_mnSo43-64" value="" style="verticalLabelPosition=bottom;verticalAlign=top;html=1;shape=mxgraph.basic.star;fontSize=32;" parent="1" vertex="1"><mxGeometry x="470" y="115" width="100" height="95" as="geometry"/></mxCell><mxCell id="n3Tz83kUOA15m_mnSo43-65" value="" style="group" parent="1" vertex="1" connectable="0"><mxGeometry x="720" y="400" width="240" height="160" as="geometry"/></mxCell><mxCell id="n3Tz83kUOA15m_mnSo43-66" value="" style="whiteSpace=wrap;html=1;aspect=fixed;fillColor=#f5f5f5;fontColor=#333333;strokeColor=#666666;" parent="n3Tz83kUOA15m_mnSo43-65" vertex="1"><mxGeometry x="80" width="160" height="160" as="geometry"/></mxCell><mxCell id="n3Tz83kUOA15m_mnSo43-71" value="" style="rounded=1;whiteSpace=wrap;html=1;fontColor=#FFFFFF;" parent="n3Tz83kUOA15m_mnSo43-65" vertex="1"><mxGeometry x="130" y="40" width="50" height="25" as="geometry"/></mxCell><mxCell id="n3Tz83kUOA15m_mnSo43-72" value="" style="rounded=1;whiteSpace=wrap;html=1;fontColor=#FFFFFF;" parent="n3Tz83kUOA15m_mnSo43-65" vertex="1"><mxGeometry x="130" y="80" width="50" height="25" as="geometry"/></mxCell><mxCell id="n3Tz83kUOA15m_mnSo43-73" value="" style="rounded=1;whiteSpace=wrap;html=1;fontColor=#FFFFFF;" parent="n3Tz83kUOA15m_mnSo43-65" vertex="1"><mxGeometry x="100" y="118.5" width="50" height="25" as="geometry"/></mxCell><mxCell id="n3Tz83kUOA15m_mnSo43-74" value="" style="rounded=1;whiteSpace=wrap;html=1;fontColor=#FFFFFF;" parent="n3Tz83kUOA15m_mnSo43-65" vertex="1"><mxGeometry x="170" y="118.5" width="50" height="25" as="geometry"/></mxCell><mxCell id="n3Tz83kUOA15m_mnSo43-75" value="" style="endArrow=none;html=1;rounded=0;fontColor=#FFFFFF;entryX=0.25;entryY=1;entryDx=0;entryDy=0;exitX=0.5;exitY=0;exitDx=0;exitDy=0;" parent="n3Tz83kUOA15m_mnSo43-65" source="n3Tz83kUOA15m_mnSo43-73" target="n3Tz83kUOA15m_mnSo43-72" edge="1"><mxGeometry width="50" height="50" relative="1" as="geometry"><mxPoint x="110" y="46" as="sourcePoint"/><mxPoint x="160" y="-4" as="targetPoint"/></mxGeometry></mxCell><mxCell id="n3Tz83kUOA15m_mnSo43-76" value="" style="endArrow=none;html=1;rounded=0;fontColor=#FFFFFF;entryX=0.75;entryY=1;entryDx=0;entryDy=0;exitX=0.5;exitY=0;exitDx=0;exitDy=0;" parent="n3Tz83kUOA15m_mnSo43-65" source="n3Tz83kUOA15m_mnSo43-74" target="n3Tz83kUOA15m_mnSo43-72" edge="1"><mxGeometry width="50" height="50" relative="1" as="geometry"><mxPoint x="110" y="36" as="sourcePoint"/><mxPoint x="160" y="-14" as="targetPoint"/></mxGeometry></mxCell><mxCell id="n3Tz83kUOA15m_mnSo43-78" value="" style="endArrow=none;html=1;rounded=0;fontColor=#FFFFFF;entryX=0.5;entryY=1;entryDx=0;entryDy=0;exitX=0.5;exitY=0;exitDx=0;exitDy=0;" parent="n3Tz83kUOA15m_mnSo43-65" source="n3Tz83kUOA15m_mnSo43-72" target="n3Tz83kUOA15m_mnSo43-71" edge="1"><mxGeometry width="50" height="50" relative="1" as="geometry"><mxPoint x="300" y="139" as="sourcePoint"/><mxPoint x="350" y="89" as="targetPoint"/></mxGeometry></mxCell><mxCell id="n3Tz83kUOA15m_mnSo43-79" value="" style="ellipse;whiteSpace=wrap;html=1;aspect=fixed;fontSize=32;" parent="n3Tz83kUOA15m_mnSo43-65" vertex="1"><mxGeometry x="145" y="9" width="19" height="19" as="geometry"/></mxCell><mxCell id="n3Tz83kUOA15m_mnSo43-80" value="" style="endArrow=none;html=1;rounded=0;fontColor=#FFFFFF;entryX=0.5;entryY=1;entryDx=0;entryDy=0;" parent="n3Tz83kUOA15m_mnSo43-65" source="n3Tz83kUOA15m_mnSo43-71" target="n3Tz83kUOA15m_mnSo43-79" edge="1"><mxGeometry width="50" height="50" relative="1" as="geometry"><mxPoint x="435" y="196" as="sourcePoint"/><mxPoint x="435" y="159" as="targetPoint"/></mxGeometry></mxCell><mxCell id="n3Tz83kUOA15m_mnSo43-89" value="" style="group" parent="n3Tz83kUOA15m_mnSo43-65" vertex="1" connectable="0"><mxGeometry x="34" y="-42" width="93" height="89" as="geometry"/></mxCell><mxCell id="n3Tz83kUOA15m_mnSo43-82" value="" style="verticalLabelPosition=bottom;verticalAlign=top;html=1;shape=mxgraph.basic.polygon;polyCoords=[[0.25,0],[0.75,0],[1,0.25],[1,0.75],[0.75,1],[0.25,1],[0,0.75],[0,0.25]];polyline=0;fontSize=32;" parent="n3Tz83kUOA15m_mnSo43-89" vertex="1"><mxGeometry width="93" height="89" as="geometry"/></mxCell><mxCell id="n3Tz83kUOA15m_mnSo43-81" value="" style="sketch=0;outlineConnect=0;fontColor=#232F3E;gradientColor=none;fillColor=#232F3D;strokeColor=none;dashed=0;verticalLabelPosition=bottom;verticalAlign=top;align=center;html=1;fontSize=12;fontStyle=0;aspect=fixed;pointerEvents=1;shape=mxgraph.aws4.question;" parent="n3Tz83kUOA15m_mnSo43-89" vertex="1"><mxGeometry x="33" y="21" width="27.86" height="53" as="geometry"/></mxCell><mxCell id="n3Tz83kUOA15m_mnSo43-86" value="" style="edgeStyle=orthogonalEdgeStyle;rounded=0;orthogonalLoop=1;jettySize=auto;html=1;fontSize=32;exitX=0.9;exitY=0.5;exitDx=0;exitDy=0;exitPerimeter=0;" parent="1" source="n3Tz83kUOA15m_mnSo43-84" edge="1"><mxGeometry relative="1" as="geometry"><mxPoint x="120" y="480" as="targetPoint"/></mxGeometry></mxCell><mxCell id="n3Tz83kUOA15m_mnSo43-84" value="" style="shape=actor;whiteSpace=wrap;html=1;fontSize=32;" parent="1" vertex="1"><mxGeometry x="10" y="435" width="70" height="90" as="geometry"/></mxCell><mxCell id="n3Tz83kUOA15m_mnSo43-87" value="" style="edgeStyle=orthogonalEdgeStyle;rounded=0;orthogonalLoop=1;jettySize=auto;html=1;fontSize=32;" parent="1" source="n3Tz83kUOA15m_mnSo43-85" target="n3Tz83kUOA15m_mnSo43-66" edge="1"><mxGeometry relative="1" as="geometry"/></mxCell><mxCell id="n3Tz83kUOA15m_mnSo43-85" value="" style="shape=actor;whiteSpace=wrap;html=1;fontSize=32;" parent="1" vertex="1"><mxGeometry x="1000" y="435" width="70" height="90" as="geometry"/></mxCell><mxCell id="n3Tz83kUOA15m_mnSo43-88" value="" style="endArrow=none;dashed=1;html=1;rounded=0;fontSize=32;exitX=0.815;exitY=1;exitDx=0;exitDy=0;exitPerimeter=0;entryX=0.131;entryY=0.114;entryDx=0;entryDy=0;entryPerimeter=0;" parent="1" source="n3Tz83kUOA15m_mnSo43-64" target="n3Tz83kUOA15m_mnSo43-82" edge="1"><mxGeometry width="50" height="50" relative="1" as="geometry"><mxPoint x="730" y="560" as="sourcePoint"/><mxPoint x="970" y="290" as="targetPoint"/></mxGeometry></mxCell><mxCell id="n3Tz83kUOA15m_mnSo43-90" value="" style="endArrow=none;dashed=1;html=1;rounded=0;fontSize=32;exitX=1;exitY=0.5;exitDx=0;exitDy=0;exitPerimeter=0;entryX=0.009;entryY=0.46;entryDx=0;entryDy=0;entryPerimeter=0;" parent="1" source="n3Tz83kUOA15m_mnSo43-63" target="n3Tz83kUOA15m_mnSo43-82" edge="1"><mxGeometry width="50" height="50" relative="1" as="geometry"><mxPoint x="561.5" y="220" as="sourcePoint"/><mxPoint x="990" y="400" as="targetPoint"/></mxGeometry></mxCell><mxCell id="n3Tz83kUOA15m_mnSo43-91" value="" style="endArrow=none;dashed=1;html=1;rounded=0;fontSize=32;exitX=1;exitY=0.29;exitDx=0;exitDy=0;exitPerimeter=0;entryX=0.131;entryY=0.869;entryDx=0;entryDy=0;entryPerimeter=0;" parent="1" source="n3Tz83kUOA15m_mnSo43-62" target="n3Tz83kUOA15m_mnSo43-82" edge="1"><mxGeometry width="50" height="50" relative="1" as="geometry"><mxPoint x="580" y="409" as="sourcePoint"/><mxPoint x="999.9999999999995" y="410" as="targetPoint"/></mxGeometry></mxCell><mxCell id="n3Tz83kUOA15m_mnSo43-92" value="Alice" style="text;html=1;strokeColor=none;fillColor=none;align=center;verticalAlign=middle;whiteSpace=wrap;rounded=0;fontSize=32;fontStyle=0" parent="1" vertex="1"><mxGeometry x="15" y="530" width="60" height="30" as="geometry"/></mxCell><mxCell id="n3Tz83kUOA15m_mnSo43-93" value="Bob" style="text;html=1;strokeColor=none;fillColor=none;align=center;verticalAlign=middle;whiteSpace=wrap;rounded=0;fontSize=32;" parent="1" vertex="1"><mxGeometry x="1005" y="535" width="60" height="30" as="geometry"/></mxCell><mxCell id="-_QnY6U5StC4j4irbIvu-1" value="" style="group;fillColor=#1ba1e2;fontColor=#ffffff;strokeColor=none;" parent="1" vertex="1" connectable="0"><mxGeometry x="120" y="160" width="80" height="640" as="geometry"/></mxCell><mxCell id="n3Tz83kUOA15m_mnSo43-1" value="HIGHFLIP" style="text;html=1;strokeColor=none;fillColor=none;align=center;verticalAlign=middle;whiteSpace=wrap;rounded=0;fontSize=32;fontStyle=2;rotation=-90;fontColor=#FFFFFF;" parent="-_QnY6U5StC4j4irbIvu-1" vertex="1"><mxGeometry x="-8" y="305" width="96" height="30" as="geometry"/></mxCell></root></mxGraphModel></diagram><diagram name="Copy of scenario" id="Xzot3YTsNCrWA9H5F6NK"><mxGraphModel dx="490" dy="1046" grid="1" gridSize="10" guides="1" tooltips="1" connect="1" arrows="1" fold="1" page="1" pageScale="1" pageWidth="850" pageHeight="1100" math="0" shadow="0"><root><mxCell id="8vasxq7W37pGjL3ellYA-0"/><mxCell id="8vasxq7W37pGjL3ellYA-1" parent="8vasxq7W37pGjL3ellYA-0"/><mxCell id="8vasxq7W37pGjL3ellYA-91" value="" style="shape=dataStorage;whiteSpace=wrap;html=1;fixedSize=1;size=90;fillColor=#1ba1e2;fontColor=#ffffff;strokeColor=#006EAF;rotation=0;" parent="8vasxq7W37pGjL3ellYA-1" vertex="1"><mxGeometry x="880" y="820" width="170" height="467.25" as="geometry"/></mxCell><mxCell id="8vasxq7W37pGjL3ellYA-92" value="" style="ellipse;whiteSpace=wrap;html=1;aspect=fixed;fillColor=#b1ddf0;strokeColor=#10739e;" parent="8vasxq7W37pGjL3ellYA-1" vertex="1"><mxGeometry x="980" y="730" width="655.5" height="655.5" as="geometry"/></mxCell><mxCell id="8vasxq7W37pGjL3ellYA-95" value="" style="group" parent="8vasxq7W37pGjL3ellYA-1" vertex="1" connectable="0"><mxGeometry x="1350" y="962" width="290" height="160" as="geometry"/></mxCell><mxCell id="8vasxq7W37pGjL3ellYA-96" value="" style="whiteSpace=wrap;html=1;aspect=fixed;fillColor=#f5f5f5;fontColor=#333333;strokeColor=#666666;" parent="8vasxq7W37pGjL3ellYA-95" vertex="1"><mxGeometry x="80" width="160" height="160" as="geometry"/></mxCell><mxCell id="8vasxq7W37pGjL3ellYA-97" value="" style="rounded=0;whiteSpace=wrap;html=1;" parent="8vasxq7W37pGjL3ellYA-95" vertex="1"><mxGeometry width="80" height="160" as="geometry"/></mxCell><mxCell id="8vasxq7W37pGjL3ellYA-98" value="" style="shape=dataStorage;whiteSpace=wrap;html=1;fixedSize=1;direction=south;size=10;fillColor=#1ba1e2;fontColor=#ffffff;strokeColor=#000000;" parent="8vasxq7W37pGjL3ellYA-95" vertex="1"><mxGeometry x="20" y="20" width="40" height="105" as="geometry"/></mxCell><mxCell id="8vasxq7W37pGjL3ellYA-99" value="" style="shape=dataStorage;whiteSpace=wrap;html=1;fixedSize=1;rotation=-90;size=10;" parent="8vasxq7W37pGjL3ellYA-95" vertex="1"><mxGeometry x="22.5" y="102.5" width="35" height="40" as="geometry"/></mxCell><mxCell id="8vasxq7W37pGjL3ellYA-100" value="HIGHFLIP" style="text;html=1;align=center;verticalAlign=middle;whiteSpace=wrap;rounded=0;rotation=-90;fontColor=#FFFFFF;" parent="8vasxq7W37pGjL3ellYA-95" vertex="1"><mxGeometry x="10" y="50" width="60" height="30" as="geometry"/></mxCell><mxCell id="8vasxq7W37pGjL3ellYA-101" value="" style="rounded=1;whiteSpace=wrap;html=1;fontColor=#FFFFFF;" parent="8vasxq7W37pGjL3ellYA-95" vertex="1"><mxGeometry x="130" y="40" width="50" height="25" as="geometry"/></mxCell><mxCell id="8vasxq7W37pGjL3ellYA-102" value="" style="rounded=1;whiteSpace=wrap;html=1;fontColor=#FFFFFF;" parent="8vasxq7W37pGjL3ellYA-95" vertex="1"><mxGeometry x="130" y="80" width="50" height="25" as="geometry"/></mxCell><mxCell id="8vasxq7W37pGjL3ellYA-103" value="" style="rounded=1;whiteSpace=wrap;html=1;fontColor=#FFFFFF;" parent="8vasxq7W37pGjL3ellYA-95" vertex="1"><mxGeometry x="100" y="118.5" width="50" height="25" as="geometry"/></mxCell><mxCell id="8vasxq7W37pGjL3ellYA-104" value="" style="rounded=1;whiteSpace=wrap;html=1;fontColor=#FFFFFF;" parent="8vasxq7W37pGjL3ellYA-95" vertex="1"><mxGeometry x="170" y="118.5" width="50" height="25" as="geometry"/></mxCell><mxCell id="8vasxq7W37pGjL3ellYA-105" value="" style="endArrow=none;html=1;rounded=0;fontColor=#FFFFFF;entryX=0.25;entryY=1;entryDx=0;entryDy=0;exitX=0.5;exitY=0;exitDx=0;exitDy=0;" parent="8vasxq7W37pGjL3ellYA-95" source="8vasxq7W37pGjL3ellYA-103" target="8vasxq7W37pGjL3ellYA-102" edge="1"><mxGeometry width="50" height="50" relative="1" as="geometry"><mxPoint x="110" y="46" as="sourcePoint"/><mxPoint x="160" y="-4" as="targetPoint"/></mxGeometry></mxCell><mxCell id="8vasxq7W37pGjL3ellYA-106" value="" style="endArrow=none;html=1;rounded=0;fontColor=#FFFFFF;entryX=0.75;entryY=1;entryDx=0;entryDy=0;exitX=0.5;exitY=0;exitDx=0;exitDy=0;" parent="8vasxq7W37pGjL3ellYA-95" source="8vasxq7W37pGjL3ellYA-104" target="8vasxq7W37pGjL3ellYA-102" edge="1"><mxGeometry width="50" height="50" relative="1" as="geometry"><mxPoint x="110" y="36" as="sourcePoint"/><mxPoint x="160" y="-14" as="targetPoint"/></mxGeometry></mxCell><mxCell id="8vasxq7W37pGjL3ellYA-107" value="" style="endArrow=classic;html=1;rounded=0;fontColor=#FFFFFF;entryX=0;entryY=0.5;entryDx=0;entryDy=0;edgeStyle=orthogonalEdgeStyle;endFill=1;exitX=0.608;exitY=0.998;exitDx=0;exitDy=0;exitPerimeter=0;" parent="8vasxq7W37pGjL3ellYA-95" source="8vasxq7W37pGjL3ellYA-99" target="8vasxq7W37pGjL3ellYA-109" edge="1"><mxGeometry width="50" height="50" relative="1" as="geometry"><mxPoint x="60" y="70" as="sourcePoint"/><mxPoint x="138.75" y="-29.049999999999955" as="targetPoint"/><Array as="points"><mxPoint x="90" y="119"/><mxPoint x="90" y="19"/><mxPoint x="145" y="19"/></Array></mxGeometry></mxCell><mxCell id="8vasxq7W37pGjL3ellYA-108" value="" style="endArrow=none;html=1;rounded=0;fontColor=#FFFFFF;entryX=0.5;entryY=1;entryDx=0;entryDy=0;exitX=0.5;exitY=0;exitDx=0;exitDy=0;" parent="8vasxq7W37pGjL3ellYA-95" source="8vasxq7W37pGjL3ellYA-102" target="8vasxq7W37pGjL3ellYA-101" edge="1"><mxGeometry width="50" height="50" relative="1" as="geometry"><mxPoint x="300" y="139" as="sourcePoint"/><mxPoint x="350" y="89" as="targetPoint"/></mxGeometry></mxCell><mxCell id="8vasxq7W37pGjL3ellYA-109" value="" style="ellipse;whiteSpace=wrap;html=1;aspect=fixed;fontSize=32;" parent="8vasxq7W37pGjL3ellYA-95" vertex="1"><mxGeometry x="145" y="9" width="19" height="19" as="geometry"/></mxCell><mxCell id="8vasxq7W37pGjL3ellYA-110" value="" style="endArrow=none;html=1;rounded=0;fontColor=#FFFFFF;entryX=0.5;entryY=1;entryDx=0;entryDy=0;" parent="8vasxq7W37pGjL3ellYA-95" source="8vasxq7W37pGjL3ellYA-101" target="8vasxq7W37pGjL3ellYA-109" edge="1"><mxGeometry width="50" height="50" relative="1" as="geometry"><mxPoint x="435" y="196" as="sourcePoint"/><mxPoint x="435" y="159" as="targetPoint"/></mxGeometry></mxCell><mxCell id="8vasxq7W37pGjL3ellYA-187" value="" style="verticalLabelPosition=bottom;verticalAlign=top;html=1;shape=mxgraph.basic.star;fontSize=32;" parent="8vasxq7W37pGjL3ellYA-95" vertex="1"><mxGeometry x="200" y="-30" width="70" height="70" as="geometry"/></mxCell><mxCell id="8vasxq7W37pGjL3ellYA-111" value="" style="ellipse;whiteSpace=wrap;html=1;aspect=fixed;fillColor=#FFFFFF;fontColor=#ffffff;strokeColor=#006EAF;" parent="8vasxq7W37pGjL3ellYA-1" vertex="1"><mxGeometry x="1310" y="1014.5" width="25" height="25" as="geometry"/></mxCell><mxCell id="8vasxq7W37pGjL3ellYA-112" value="" style="edgeStyle=orthogonalEdgeStyle;rounded=0;orthogonalLoop=1;jettySize=auto;html=1;endArrow=none;endFill=0;" parent="8vasxq7W37pGjL3ellYA-1" source="8vasxq7W37pGjL3ellYA-111" edge="1"><mxGeometry relative="1" as="geometry"><mxPoint x="1370" y="1027" as="targetPoint"/></mxGeometry></mxCell><mxCell id="8vasxq7W37pGjL3ellYA-113" value="" style="group" parent="8vasxq7W37pGjL3ellYA-1" vertex="1" connectable="0"><mxGeometry x="1030" y="1014" width="240" height="160" as="geometry"/></mxCell><mxCell id="8vasxq7W37pGjL3ellYA-114" value="" style="whiteSpace=wrap;html=1;aspect=fixed;fillColor=#f5f5f5;fontColor=#333333;strokeColor=#666666;" parent="8vasxq7W37pGjL3ellYA-113" vertex="1"><mxGeometry x="80" width="160" height="160" as="geometry"/></mxCell><mxCell id="8vasxq7W37pGjL3ellYA-115" value="" style="rounded=0;whiteSpace=wrap;html=1;" parent="8vasxq7W37pGjL3ellYA-113" vertex="1"><mxGeometry width="80" height="160" as="geometry"/></mxCell><mxCell id="8vasxq7W37pGjL3ellYA-116" value="" style="shape=dataStorage;whiteSpace=wrap;html=1;fixedSize=1;direction=south;size=10;fillColor=#1ba1e2;fontColor=#ffffff;strokeColor=#000000;" parent="8vasxq7W37pGjL3ellYA-113" vertex="1"><mxGeometry x="20" y="20" width="40" height="105" as="geometry"/></mxCell><mxCell id="8vasxq7W37pGjL3ellYA-117" value="" style="shape=dataStorage;whiteSpace=wrap;html=1;fixedSize=1;rotation=-90;size=10;" parent="8vasxq7W37pGjL3ellYA-113" vertex="1"><mxGeometry x="22.5" y="102.5" width="35" height="40" as="geometry"/></mxCell><mxCell id="8vasxq7W37pGjL3ellYA-118" value="HIGHFLIP" style="text;html=1;align=center;verticalAlign=middle;whiteSpace=wrap;rounded=0;rotation=-90;fontColor=#FFFFFF;" parent="8vasxq7W37pGjL3ellYA-113" vertex="1"><mxGeometry x="10" y="50" width="60" height="30" as="geometry"/></mxCell><mxCell id="8vasxq7W37pGjL3ellYA-119" value="" style="rounded=1;whiteSpace=wrap;html=1;fontColor=#FFFFFF;" parent="8vasxq7W37pGjL3ellYA-113" vertex="1"><mxGeometry x="130" y="40" width="50" height="25" as="geometry"/></mxCell><mxCell id="8vasxq7W37pGjL3ellYA-120" value="" style="rounded=1;whiteSpace=wrap;html=1;fontColor=#FFFFFF;" parent="8vasxq7W37pGjL3ellYA-113" vertex="1"><mxGeometry x="130" y="80" width="50" height="25" as="geometry"/></mxCell><mxCell id="8vasxq7W37pGjL3ellYA-121" value="" style="rounded=1;whiteSpace=wrap;html=1;fontColor=#FFFFFF;" parent="8vasxq7W37pGjL3ellYA-113" vertex="1"><mxGeometry x="100" y="118.5" width="50" height="25" as="geometry"/></mxCell><mxCell id="8vasxq7W37pGjL3ellYA-122" value="" style="rounded=1;whiteSpace=wrap;html=1;fontColor=#FFFFFF;" parent="8vasxq7W37pGjL3ellYA-113" vertex="1"><mxGeometry x="170" y="118.5" width="50" height="25" as="geometry"/></mxCell><mxCell id="8vasxq7W37pGjL3ellYA-123" value="" style="endArrow=none;html=1;rounded=0;fontColor=#FFFFFF;entryX=0.25;entryY=1;entryDx=0;entryDy=0;exitX=0.5;exitY=0;exitDx=0;exitDy=0;" parent="8vasxq7W37pGjL3ellYA-113" source="8vasxq7W37pGjL3ellYA-121" target="8vasxq7W37pGjL3ellYA-120" edge="1"><mxGeometry width="50" height="50" relative="1" as="geometry"><mxPoint x="110" y="46" as="sourcePoint"/><mxPoint x="160" y="-4" as="targetPoint"/></mxGeometry></mxCell><mxCell id="8vasxq7W37pGjL3ellYA-124" value="" style="endArrow=none;html=1;rounded=0;fontColor=#FFFFFF;entryX=0.75;entryY=1;entryDx=0;entryDy=0;exitX=0.5;exitY=0;exitDx=0;exitDy=0;" parent="8vasxq7W37pGjL3ellYA-113" source="8vasxq7W37pGjL3ellYA-122" target="8vasxq7W37pGjL3ellYA-120" edge="1"><mxGeometry width="50" height="50" relative="1" as="geometry"><mxPoint x="110" y="36" as="sourcePoint"/><mxPoint x="160" y="-14" as="targetPoint"/></mxGeometry></mxCell><mxCell id="8vasxq7W37pGjL3ellYA-125" value="" style="endArrow=classic;html=1;rounded=0;fontColor=#FFFFFF;entryX=0;entryY=0.5;entryDx=0;entryDy=0;edgeStyle=orthogonalEdgeStyle;endFill=1;exitX=0.608;exitY=0.998;exitDx=0;exitDy=0;exitPerimeter=0;" parent="8vasxq7W37pGjL3ellYA-113" source="8vasxq7W37pGjL3ellYA-117" target="8vasxq7W37pGjL3ellYA-127" edge="1"><mxGeometry width="50" height="50" relative="1" as="geometry"><mxPoint x="60" y="70" as="sourcePoint"/><mxPoint x="138.75" y="-29.049999999999955" as="targetPoint"/><Array as="points"><mxPoint x="90" y="119"/><mxPoint x="90" y="19"/><mxPoint x="145" y="19"/></Array></mxGeometry></mxCell><mxCell id="8vasxq7W37pGjL3ellYA-126" value="" style="endArrow=none;html=1;rounded=0;fontColor=#FFFFFF;entryX=0.5;entryY=1;entryDx=0;entryDy=0;exitX=0.5;exitY=0;exitDx=0;exitDy=0;" parent="8vasxq7W37pGjL3ellYA-113" source="8vasxq7W37pGjL3ellYA-120" target="8vasxq7W37pGjL3ellYA-119" edge="1"><mxGeometry width="50" height="50" relative="1" as="geometry"><mxPoint x="300" y="139" as="sourcePoint"/><mxPoint x="350" y="89" as="targetPoint"/></mxGeometry></mxCell><mxCell id="8vasxq7W37pGjL3ellYA-127" value="" style="ellipse;whiteSpace=wrap;html=1;aspect=fixed;fontSize=32;" parent="8vasxq7W37pGjL3ellYA-113" vertex="1"><mxGeometry x="145" y="9" width="19" height="19" as="geometry"/></mxCell><mxCell id="8vasxq7W37pGjL3ellYA-128" value="" style="endArrow=none;html=1;rounded=0;fontColor=#FFFFFF;entryX=0.5;entryY=1;entryDx=0;entryDy=0;" parent="8vasxq7W37pGjL3ellYA-113" source="8vasxq7W37pGjL3ellYA-119" target="8vasxq7W37pGjL3ellYA-127" edge="1"><mxGeometry width="50" height="50" relative="1" as="geometry"><mxPoint x="435" y="196" as="sourcePoint"/><mxPoint x="435" y="159" as="targetPoint"/></mxGeometry></mxCell><mxCell id="8vasxq7W37pGjL3ellYA-129" value="" style="ellipse;whiteSpace=wrap;html=1;aspect=fixed;fillColor=#FFFFFF;fontColor=#ffffff;strokeColor=#006EAF;" parent="8vasxq7W37pGjL3ellYA-1" vertex="1"><mxGeometry x="990" y="1066.5" width="25" height="25" as="geometry"/></mxCell><mxCell id="8vasxq7W37pGjL3ellYA-130" value="" style="edgeStyle=orthogonalEdgeStyle;rounded=0;orthogonalLoop=1;jettySize=auto;html=1;endArrow=none;endFill=0;" parent="8vasxq7W37pGjL3ellYA-1" source="8vasxq7W37pGjL3ellYA-129" edge="1"><mxGeometry relative="1" as="geometry"><mxPoint x="1050" y="1079.0000000000002" as="targetPoint"/></mxGeometry></mxCell><mxCell id="8vasxq7W37pGjL3ellYA-164" value="" style="rounded=1;whiteSpace=wrap;html=1;arcSize=50;" parent="8vasxq7W37pGjL3ellYA-1" vertex="1"><mxGeometry x="1610" y="1031" width="277" height="60" as="geometry"/></mxCell><mxCell id="8vasxq7W37pGjL3ellYA-165" value="" style="group" parent="8vasxq7W37pGjL3ellYA-1" vertex="1" connectable="0"><mxGeometry x="1210" y="1190" width="290" height="160" as="geometry"/></mxCell><mxCell id="8vasxq7W37pGjL3ellYA-166" value="" style="whiteSpace=wrap;html=1;aspect=fixed;fillColor=#f5f5f5;fontColor=#333333;strokeColor=#666666;" parent="8vasxq7W37pGjL3ellYA-165" vertex="1"><mxGeometry x="80" width="160" height="160" as="geometry"/></mxCell><mxCell id="8vasxq7W37pGjL3ellYA-167" value="" style="rounded=0;whiteSpace=wrap;html=1;" parent="8vasxq7W37pGjL3ellYA-165" vertex="1"><mxGeometry width="80" height="160" as="geometry"/></mxCell><mxCell id="8vasxq7W37pGjL3ellYA-168" value="" style="shape=dataStorage;whiteSpace=wrap;html=1;fixedSize=1;direction=south;size=10;fillColor=#1ba1e2;fontColor=#ffffff;strokeColor=#000000;" parent="8vasxq7W37pGjL3ellYA-165" vertex="1"><mxGeometry x="20" y="20" width="40" height="105" as="geometry"/></mxCell><mxCell id="8vasxq7W37pGjL3ellYA-169" value="" style="shape=dataStorage;whiteSpace=wrap;html=1;fixedSize=1;rotation=-90;size=10;" parent="8vasxq7W37pGjL3ellYA-165" vertex="1"><mxGeometry x="22.5" y="102.5" width="35" height="40" as="geometry"/></mxCell><mxCell id="8vasxq7W37pGjL3ellYA-170" value="HIGHFLIP" style="text;html=1;align=center;verticalAlign=middle;whiteSpace=wrap;rounded=0;rotation=-90;fontColor=#FFFFFF;" parent="8vasxq7W37pGjL3ellYA-165" vertex="1"><mxGeometry x="10" y="50" width="60" height="30" as="geometry"/></mxCell><mxCell id="8vasxq7W37pGjL3ellYA-171" value="" style="rounded=1;whiteSpace=wrap;html=1;fontColor=#FFFFFF;" parent="8vasxq7W37pGjL3ellYA-165" vertex="1"><mxGeometry x="130" y="40" width="50" height="25" as="geometry"/></mxCell><mxCell id="8vasxq7W37pGjL3ellYA-172" value="" style="rounded=1;whiteSpace=wrap;html=1;fontColor=#FFFFFF;" parent="8vasxq7W37pGjL3ellYA-165" vertex="1"><mxGeometry x="130" y="80" width="50" height="25" as="geometry"/></mxCell><mxCell id="8vasxq7W37pGjL3ellYA-173" value="" style="rounded=1;whiteSpace=wrap;html=1;fontColor=#FFFFFF;" parent="8vasxq7W37pGjL3ellYA-165" vertex="1"><mxGeometry x="100" y="118.5" width="50" height="25" as="geometry"/></mxCell><mxCell id="8vasxq7W37pGjL3ellYA-174" value="" style="rounded=1;whiteSpace=wrap;html=1;fontColor=#FFFFFF;" parent="8vasxq7W37pGjL3ellYA-165" vertex="1"><mxGeometry x="170" y="118.5" width="50" height="25" as="geometry"/></mxCell><mxCell id="8vasxq7W37pGjL3ellYA-175" value="" style="endArrow=none;html=1;rounded=0;fontColor=#FFFFFF;entryX=0.25;entryY=1;entryDx=0;entryDy=0;exitX=0.5;exitY=0;exitDx=0;exitDy=0;" parent="8vasxq7W37pGjL3ellYA-165" source="8vasxq7W37pGjL3ellYA-173" target="8vasxq7W37pGjL3ellYA-172" edge="1"><mxGeometry width="50" height="50" relative="1" as="geometry"><mxPoint x="110" y="46" as="sourcePoint"/><mxPoint x="160" y="-4" as="targetPoint"/></mxGeometry></mxCell><mxCell id="8vasxq7W37pGjL3ellYA-176" value="" style="endArrow=none;html=1;rounded=0;fontColor=#FFFFFF;entryX=0.75;entryY=1;entryDx=0;entryDy=0;exitX=0.5;exitY=0;exitDx=0;exitDy=0;" parent="8vasxq7W37pGjL3ellYA-165" source="8vasxq7W37pGjL3ellYA-174" target="8vasxq7W37pGjL3ellYA-172" edge="1"><mxGeometry width="50" height="50" relative="1" as="geometry"><mxPoint x="110" y="36" as="sourcePoint"/><mxPoint x="160" y="-14" as="targetPoint"/></mxGeometry></mxCell><mxCell id="8vasxq7W37pGjL3ellYA-177" value="" style="endArrow=classic;html=1;rounded=0;fontColor=#FFFFFF;entryX=0;entryY=0.5;entryDx=0;entryDy=0;edgeStyle=orthogonalEdgeStyle;endFill=1;exitX=0.608;exitY=0.998;exitDx=0;exitDy=0;exitPerimeter=0;" parent="8vasxq7W37pGjL3ellYA-165" source="8vasxq7W37pGjL3ellYA-169" target="8vasxq7W37pGjL3ellYA-179" edge="1"><mxGeometry width="50" height="50" relative="1" as="geometry"><mxPoint x="60" y="70" as="sourcePoint"/><mxPoint x="138.75" y="-29.049999999999955" as="targetPoint"/><Array as="points"><mxPoint x="90" y="119"/><mxPoint x="90" y="19"/><mxPoint x="145" y="19"/></Array></mxGeometry></mxCell><mxCell id="8vasxq7W37pGjL3ellYA-178" value="" style="endArrow=none;html=1;rounded=0;fontColor=#FFFFFF;entryX=0.5;entryY=1;entryDx=0;entryDy=0;exitX=0.5;exitY=0;exitDx=0;exitDy=0;" parent="8vasxq7W37pGjL3ellYA-165" source="8vasxq7W37pGjL3ellYA-172" target="8vasxq7W37pGjL3ellYA-171" edge="1"><mxGeometry width="50" height="50" relative="1" as="geometry"><mxPoint x="300" y="139" as="sourcePoint"/><mxPoint x="350" y="89" as="targetPoint"/></mxGeometry></mxCell><mxCell id="8vasxq7W37pGjL3ellYA-179" value="" style="ellipse;whiteSpace=wrap;html=1;aspect=fixed;fontSize=32;" parent="8vasxq7W37pGjL3ellYA-165" vertex="1"><mxGeometry x="155" y="5" width="19" height="19" as="geometry"/></mxCell><mxCell id="8vasxq7W37pGjL3ellYA-180" value="" style="endArrow=none;html=1;rounded=0;fontColor=#FFFFFF;entryX=0.5;entryY=1;entryDx=0;entryDy=0;" parent="8vasxq7W37pGjL3ellYA-165" target="8vasxq7W37pGjL3ellYA-179" edge="1"><mxGeometry width="50" height="50" relative="1" as="geometry"><mxPoint x="164.74489795918316" y="36" as="sourcePoint"/><mxPoint x="445" y="155" as="targetPoint"/></mxGeometry></mxCell><mxCell id="8vasxq7W37pGjL3ellYA-181" value="" style="ellipse;whiteSpace=wrap;html=1;aspect=fixed;fillColor=#FFFFFF;fontColor=#ffffff;strokeColor=#006EAF;" parent="8vasxq7W37pGjL3ellYA-1" vertex="1"><mxGeometry x="1170" y="1242.5" width="25" height="25" as="geometry"/></mxCell><mxCell id="8vasxq7W37pGjL3ellYA-182" value="" style="edgeStyle=orthogonalEdgeStyle;rounded=0;orthogonalLoop=1;jettySize=auto;html=1;endArrow=none;endFill=0;" parent="8vasxq7W37pGjL3ellYA-1" source="8vasxq7W37pGjL3ellYA-181" edge="1"><mxGeometry relative="1" as="geometry"><mxPoint x="1230" y="1255" as="targetPoint"/></mxGeometry></mxCell><mxCell id="8vasxq7W37pGjL3ellYA-183" value="HIGHFLIP" style="text;html=1;strokeColor=none;fillColor=none;align=center;verticalAlign=middle;whiteSpace=wrap;rounded=0;fontSize=32;fontStyle=2;rotation=-90;fontColor=#FFFFFF;" parent="8vasxq7W37pGjL3ellYA-1" vertex="1"><mxGeometry x="880" y="1036.5" width="96" height="30" as="geometry"/></mxCell><mxCell id="8vasxq7W37pGjL3ellYA-131" value="" style="ellipse;whiteSpace=wrap;html=1;aspect=fixed;fillColor=#b1ddf0;strokeColor=#10739e;" parent="8vasxq7W37pGjL3ellYA-1" vertex="1"><mxGeometry x="1765" y="912.75" width="290" height="290" as="geometry"/></mxCell><mxCell id="8vasxq7W37pGjL3ellYA-148" value="" style="whiteSpace=wrap;html=1;aspect=fixed;fillColor=#f5f5f5;fontColor=#333333;strokeColor=#666666;" parent="8vasxq7W37pGjL3ellYA-1" vertex="1"><mxGeometry x="1835" y="980" width="160" height="160" as="geometry"/></mxCell><mxCell id="8vasxq7W37pGjL3ellYA-149" value="" style="rounded=1;whiteSpace=wrap;html=1;fontColor=#FFFFFF;" parent="8vasxq7W37pGjL3ellYA-1" vertex="1"><mxGeometry x="1885" y="1020" width="50" height="25" as="geometry"/></mxCell><mxCell id="8vasxq7W37pGjL3ellYA-150" value="" style="rounded=1;whiteSpace=wrap;html=1;fontColor=#FFFFFF;" parent="8vasxq7W37pGjL3ellYA-1" vertex="1"><mxGeometry x="1885" y="1060" width="50" height="25" as="geometry"/></mxCell><mxCell id="8vasxq7W37pGjL3ellYA-151" value="" style="rounded=1;whiteSpace=wrap;html=1;fontColor=#FFFFFF;" parent="8vasxq7W37pGjL3ellYA-1" vertex="1"><mxGeometry x="1855" y="1098.5" width="50" height="25" as="geometry"/></mxCell><mxCell id="8vasxq7W37pGjL3ellYA-152" value="" style="rounded=1;whiteSpace=wrap;html=1;fontColor=#FFFFFF;" parent="8vasxq7W37pGjL3ellYA-1" vertex="1"><mxGeometry x="1925" y="1098.5" width="50" height="25" as="geometry"/></mxCell><mxCell id="8vasxq7W37pGjL3ellYA-153" value="" style="endArrow=none;html=1;rounded=0;fontColor=#FFFFFF;entryX=0.25;entryY=1;entryDx=0;entryDy=0;exitX=0.5;exitY=0;exitDx=0;exitDy=0;" parent="8vasxq7W37pGjL3ellYA-1" source="8vasxq7W37pGjL3ellYA-151" target="8vasxq7W37pGjL3ellYA-150" edge="1"><mxGeometry width="50" height="50" relative="1" as="geometry"><mxPoint x="1145" y="626" as="sourcePoint"/><mxPoint x="1195" y="576" as="targetPoint"/></mxGeometry></mxCell><mxCell id="8vasxq7W37pGjL3ellYA-154" value="" style="endArrow=none;html=1;rounded=0;fontColor=#FFFFFF;entryX=0.75;entryY=1;entryDx=0;entryDy=0;exitX=0.5;exitY=0;exitDx=0;exitDy=0;" parent="8vasxq7W37pGjL3ellYA-1" source="8vasxq7W37pGjL3ellYA-152" target="8vasxq7W37pGjL3ellYA-150" edge="1"><mxGeometry width="50" height="50" relative="1" as="geometry"><mxPoint x="1145" y="616" as="sourcePoint"/><mxPoint x="1195" y="566" as="targetPoint"/></mxGeometry></mxCell><mxCell id="8vasxq7W37pGjL3ellYA-155" value="" style="endArrow=none;html=1;rounded=0;fontColor=#FFFFFF;entryX=0.5;entryY=1;entryDx=0;entryDy=0;exitX=0.5;exitY=0;exitDx=0;exitDy=0;" parent="8vasxq7W37pGjL3ellYA-1" source="8vasxq7W37pGjL3ellYA-150" target="8vasxq7W37pGjL3ellYA-149" edge="1"><mxGeometry width="50" height="50" relative="1" as="geometry"><mxPoint x="1335" y="719" as="sourcePoint"/><mxPoint x="1385" y="669" as="targetPoint"/></mxGeometry></mxCell><mxCell id="8vasxq7W37pGjL3ellYA-156" value="" style="ellipse;whiteSpace=wrap;html=1;aspect=fixed;fontSize=32;" parent="8vasxq7W37pGjL3ellYA-1" vertex="1"><mxGeometry x="1900" y="989" width="19" height="19" as="geometry"/></mxCell><mxCell id="8vasxq7W37pGjL3ellYA-157" value="" style="endArrow=none;html=1;rounded=0;fontColor=#FFFFFF;entryX=0.5;entryY=1;entryDx=0;entryDy=0;" parent="8vasxq7W37pGjL3ellYA-1" source="8vasxq7W37pGjL3ellYA-149" target="8vasxq7W37pGjL3ellYA-156" edge="1"><mxGeometry width="50" height="50" relative="1" as="geometry"><mxPoint x="1470" y="776" as="sourcePoint"/><mxPoint x="1470" y="739" as="targetPoint"/></mxGeometry></mxCell><mxCell id="8vasxq7W37pGjL3ellYA-158" value="" style="group" parent="8vasxq7W37pGjL3ellYA-1" vertex="1" connectable="0"><mxGeometry x="1789" y="938" width="93" height="89" as="geometry"/></mxCell><mxCell id="8vasxq7W37pGjL3ellYA-159" value="" style="verticalLabelPosition=bottom;verticalAlign=top;html=1;shape=mxgraph.basic.polygon;polyCoords=[[0.25,0],[0.75,0],[1,0.25],[1,0.75],[0.75,1],[0.25,1],[0,0.75],[0,0.25]];polyline=0;fontSize=32;" parent="8vasxq7W37pGjL3ellYA-158" vertex="1"><mxGeometry width="93" height="89" as="geometry"/></mxCell><mxCell id="8vasxq7W37pGjL3ellYA-160" value="" style="sketch=0;outlineConnect=0;fontColor=#232F3E;gradientColor=none;fillColor=#232F3D;strokeColor=none;dashed=0;verticalLabelPosition=bottom;verticalAlign=top;align=center;html=1;fontSize=12;fontStyle=0;aspect=fixed;pointerEvents=1;shape=mxgraph.aws4.question;" parent="8vasxq7W37pGjL3ellYA-158" vertex="1"><mxGeometry x="33" y="21" width="27.86" height="53" as="geometry"/></mxCell><mxCell id="8vasxq7W37pGjL3ellYA-188" value="" style="verticalLabelPosition=bottom;verticalAlign=top;html=1;shape=mxgraph.basic.6_point_star;fontSize=32;" parent="8vasxq7W37pGjL3ellYA-1" vertex="1"><mxGeometry x="1230" y="985" width="70" height="65" as="geometry"/></mxCell><mxCell id="8vasxq7W37pGjL3ellYA-211" value="" style="verticalLabelPosition=bottom;verticalAlign=top;html=1;shape=mxgraph.basic.8_point_star;fontSize=32;" parent="8vasxq7W37pGjL3ellYA-1" vertex="1"><mxGeometry x="1410" y="1160" width="70" height="70" as="geometry"/></mxCell><mxCell id="Mkje5i3IU3JYQZMZTMqD-0" value="" style="shape=flexArrow;endArrow=classic;startArrow=classic;html=1;rounded=0;" parent="8vasxq7W37pGjL3ellYA-1" edge="1"><mxGeometry width="100" height="100" relative="1" as="geometry"><mxPoint x="1638" y="1062.23" as="sourcePoint"/><mxPoint x="1748" y="1062.23" as="targetPoint"/></mxGeometry></mxCell><mxCell id="Mkje5i3IU3JYQZMZTMqD-33" value="" style="group" parent="8vasxq7W37pGjL3ellYA-1" vertex="1" connectable="0"><mxGeometry x="1140" y="780" width="280" height="160" as="geometry"/></mxCell><mxCell id="Mkje5i3IU3JYQZMZTMqD-34" value="" style="whiteSpace=wrap;html=1;aspect=fixed;fillColor=#f5f5f5;fontColor=#333333;strokeColor=#666666;" parent="Mkje5i3IU3JYQZMZTMqD-33" vertex="1"><mxGeometry x="80" width="160" height="160" as="geometry"/></mxCell><mxCell id="Mkje5i3IU3JYQZMZTMqD-35" value="" style="rounded=0;whiteSpace=wrap;html=1;" parent="Mkje5i3IU3JYQZMZTMqD-33" vertex="1"><mxGeometry width="80" height="160" as="geometry"/></mxCell><mxCell id="Mkje5i3IU3JYQZMZTMqD-36" value="" style="shape=dataStorage;whiteSpace=wrap;html=1;fixedSize=1;direction=south;size=10;fillColor=#1ba1e2;fontColor=#ffffff;strokeColor=#000000;" parent="Mkje5i3IU3JYQZMZTMqD-33" vertex="1"><mxGeometry x="20" y="20" width="40" height="105" as="geometry"/></mxCell><mxCell id="Mkje5i3IU3JYQZMZTMqD-37" value="" style="shape=dataStorage;whiteSpace=wrap;html=1;fixedSize=1;rotation=-90;size=10;" parent="Mkje5i3IU3JYQZMZTMqD-33" vertex="1"><mxGeometry x="22.5" y="102.5" width="35" height="40" as="geometry"/></mxCell><mxCell id="Mkje5i3IU3JYQZMZTMqD-38" value="HIGHFLIP" style="text;html=1;align=center;verticalAlign=middle;whiteSpace=wrap;rounded=0;rotation=-90;fontColor=#FFFFFF;" parent="Mkje5i3IU3JYQZMZTMqD-33" vertex="1"><mxGeometry x="10" y="50" width="60" height="30" as="geometry"/></mxCell><mxCell id="Mkje5i3IU3JYQZMZTMqD-39" value="" style="rounded=1;whiteSpace=wrap;html=1;fontColor=#FFFFFF;" parent="Mkje5i3IU3JYQZMZTMqD-33" vertex="1"><mxGeometry x="130" y="40" width="50" height="25" as="geometry"/></mxCell><mxCell id="Mkje5i3IU3JYQZMZTMqD-40" value="" style="rounded=1;whiteSpace=wrap;html=1;fontColor=#FFFFFF;" parent="Mkje5i3IU3JYQZMZTMqD-33" vertex="1"><mxGeometry x="130" y="80" width="50" height="25" as="geometry"/></mxCell><mxCell id="Mkje5i3IU3JYQZMZTMqD-41" value="" style="rounded=1;whiteSpace=wrap;html=1;fontColor=#FFFFFF;" parent="Mkje5i3IU3JYQZMZTMqD-33" vertex="1"><mxGeometry x="100" y="118.5" width="50" height="25" as="geometry"/></mxCell><mxCell id="Mkje5i3IU3JYQZMZTMqD-42" value="" style="rounded=1;whiteSpace=wrap;html=1;fontColor=#FFFFFF;" parent="Mkje5i3IU3JYQZMZTMqD-33" vertex="1"><mxGeometry x="170" y="118.5" width="50" height="25" as="geometry"/></mxCell><mxCell id="Mkje5i3IU3JYQZMZTMqD-43" value="" style="endArrow=none;html=1;rounded=0;fontColor=#FFFFFF;entryX=0.25;entryY=1;entryDx=0;entryDy=0;exitX=0.5;exitY=0;exitDx=0;exitDy=0;" parent="Mkje5i3IU3JYQZMZTMqD-33" source="Mkje5i3IU3JYQZMZTMqD-41" target="Mkje5i3IU3JYQZMZTMqD-40" edge="1"><mxGeometry width="50" height="50" relative="1" as="geometry"><mxPoint x="110" y="46" as="sourcePoint"/><mxPoint x="160" y="-4" as="targetPoint"/></mxGeometry></mxCell><mxCell id="Mkje5i3IU3JYQZMZTMqD-44" value="" style="endArrow=none;html=1;rounded=0;fontColor=#FFFFFF;entryX=0.75;entryY=1;entryDx=0;entryDy=0;exitX=0.5;exitY=0;exitDx=0;exitDy=0;" parent="Mkje5i3IU3JYQZMZTMqD-33" source="Mkje5i3IU3JYQZMZTMqD-42" target="Mkje5i3IU3JYQZMZTMqD-40" edge="1"><mxGeometry width="50" height="50" relative="1" as="geometry"><mxPoint x="110" y="36" as="sourcePoint"/><mxPoint x="160" y="-14" as="targetPoint"/></mxGeometry></mxCell><mxCell id="Mkje5i3IU3JYQZMZTMqD-45" value="" style="endArrow=classic;html=1;rounded=0;fontColor=#FFFFFF;entryX=0;entryY=0.5;entryDx=0;entryDy=0;edgeStyle=orthogonalEdgeStyle;endFill=1;exitX=0.608;exitY=0.998;exitDx=0;exitDy=0;exitPerimeter=0;" parent="Mkje5i3IU3JYQZMZTMqD-33" source="Mkje5i3IU3JYQZMZTMqD-37" target="Mkje5i3IU3JYQZMZTMqD-47" edge="1"><mxGeometry width="50" height="50" relative="1" as="geometry"><mxPoint x="60" y="70" as="sourcePoint"/><mxPoint x="138.75" y="-29.049999999999955" as="targetPoint"/><Array as="points"><mxPoint x="90" y="119"/><mxPoint x="90" y="19"/><mxPoint x="145" y="19"/></Array></mxGeometry></mxCell><mxCell id="Mkje5i3IU3JYQZMZTMqD-46" value="" style="endArrow=none;html=1;rounded=0;fontColor=#FFFFFF;entryX=0.5;entryY=1;entryDx=0;entryDy=0;exitX=0.5;exitY=0;exitDx=0;exitDy=0;" parent="Mkje5i3IU3JYQZMZTMqD-33" source="Mkje5i3IU3JYQZMZTMqD-40" target="Mkje5i3IU3JYQZMZTMqD-39" edge="1"><mxGeometry width="50" height="50" relative="1" as="geometry"><mxPoint x="300" y="139" as="sourcePoint"/><mxPoint x="350" y="89" as="targetPoint"/></mxGeometry></mxCell><mxCell id="Mkje5i3IU3JYQZMZTMqD-47" value="" style="ellipse;whiteSpace=wrap;html=1;aspect=fixed;fontSize=32;" parent="Mkje5i3IU3JYQZMZTMqD-33" vertex="1"><mxGeometry x="145" y="9" width="19" height="19" as="geometry"/></mxCell><mxCell id="Mkje5i3IU3JYQZMZTMqD-48" value="" style="endArrow=none;html=1;rounded=0;fontColor=#FFFFFF;entryX=0.5;entryY=1;entryDx=0;entryDy=0;" parent="Mkje5i3IU3JYQZMZTMqD-33" source="Mkje5i3IU3JYQZMZTMqD-39" target="Mkje5i3IU3JYQZMZTMqD-47" edge="1"><mxGeometry width="50" height="50" relative="1" as="geometry"><mxPoint x="435" y="196" as="sourcePoint"/><mxPoint x="435" y="159" as="targetPoint"/></mxGeometry></mxCell><mxCell id="Mkje5i3IU3JYQZMZTMqD-49" value="" style="rhombus;whiteSpace=wrap;html=1;" parent="Mkje5i3IU3JYQZMZTMqD-33" vertex="1"><mxGeometry x="211" y="-20" width="60" height="60" as="geometry"/></mxCell><mxCell id="Mkje5i3IU3JYQZMZTMqD-50" value="" style="ellipse;whiteSpace=wrap;html=1;aspect=fixed;fillColor=#FFFFFF;fontColor=#ffffff;strokeColor=#006EAF;" parent="8vasxq7W37pGjL3ellYA-1" vertex="1"><mxGeometry x="1100" y="832.5" width="25" height="25" as="geometry"/></mxCell><mxCell id="Mkje5i3IU3JYQZMZTMqD-51" value="" style="edgeStyle=orthogonalEdgeStyle;rounded=0;orthogonalLoop=1;jettySize=auto;html=1;endArrow=none;endFill=0;" parent="8vasxq7W37pGjL3ellYA-1" source="Mkje5i3IU3JYQZMZTMqD-50" edge="1"><mxGeometry relative="1" as="geometry"><mxPoint x="1160" y="845" as="targetPoint"/></mxGeometry></mxCell><mxCell id="Mkje5i3IU3JYQZMZTMqD-53" value="" style="group" parent="8vasxq7W37pGjL3ellYA-1" vertex="1" connectable="0"><mxGeometry x="860" y="760" width="120" height="180" as="geometry"/></mxCell><mxCell id="Mkje5i3IU3JYQZMZTMqD-28" value="" style="rounded=0;whiteSpace=wrap;html=1;" parent="Mkje5i3IU3JYQZMZTMqD-53" vertex="1"><mxGeometry width="120" height="180" as="geometry"/></mxCell><mxCell id="Mkje5i3IU3JYQZMZTMqD-29" value="" style="group" parent="Mkje5i3IU3JYQZMZTMqD-53" vertex="1" connectable="0"><mxGeometry x="25" y="40" width="70" height="125" as="geometry"/></mxCell><mxCell id="Mkje5i3IU3JYQZMZTMqD-30" value="" style="shape=actor;whiteSpace=wrap;html=1;fontSize=32;" parent="Mkje5i3IU3JYQZMZTMqD-29" vertex="1"><mxGeometry width="70" height="90" as="geometry"/></mxCell><mxCell id="Mkje5i3IU3JYQZMZTMqD-31" value="Alice" style="text;html=1;strokeColor=none;fillColor=none;align=center;verticalAlign=middle;whiteSpace=wrap;rounded=0;fontSize=32;fontStyle=0" parent="Mkje5i3IU3JYQZMZTMqD-29" vertex="1"><mxGeometry x="5" y="95" width="60" height="30" as="geometry"/></mxCell><mxCell id="Mkje5i3IU3JYQZMZTMqD-54" value="" style="group" parent="8vasxq7W37pGjL3ellYA-1" vertex="1" connectable="0"><mxGeometry x="1930" y="760" width="120" height="180" as="geometry"/></mxCell><mxCell id="Mkje5i3IU3JYQZMZTMqD-27" value="" style="rounded=0;whiteSpace=wrap;html=1;" parent="Mkje5i3IU3JYQZMZTMqD-54" vertex="1"><mxGeometry width="120" height="180" as="geometry"/></mxCell><mxCell id="Mkje5i3IU3JYQZMZTMqD-3" value="" style="group" parent="Mkje5i3IU3JYQZMZTMqD-54" vertex="1" connectable="0"><mxGeometry x="27" y="34" width="70" height="130" as="geometry"/></mxCell><mxCell id="8vasxq7W37pGjL3ellYA-162" value="" style="shape=actor;whiteSpace=wrap;html=1;fontSize=32;" parent="Mkje5i3IU3JYQZMZTMqD-3" vertex="1"><mxGeometry width="70" height="90" as="geometry"/></mxCell><mxCell id="8vasxq7W37pGjL3ellYA-163" value="Bob" style="text;html=1;strokeColor=none;fillColor=none;align=center;verticalAlign=middle;whiteSpace=wrap;rounded=0;fontSize=32;" parent="Mkje5i3IU3JYQZMZTMqD-3" vertex="1"><mxGeometry x="5" y="100" width="60" height="30" as="geometry"/></mxCell></root></mxGraphModel></diagram><diagram id="eL9Q0Wz3lRLIX_iF4Iop" name="directories"><mxGraphModel dx="1355" dy="878" grid="1" gridSize="10" guides="1" tooltips="1" connect="1" arrows="1" fold="1" page="1" pageScale="1" pageWidth="850" pageHeight="1100" math="0" shadow="0"><root><mxCell id="0"/><mxCell id="1" parent="0"/><mxCell id="C0IGPViOwksKlrAOO8yU-1" value="highflip-core" style="rounded=0;whiteSpace=wrap;html=1;fillColor=#fff2cc;strokeColor=#d6b656;" parent="1" vertex="1"><mxGeometry x="280" y="280" width="120" height="60" as="geometry"/></mxCell><mxCell id="C0IGPViOwksKlrAOO8yU-2" value="" style="edgeStyle=orthogonalEdgeStyle;rounded=0;orthogonalLoop=1;jettySize=auto;html=1;entryX=0.5;entryY=1;entryDx=0;entryDy=0;exitX=0.5;exitY=0;exitDx=0;exitDy=0;" parent="1" source="C0IGPViOwksKlrAOO8yU-1" target="C0IGPViOwksKlrAOO8yU-3" edge="1"><mxGeometry relative="1" as="geometry"/></mxCell><mxCell id="C0IGPViOwksKlrAOO8yU-3" value="highflip-proto" style="rounded=0;whiteSpace=wrap;html=1;fillColor=#fff2cc;strokeColor=#d6b656;" parent="1" vertex="1"><mxGeometry x="280" y="160" width="120" height="60" as="geometry"/></mxCell><mxCell id="C0IGPViOwksKlrAOO8yU-4" value="highflip-server" style="rounded=0;whiteSpace=wrap;html=1;" parent="1" vertex="1"><mxGeometry x="520" y="120" width="120" height="60" as="geometry"/></mxCell><mxCell id="C0IGPViOwksKlrAOO8yU-5" value="highflip-adaptors" style="rounded=0;whiteSpace=wrap;html=1;" parent="1" vertex="1"><mxGeometry x="520" y="380" width="120" height="60" as="geometry"/></mxCell><mxCell id="C0IGPViOwksKlrAOO8yU-6" value="higflip-client" style="rounded=0;whiteSpace=wrap;html=1;" parent="1" vertex="1"><mxGeometry x="40" y="120" width="120" height="60" as="geometry"/></mxCell><mxCell id="C0IGPViOwksKlrAOO8yU-7" value="" style="endArrow=classic;html=1;rounded=0;exitX=1;exitY=0.5;exitDx=0;exitDy=0;entryX=0;entryY=0.5;entryDx=0;entryDy=0;edgeStyle=orthogonalEdgeStyle;" parent="1" source="C0IGPViOwksKlrAOO8yU-6" target="C0IGPViOwksKlrAOO8yU-3" edge="1"><mxGeometry width="50" height="50" relative="1" as="geometry"><mxPoint x="140" y="430" as="sourcePoint"/><mxPoint x="190" y="380" as="targetPoint"/><Array as="points"><mxPoint x="200" y="150"/><mxPoint x="200" y="190"/></Array></mxGeometry></mxCell><mxCell id="C0IGPViOwksKlrAOO8yU-8" value="" style="endArrow=classic;html=1;rounded=0;entryX=1;entryY=0.5;entryDx=0;entryDy=0;exitX=0;exitY=0.5;exitDx=0;exitDy=0;edgeStyle=orthogonalEdgeStyle;" parent="1" source="C0IGPViOwksKlrAOO8yU-5" target="C0IGPViOwksKlrAOO8yU-1" edge="1"><mxGeometry width="50" height="50" relative="1" as="geometry"><mxPoint x="460" y="510" as="sourcePoint"/><mxPoint x="510" y="460" as="targetPoint"/><Array as="points"><mxPoint x="480" y="410"/><mxPoint x="480" y="310"/></Array></mxGeometry></mxCell><mxCell id="C0IGPViOwksKlrAOO8yU-9" value="" style="endArrow=classic;html=1;rounded=0;exitX=0;exitY=0.5;exitDx=0;exitDy=0;entryX=1;entryY=0.5;entryDx=0;entryDy=0;edgeStyle=orthogonalEdgeStyle;" parent="1" source="C0IGPViOwksKlrAOO8yU-4" target="C0IGPViOwksKlrAOO8yU-1" edge="1"><mxGeometry width="50" height="50" relative="1" as="geometry"><mxPoint x="750" y="330" as="sourcePoint"/><mxPoint x="800" y="280" as="targetPoint"/><Array as="points"><mxPoint x="480" y="150"/><mxPoint x="480" y="310"/></Array></mxGeometry></mxCell><mxCell id="C0IGPViOwksKlrAOO8yU-10" value="highflip-docs" style="rounded=0;whiteSpace=wrap;html=1;" parent="1" vertex="1"><mxGeometry x="280" y="380" width="120" height="60" as="geometry"/></mxCell><mxCell id="C0IGPViOwksKlrAOO8yU-11" value="" style="rounded=0;orthogonalLoop=1;jettySize=auto;html=1;exitX=1;exitY=0.5;exitDx=0;exitDy=0;entryX=0;entryY=0.5;entryDx=0;entryDy=0;edgeStyle=orthogonalEdgeStyle;" parent="1" source="C0IGPViOwksKlrAOO8yU-12" target="C0IGPViOwksKlrAOO8yU-3" edge="1"><mxGeometry relative="1" as="geometry"><Array as="points"><mxPoint x="200" y="410"/><mxPoint x="200" y="190"/></Array></mxGeometry></mxCell><mxCell id="C0IGPViOwksKlrAOO8yU-12" value="highflip-tools" style="rounded=0;whiteSpace=wrap;html=1;" parent="1" vertex="1"><mxGeometry x="40" y="380" width="120" height="60" as="geometry"/></mxCell></root></mxGraphModel></diagram><diagram id="QG0_4X96YnQgpvoEyPZU" name="Page-5"><mxGraphModel dx="2205" dy="878" grid="1" gridSize="10" guides="1" tooltips="1" connect="1" arrows="1" fold="1" page="1" pageScale="1" pageWidth="850" pageHeight="1100" math="0" shadow="0"><root><mxCell id="oE2Vs8LDqYihQaOIewwv-0"/><mxCell id="oE2Vs8LDqYihQaOIewwv-1" parent="oE2Vs8LDqYihQaOIewwv-0"/><mxCell id="oE2Vs8LDqYihQaOIewwv-4" value="GraphProto" style="rounded=0;whiteSpace=wrap;html=1;" parent="oE2Vs8LDqYihQaOIewwv-1" vertex="1"><mxGeometry x="-560" y="40" width="120" height="60" as="geometry"/></mxCell><mxCell id="oE2Vs8LDqYihQaOIewwv-5" value="NodeProto" style="rounded=0;whiteSpace=wrap;html=1;" parent="oE2Vs8LDqYihQaOIewwv-1" vertex="1"><mxGeometry x="-440" y="140" width="120" height="60" as="geometry"/></mxCell><mxCell id="oE2Vs8LDqYihQaOIewwv-11" value="" style="edgeStyle=orthogonalEdgeStyle;rounded=0;orthogonalLoop=1;jettySize=auto;html=1;entryX=1;entryY=0.5;entryDx=0;entryDy=0;" parent="oE2Vs8LDqYihQaOIewwv-1" source="oE2Vs8LDqYihQaOIewwv-6" target="oE2Vs8LDqYihQaOIewwv-7" edge="1"><mxGeometry relative="1" as="geometry"/></mxCell><mxCell id="oE2Vs8LDqYihQaOIewwv-6" value="PartyProto" style="rounded=0;whiteSpace=wrap;html=1;" parent="oE2Vs8LDqYihQaOIewwv-1" vertex="1"><mxGeometry x="-680" y="200" width="120" height="60" as="geometry"/></mxCell><mxCell id="oE2Vs8LDqYihQaOIewwv-7" value="PartyNodeProto" style="rounded=0;whiteSpace=wrap;html=1;" parent="oE2Vs8LDqYihQaOIewwv-1" vertex="1"><mxGeometry x="-800" y="320" width="120" height="60" as="geometry"/></mxCell><mxCell id="oE2Vs8LDqYihQaOIewwv-8" value="" style="endArrow=classic;html=1;rounded=0;exitX=0.75;exitY=1;exitDx=0;exitDy=0;entryX=0;entryY=0.5;entryDx=0;entryDy=0;" parent="oE2Vs8LDqYihQaOIewwv-1" source="oE2Vs8LDqYihQaOIewwv-4" target="oE2Vs8LDqYihQaOIewwv-5" edge="1"><mxGeometry width="50" height="50" relative="1" as="geometry"><mxPoint x="-420" y="390" as="sourcePoint"/><mxPoint x="-370" y="340" as="targetPoint"/><Array as="points"><mxPoint x="-470" y="170"/></Array></mxGeometry></mxCell><mxCell id="oE2Vs8LDqYihQaOIewwv-10" value="" style="endArrow=classic;html=1;rounded=0;exitX=0.25;exitY=1;exitDx=0;exitDy=0;entryX=1;entryY=0.5;entryDx=0;entryDy=0;" parent="oE2Vs8LDqYihQaOIewwv-1" source="oE2Vs8LDqYihQaOIewwv-4" target="oE2Vs8LDqYihQaOIewwv-6" edge="1"><mxGeometry width="50" height="50" relative="1" as="geometry"><mxPoint x="-640" y="110" as="sourcePoint"/><mxPoint x="-590" y="60" as="targetPoint"/><Array as="points"><mxPoint x="-530" y="230"/></Array></mxGeometry></mxCell><mxCell id="Dgt7N3kG0CkOWjfIpYyg-27" value="" style="edgeStyle=none;rounded=0;orthogonalLoop=1;jettySize=auto;html=1;dashed=1;" parent="oE2Vs8LDqYihQaOIewwv-1" source="Dgt7N3kG0CkOWjfIpYyg-17" target="Dgt7N3kG0CkOWjfIpYyg-22" edge="1"><mxGeometry relative="1" as="geometry"/></mxCell><mxCell id="Dgt7N3kG0CkOWjfIpYyg-17" value="Attribute" style="rounded=0;whiteSpace=wrap;html=1;dashed=1;" parent="oE2Vs8LDqYihQaOIewwv-1" vertex="1"><mxGeometry x="-440" y="279" width="120" height="60" as="geometry"/></mxCell><mxCell id="Dgt7N3kG0CkOWjfIpYyg-18" value="" style="endArrow=classic;html=1;rounded=0;exitX=0.5;exitY=1;exitDx=0;exitDy=0;entryX=0.5;entryY=0;entryDx=0;entryDy=0;dashed=1;" parent="oE2Vs8LDqYihQaOIewwv-1" source="oE2Vs8LDqYihQaOIewwv-5" target="Dgt7N3kG0CkOWjfIpYyg-17" edge="1"><mxGeometry width="50" height="50" relative="1" as="geometry"><mxPoint x="-320" y="400" as="sourcePoint"/><mxPoint x="-270" y="350" as="targetPoint"/></mxGeometry></mxCell><mxCell id="Dgt7N3kG0CkOWjfIpYyg-19" value="" style="endArrow=classic;html=1;rounded=0;exitX=0.5;exitY=1;exitDx=0;exitDy=0;entryX=0;entryY=0.25;entryDx=0;entryDy=0;dashed=1;" parent="oE2Vs8LDqYihQaOIewwv-1" source="oE2Vs8LDqYihQaOIewwv-4" target="Dgt7N3kG0CkOWjfIpYyg-17" edge="1"><mxGeometry width="50" height="50" relative="1" as="geometry"><mxPoint x="-430" y="330" as="sourcePoint"/><mxPoint x="-380" y="280" as="targetPoint"/><Array as="points"><mxPoint x="-500" y="280"/><mxPoint x="-500" y="294"/></Array></mxGeometry></mxCell><mxCell id="Dgt7N3kG0CkOWjfIpYyg-20" value="" style="endArrow=classic;html=1;rounded=0;exitX=0.75;exitY=1;exitDx=0;exitDy=0;entryX=0;entryY=0.75;entryDx=0;entryDy=0;dashed=1;" parent="oE2Vs8LDqYihQaOIewwv-1" source="oE2Vs8LDqYihQaOIewwv-6" target="Dgt7N3kG0CkOWjfIpYyg-17" edge="1"><mxGeometry width="50" height="50" relative="1" as="geometry"><mxPoint x="-620" y="310" as="sourcePoint"/><mxPoint x="-570" y="260" as="targetPoint"/><Array as="points"><mxPoint x="-590" y="324"/></Array></mxGeometry></mxCell><mxCell id="Dgt7N3kG0CkOWjfIpYyg-21" value="" style="endArrow=classic;html=1;rounded=0;exitX=0.5;exitY=1;exitDx=0;exitDy=0;entryX=0.5;entryY=1;entryDx=0;entryDy=0;dashed=1;" parent="oE2Vs8LDqYihQaOIewwv-1" source="oE2Vs8LDqYihQaOIewwv-7" target="Dgt7N3kG0CkOWjfIpYyg-17" edge="1"><mxGeometry width="50" height="50" relative="1" as="geometry"><mxPoint x="-650" y="530" as="sourcePoint"/><mxPoint x="-600" y="480" as="targetPoint"/><Array as="points"><mxPoint x="-740" y="420"/><mxPoint x="-380" y="420"/></Array></mxGeometry></mxCell><mxCell id="Dgt7N3kG0CkOWjfIpYyg-25" value="" style="edgeStyle=none;rounded=0;orthogonalLoop=1;jettySize=auto;html=1;dashed=1;" parent="oE2Vs8LDqYihQaOIewwv-1" source="Dgt7N3kG0CkOWjfIpYyg-22" target="Dgt7N3kG0CkOWjfIpYyg-23" edge="1"><mxGeometry relative="1" as="geometry"/></mxCell><mxCell id="Dgt7N3kG0CkOWjfIpYyg-26" value="" style="edgeStyle=none;rounded=0;orthogonalLoop=1;jettySize=auto;html=1;dashed=1;" parent="oE2Vs8LDqYihQaOIewwv-1" source="Dgt7N3kG0CkOWjfIpYyg-22" target="Dgt7N3kG0CkOWjfIpYyg-24" edge="1"><mxGeometry relative="1" as="geometry"/></mxCell><mxCell id="Dgt7N3kG0CkOWjfIpYyg-22" value="TypedValueProto" style="rounded=0;whiteSpace=wrap;html=1;" parent="oE2Vs8LDqYihQaOIewwv-1" vertex="1"><mxGeometry x="-240" y="279" width="120" height="60" as="geometry"/></mxCell><mxCell id="Dgt7N3kG0CkOWjfIpYyg-23" value="TypeProto" style="rounded=0;whiteSpace=wrap;html=1;" parent="oE2Vs8LDqYihQaOIewwv-1" vertex="1"><mxGeometry x="-240" y="400" width="120" height="60" as="geometry"/></mxCell><mxCell id="Dgt7N3kG0CkOWjfIpYyg-24" value="ValueProto" style="rounded=0;whiteSpace=wrap;html=1;" parent="oE2Vs8LDqYihQaOIewwv-1" vertex="1"><mxGeometry x="-240" y="140" width="120" height="60" as="geometry"/></mxCell></root></mxGraphModel></diagram><diagram id="j4EtJqvoeRCLmT0oseO8" name="Page-6"><mxGraphModel dx="1355" dy="1978" grid="1" gridSize="10" guides="1" tooltips="1" connect="1" arrows="1" fold="1" page="1" pageScale="1" pageWidth="850" pageHeight="1100" math="0" shadow="0"><root><mxCell id="IrnLDc4b78vBigNGJ3pB-0"/><mxCell id="IrnLDc4b78vBigNGJ3pB-1" parent="IrnLDc4b78vBigNGJ3pB-0"/><mxCell id="IrnLDc4b78vBigNGJ3pB-2" value="Job" style="rounded=0;whiteSpace=wrap;html=1;" parent="IrnLDc4b78vBigNGJ3pB-1" vertex="1"><mxGeometry x="560" y="-778" width="120" height="60" as="geometry"/></mxCell><mxCell id="IrnLDc4b78vBigNGJ3pB-3" value="Task" style="rounded=0;whiteSpace=wrap;html=1;" parent="IrnLDc4b78vBigNGJ3pB-1" vertex="1"><mxGeometry x="400" y="-640" width="120" height="60" as="geometry"/></mxCell><mxCell id="IrnLDc4b78vBigNGJ3pB-4" value="" style="endArrow=classic;html=1;rounded=0;exitX=0.5;exitY=1;exitDx=0;exitDy=0;entryX=1;entryY=0.5;entryDx=0;entryDy=0;" parent="IrnLDc4b78vBigNGJ3pB-1" source="IrnLDc4b78vBigNGJ3pB-2" target="IrnLDc4b78vBigNGJ3pB-3" edge="1"><mxGeometry width="50" height="50" relative="1" as="geometry"><mxPoint x="670" y="-430" as="sourcePoint"/><mxPoint x="720" y="-480" as="targetPoint"/><Array as="points"><mxPoint x="620" y="-610"/></Array></mxGeometry></mxCell><mxCell id="IrnLDc4b78vBigNGJ3pB-5" value="Partner" style="rounded=0;whiteSpace=wrap;html=1;" parent="IrnLDc4b78vBigNGJ3pB-1" vertex="1"><mxGeometry x="240" y="-1040" width="120" height="60" as="geometry"/></mxCell><mxCell id="IrnLDc4b78vBigNGJ3pB-6" value="Data" style="rounded=0;whiteSpace=wrap;html=1;" parent="IrnLDc4b78vBigNGJ3pB-1" vertex="1"><mxGeometry x="240" y="-778" width="120" height="60" as="geometry"/></mxCell><mxCell id="IrnLDc4b78vBigNGJ3pB-7" value="" style="rounded=0;orthogonalLoop=1;jettySize=auto;html=1;exitX=0.5;exitY=1;exitDx=0;exitDy=0;entryX=0.75;entryY=0;entryDx=0;entryDy=0;" parent="IrnLDc4b78vBigNGJ3pB-1" source="IrnLDc4b78vBigNGJ3pB-11" target="IrnLDc4b78vBigNGJ3pB-15" edge="1"><mxGeometry relative="1" as="geometry"/></mxCell><mxCell id="IrnLDc4b78vBigNGJ3pB-8" value="Platform" style="rounded=0;whiteSpace=wrap;html=1;" parent="IrnLDc4b78vBigNGJ3pB-1" vertex="1"><mxGeometry x="40" y="-1040" width="120" height="60" as="geometry"/></mxCell><mxCell id="IrnLDc4b78vBigNGJ3pB-9" value="Operator" style="rounded=0;whiteSpace=wrap;html=1;" parent="IrnLDc4b78vBigNGJ3pB-1" vertex="1"><mxGeometry x="560" y="-520" width="120" height="60" as="geometry"/></mxCell><mxCell id="IrnLDc4b78vBigNGJ3pB-10" value="Role" style="rounded=0;whiteSpace=wrap;html=1;" parent="IrnLDc4b78vBigNGJ3pB-1" vertex="1"><mxGeometry x="240" y="-520" width="120" height="60" as="geometry"/></mxCell><mxCell id="IrnLDc4b78vBigNGJ3pB-11" value="User" style="rounded=0;whiteSpace=wrap;html=1;" parent="IrnLDc4b78vBigNGJ3pB-1" vertex="1"><mxGeometry x="560" y="-1040" width="120" height="60" as="geometry"/></mxCell><mxCell id="IrnLDc4b78vBigNGJ3pB-12" value="" style="endArrow=classic;html=1;rounded=0;exitX=0.75;exitY=1;exitDx=0;exitDy=0;" parent="IrnLDc4b78vBigNGJ3pB-1" source="IrnLDc4b78vBigNGJ3pB-3" target="IrnLDc4b78vBigNGJ3pB-9" edge="1"><mxGeometry width="50" height="50" relative="1" as="geometry"><mxPoint x="450" y="-380" as="sourcePoint"/><mxPoint x="521" y="-490" as="targetPoint"/><Array as="points"><mxPoint x="490" y="-490"/></Array></mxGeometry></mxCell><mxCell id="IrnLDc4b78vBigNGJ3pB-13" value="" style="endArrow=classic;html=1;rounded=0;exitX=0;exitY=0.5;exitDx=0;exitDy=0;entryX=0.5;entryY=1;entryDx=0;entryDy=0;" parent="IrnLDc4b78vBigNGJ3pB-1" source="IrnLDc4b78vBigNGJ3pB-3" target="IrnLDc4b78vBigNGJ3pB-6" edge="1"><mxGeometry width="50" height="50" relative="1" as="geometry"><mxPoint x="170" y="-550" as="sourcePoint"/><mxPoint x="220" y="-600" as="targetPoint"/><Array as="points"><mxPoint x="300" y="-610"/></Array></mxGeometry></mxCell><mxCell id="IrnLDc4b78vBigNGJ3pB-14" value="" style="endArrow=classic;html=1;rounded=0;exitX=0.25;exitY=1;exitDx=0;exitDy=0;entryX=1;entryY=0.5;entryDx=0;entryDy=0;" parent="IrnLDc4b78vBigNGJ3pB-1" source="IrnLDc4b78vBigNGJ3pB-3" target="IrnLDc4b78vBigNGJ3pB-10" edge="1"><mxGeometry width="50" height="50" relative="1" as="geometry"><mxPoint x="120" y="-580" as="sourcePoint"/><mxPoint x="170" y="-630" as="targetPoint"/><Array as="points"><mxPoint x="430" y="-490"/></Array></mxGeometry></mxCell><mxCell id="IrnLDc4b78vBigNGJ3pB-15" value="Right" style="rounded=0;whiteSpace=wrap;html=1;" parent="IrnLDc4b78vBigNGJ3pB-1" vertex="1"><mxGeometry x="400" y="-900" width="120" height="60" as="geometry"/></mxCell><mxCell id="IrnLDc4b78vBigNGJ3pB-16" value="" style="endArrow=classic;html=1;rounded=0;exitX=0.5;exitY=1;exitDx=0;exitDy=0;entryX=0.25;entryY=0;entryDx=0;entryDy=0;" parent="IrnLDc4b78vBigNGJ3pB-1" source="IrnLDc4b78vBigNGJ3pB-5" target="IrnLDc4b78vBigNGJ3pB-15" edge="1"><mxGeometry width="50" height="50" relative="1" as="geometry"><mxPoint x="230" y="-830" as="sourcePoint"/><mxPoint x="280" y="-880" as="targetPoint"/></mxGeometry></mxCell><mxCell id="IrnLDc4b78vBigNGJ3pB-17" value="" style="endArrow=classic;html=1;rounded=0;exitX=0;exitY=0.75;exitDx=0;exitDy=0;entryX=0.5;entryY=0;entryDx=0;entryDy=0;dashed=1;" parent="IrnLDc4b78vBigNGJ3pB-1" source="IrnLDc4b78vBigNGJ3pB-15" target="IrnLDc4b78vBigNGJ3pB-6" edge="1"><mxGeometry width="50" height="50" relative="1" as="geometry"><mxPoint x="270" y="-820" as="sourcePoint"/><mxPoint x="320" y="-870" as="targetPoint"/><Array as="points"><mxPoint x="300" y="-855"/></Array></mxGeometry></mxCell><mxCell id="IrnLDc4b78vBigNGJ3pB-18" value="" style="endArrow=classic;html=1;rounded=0;exitX=1;exitY=0.75;exitDx=0;exitDy=0;entryX=0.5;entryY=0;entryDx=0;entryDy=0;dashed=1;" parent="IrnLDc4b78vBigNGJ3pB-1" source="IrnLDc4b78vBigNGJ3pB-15" target="IrnLDc4b78vBigNGJ3pB-2" edge="1"><mxGeometry width="50" height="50" relative="1" as="geometry"><mxPoint x="780" y="-740" as="sourcePoint"/><mxPoint x="830" y="-790" as="targetPoint"/><Array as="points"><mxPoint x="620" y="-855"/></Array></mxGeometry></mxCell><mxCell id="IrnLDc4b78vBigNGJ3pB-19" value="" style="endArrow=classic;html=1;rounded=0;exitX=0.5;exitY=1;exitDx=0;exitDy=0;dashed=1;" parent="IrnLDc4b78vBigNGJ3pB-1" source="IrnLDc4b78vBigNGJ3pB-15" target="IrnLDc4b78vBigNGJ3pB-3" edge="1"><mxGeometry width="50" height="50" relative="1" as="geometry"><mxPoint x="460" y="-710" as="sourcePoint"/><mxPoint x="510" y="-760" as="targetPoint"/></mxGeometry></mxCell><mxCell id="IrnLDc4b78vBigNGJ3pB-20" value="" style="endArrow=classic;html=1;rounded=0;dashed=1;exitX=1;exitY=0.25;exitDx=0;exitDy=0;entryX=1;entryY=0.5;entryDx=0;entryDy=0;" parent="IrnLDc4b78vBigNGJ3pB-1" source="IrnLDc4b78vBigNGJ3pB-15" target="IrnLDc4b78vBigNGJ3pB-9" edge="1"><mxGeometry width="50" height="50" relative="1" as="geometry"><mxPoint x="720" y="-830" as="sourcePoint"/><mxPoint x="770" y="-880" as="targetPoint"/><Array as="points"><mxPoint x="720" y="-885"/><mxPoint x="720" y="-490"/></Array></mxGeometry></mxCell><mxCell id="IrnLDc4b78vBigNGJ3pB-21" value="" style="endArrow=classic;html=1;rounded=0;dashed=1;exitX=0;exitY=0.25;exitDx=0;exitDy=0;entryX=0;entryY=0.5;entryDx=0;entryDy=0;" parent="IrnLDc4b78vBigNGJ3pB-1" source="IrnLDc4b78vBigNGJ3pB-15" target="IrnLDc4b78vBigNGJ3pB-10" edge="1"><mxGeometry width="50" height="50" relative="1" as="geometry"><mxPoint x="20" y="-780" as="sourcePoint"/><mxPoint x="70" y="-830" as="targetPoint"/><Array as="points"><mxPoint x="200" y="-885"/><mxPoint x="200" y="-490"/></Array></mxGeometry></mxCell><mxCell id="IrnLDc4b78vBigNGJ3pB-22" value="Parameter" style="rounded=0;whiteSpace=wrap;html=1;" parent="IrnLDc4b78vBigNGJ3pB-1" vertex="1"><mxGeometry x="560" y="-400" width="120" height="60" as="geometry"/></mxCell><mxCell id="IrnLDc4b78vBigNGJ3pB-23" value="" style="endArrow=classic;html=1;rounded=0;exitX=0.5;exitY=1;exitDx=0;exitDy=0;entryX=0.5;entryY=0;entryDx=0;entryDy=0;" parent="IrnLDc4b78vBigNGJ3pB-1" source="IrnLDc4b78vBigNGJ3pB-9" target="IrnLDc4b78vBigNGJ3pB-22" edge="1"><mxGeometry width="50" height="50" relative="1" as="geometry"><mxPoint x="470" y="-260" as="sourcePoint"/><mxPoint x="520" y="-310" as="targetPoint"/><Array as="points"/></mxGeometry></mxCell><mxCell id="IrnLDc4b78vBigNGJ3pB-24" value="Category" style="rounded=0;whiteSpace=wrap;html=1;" parent="IrnLDc4b78vBigNGJ3pB-1" vertex="1"><mxGeometry x="40" y="-880" width="120" height="60" as="geometry"/></mxCell><mxCell id="IrnLDc4b78vBigNGJ3pB-25" value="" style="edgeStyle=none;rounded=0;orthogonalLoop=1;jettySize=auto;html=1;dashed=1;" parent="IrnLDc4b78vBigNGJ3pB-1" source="IrnLDc4b78vBigNGJ3pB-26" target="IrnLDc4b78vBigNGJ3pB-29" edge="1"><mxGeometry relative="1" as="geometry"/></mxCell><mxCell id="IrnLDc4b78vBigNGJ3pB-26" value="Column" style="rounded=0;whiteSpace=wrap;html=1;" parent="IrnLDc4b78vBigNGJ3pB-1" vertex="1"><mxGeometry x="40" y="-680" width="120" height="60" as="geometry"/></mxCell><mxCell id="IrnLDc4b78vBigNGJ3pB-27" value="" style="endArrow=classic;html=1;rounded=0;dashed=1;exitX=0;exitY=0.25;exitDx=0;exitDy=0;entryX=0.5;entryY=1;entryDx=0;entryDy=0;" parent="IrnLDc4b78vBigNGJ3pB-1" source="IrnLDc4b78vBigNGJ3pB-6" target="IrnLDc4b78vBigNGJ3pB-24" edge="1"><mxGeometry width="50" height="50" relative="1" as="geometry"><mxPoint x="-30" y="-460" as="sourcePoint"/><mxPoint x="20" y="-510" as="targetPoint"/><Array as="points"><mxPoint x="100" y="-763"/></Array></mxGeometry></mxCell><mxCell id="IrnLDc4b78vBigNGJ3pB-28" value="" style="endArrow=classic;html=1;rounded=0;dashed=1;exitX=0;exitY=0.75;exitDx=0;exitDy=0;entryX=0.5;entryY=0;entryDx=0;entryDy=0;" parent="IrnLDc4b78vBigNGJ3pB-1" source="IrnLDc4b78vBigNGJ3pB-6" target="IrnLDc4b78vBigNGJ3pB-26" edge="1"><mxGeometry width="50" height="50" relative="1" as="geometry"><mxPoint x="-120" y="-460" as="sourcePoint"/><mxPoint x="-70" y="-510" as="targetPoint"/><Array as="points"><mxPoint x="100" y="-733"/></Array></mxGeometry></mxCell><mxCell id="IrnLDc4b78vBigNGJ3pB-29" value="Type" style="rounded=0;whiteSpace=wrap;html=1;" parent="IrnLDc4b78vBigNGJ3pB-1" vertex="1"><mxGeometry x="40" y="-520" width="120" height="60" as="geometry"/></mxCell><mxCell id="IrnLDc4b78vBigNGJ3pB-30" value="SwitchParameter" style="rounded=0;whiteSpace=wrap;html=1;" parent="IrnLDc4b78vBigNGJ3pB-1" vertex="1"><mxGeometry x="840" y="-640" width="120" height="60" as="geometry"/></mxCell><mxCell id="IrnLDc4b78vBigNGJ3pB-31" value="ChoiceParameter" style="rounded=0;whiteSpace=wrap;html=1;" parent="IrnLDc4b78vBigNGJ3pB-1" vertex="1"><mxGeometry x="840" y="-560" width="120" height="60" as="geometry"/></mxCell><mxCell id="IrnLDc4b78vBigNGJ3pB-32" value="RangeParameter" style="rounded=0;whiteSpace=wrap;html=1;" parent="IrnLDc4b78vBigNGJ3pB-1" vertex="1"><mxGeometry x="840" y="-480" width="120" height="60" as="geometry"/></mxCell><mxCell id="IrnLDc4b78vBigNGJ3pB-33" value="TypeParameter" style="rounded=0;whiteSpace=wrap;html=1;" parent="IrnLDc4b78vBigNGJ3pB-1" vertex="1"><mxGeometry x="840" y="-400" width="120" height="60" as="geometry"/></mxCell><mxCell id="IrnLDc4b78vBigNGJ3pB-34" value="Action" style="rounded=0;whiteSpace=wrap;html=1;" parent="IrnLDc4b78vBigNGJ3pB-1" vertex="1"><mxGeometry x="840" y="-900" width="120" height="60" as="geometry"/></mxCell><mxCell id="IrnLDc4b78vBigNGJ3pB-35" value="Status" style="rounded=0;whiteSpace=wrap;html=1;" parent="IrnLDc4b78vBigNGJ3pB-1" vertex="1"><mxGeometry x="840" y="-778" width="120" height="60" as="geometry"/></mxCell><mxCell id="IrnLDc4b78vBigNGJ3pB-36" value="" style="endArrow=classic;html=1;rounded=0;dashed=1;exitX=1;exitY=0.5;exitDx=0;exitDy=0;entryX=0;entryY=0.5;entryDx=0;entryDy=0;" parent="IrnLDc4b78vBigNGJ3pB-1" source="IrnLDc4b78vBigNGJ3pB-2" target="IrnLDc4b78vBigNGJ3pB-35" edge="1"><mxGeometry width="50" height="50" relative="1" as="geometry"><mxPoint x="890" y="-598" as="sourcePoint"/><mxPoint x="940" y="-648" as="targetPoint"/></mxGeometry></mxCell><mxCell id="IrnLDc4b78vBigNGJ3pB-37" value="" style="endArrow=classic;html=1;rounded=0;dashed=1;exitX=0.75;exitY=0;exitDx=0;exitDy=0;entryX=0.5;entryY=1;entryDx=0;entryDy=0;" parent="IrnLDc4b78vBigNGJ3pB-1" source="IrnLDc4b78vBigNGJ3pB-3" target="IrnLDc4b78vBigNGJ3pB-35" edge="1"><mxGeometry width="50" height="50" relative="1" as="geometry"><mxPoint x="850" y="-590" as="sourcePoint"/><mxPoint x="900" y="-640" as="targetPoint"/><Array as="points"><mxPoint x="490" y="-680"/><mxPoint x="900" y="-680"/></Array></mxGeometry></mxCell><mxCell id="IrnLDc4b78vBigNGJ3pB-38" value="" style="endArrow=classic;html=1;rounded=0;dashed=1;entryX=0;entryY=0.5;entryDx=0;entryDy=0;exitX=1;exitY=0.5;exitDx=0;exitDy=0;" parent="IrnLDc4b78vBigNGJ3pB-1" source="IrnLDc4b78vBigNGJ3pB-22" target="IrnLDc4b78vBigNGJ3pB-33" edge="1"><mxGeometry width="50" height="50" relative="1" as="geometry"><mxPoint x="700" y="-280" as="sourcePoint"/><mxPoint x="750" y="-330" as="targetPoint"/></mxGeometry></mxCell><mxCell id="IrnLDc4b78vBigNGJ3pB-39" value="" style="endArrow=classic;html=1;rounded=0;dashed=1;exitX=1;exitY=0.5;exitDx=0;exitDy=0;entryX=0;entryY=0.5;entryDx=0;entryDy=0;" parent="IrnLDc4b78vBigNGJ3pB-1" source="IrnLDc4b78vBigNGJ3pB-22" target="IrnLDc4b78vBigNGJ3pB-30" edge="1"><mxGeometry width="50" height="50" relative="1" as="geometry"><mxPoint x="1170" y="-500" as="sourcePoint"/><mxPoint x="1220" y="-550" as="targetPoint"/></mxGeometry></mxCell><mxCell id="IrnLDc4b78vBigNGJ3pB-40" value="" style="endArrow=classic;html=1;rounded=0;dashed=1;entryX=0;entryY=0.5;entryDx=0;entryDy=0;exitX=1;exitY=0.5;exitDx=0;exitDy=0;" parent="IrnLDc4b78vBigNGJ3pB-1" source="IrnLDc4b78vBigNGJ3pB-22" target="IrnLDc4b78vBigNGJ3pB-31" edge="1"><mxGeometry width="50" height="50" relative="1" as="geometry"><mxPoint x="1110" y="-440" as="sourcePoint"/><mxPoint x="1160" y="-490" as="targetPoint"/></mxGeometry></mxCell><mxCell id="IrnLDc4b78vBigNGJ3pB-41" value="" style="endArrow=classic;html=1;rounded=0;dashed=1;entryX=0;entryY=0.5;entryDx=0;entryDy=0;exitX=1;exitY=0.5;exitDx=0;exitDy=0;" parent="IrnLDc4b78vBigNGJ3pB-1" source="IrnLDc4b78vBigNGJ3pB-22" target="IrnLDc4b78vBigNGJ3pB-32" edge="1"><mxGeometry width="50" height="50" relative="1" as="geometry"><mxPoint x="1150" y="-390" as="sourcePoint"/><mxPoint x="1200" y="-440" as="targetPoint"/></mxGeometry></mxCell><mxCell id="IrnLDc4b78vBigNGJ3pB-42" value="Binding" style="rounded=0;whiteSpace=wrap;html=1;" parent="IrnLDc4b78vBigNGJ3pB-1" vertex="1"><mxGeometry x="840" y="-1040" width="120" height="60" as="geometry"/></mxCell></root></mxGraphModel></diagram><diagram id="91zSi7QT3S8Urkhrr2rB" name="Page-7"><mxGraphModel dx="2205" dy="878" grid="1" gridSize="10" guides="1" tooltips="1" connect="1" arrows="1" fold="1" page="1" pageScale="1" pageWidth="850" pageHeight="1100" math="0" shadow="0"><root><mxCell id="0"/><mxCell id="1" parent="0"/><mxCell id="G9y6PR_vMMPn82gqfAbM-33" value="" style="rounded=1;whiteSpace=wrap;html=1;dashed=1;strokeColor=#000000;arcSize=10;" parent="1" vertex="1"><mxGeometry x="260" y="190" width="520" height="330" as="geometry"/></mxCell><mxCell id="G9y6PR_vMMPn82gqfAbM-3" value="" style="edgeStyle=orthogonalEdgeStyle;rounded=0;orthogonalLoop=1;jettySize=auto;html=1;" parent="1" source="G9y6PR_vMMPn82gqfAbM-1" target="G9y6PR_vMMPn82gqfAbM-2" edge="1"><mxGeometry relative="1" as="geometry"/></mxCell><mxCell id="G9y6PR_vMMPn82gqfAbM-1" value="highflip-server" style="rounded=0;whiteSpace=wrap;html=1;fillColor=#1ba1e2;fontColor=#ffffff;strokeColor=#006EAF;" parent="1" vertex="1"><mxGeometry x="280" y="299" width="200" height="110" as="geometry"/></mxCell><mxCell id="G9y6PR_vMMPn82gqfAbM-2" value="highflip-xxx-adaptor" style="rounded=0;whiteSpace=wrap;html=1;" parent="1" vertex="1"><mxGeometry x="280" y="430" width="200" height="50" as="geometry"/></mxCell><mxCell id="G9y6PR_vMMPn82gqfAbM-4" value="highflip-console" style="rounded=0;whiteSpace=wrap;html=1;" parent="1" vertex="1"><mxGeometry x="-160" y="179" width="200" height="60" as="geometry"/></mxCell><mxCell id="G9y6PR_vMMPn82gqfAbM-5" value="highflip-sdk-java" style="rounded=0;whiteSpace=wrap;html=1;fillColor=#1ba1e2;fontColor=#ffffff;strokeColor=#000000;" parent="1" vertex="1"><mxGeometry x="-160" y="239" width="120" height="30" as="geometry"/></mxCell><mxCell id="G9y6PR_vMMPn82gqfAbM-8" value="highflip-core" style="rounded=0;whiteSpace=wrap;html=1;" parent="1" vertex="1"><mxGeometry x="380" y="300" width="80" height="30" as="geometry"/></mxCell><mxCell id="G9y6PR_vMMPn82gqfAbM-9" value="highflip-proto" style="rounded=0;whiteSpace=wrap;html=1;" parent="1" vertex="1"><mxGeometry x="300" y="300" width="80" height="30" as="geometry"/></mxCell><mxCell id="G9y6PR_vMMPn82gqfAbM-11" value="" style="edgeStyle=orthogonalEdgeStyle;rounded=0;orthogonalLoop=1;jettySize=auto;html=1;endArrow=none;endFill=0;" parent="1" source="G9y6PR_vMMPn82gqfAbM-10" target="G9y6PR_vMMPn82gqfAbM-1" edge="1"><mxGeometry relative="1" as="geometry"/></mxCell><mxCell id="G9y6PR_vMMPn82gqfAbM-10" value="" style="ellipse;whiteSpace=wrap;html=1;aspect=fixed;" parent="1" vertex="1"><mxGeometry x="365" y="241" width="30" height="30" as="geometry"/></mxCell><mxCell id="G9y6PR_vMMPn82gqfAbM-12" value="component" style="rounded=0;whiteSpace=wrap;html=1;" parent="1" vertex="1"><mxGeometry x="-160" y="430" width="200" height="31" as="geometry"/></mxCell><mxCell id="G9y6PR_vMMPn82gqfAbM-13" value="highflip-sdk-xxx" style="rounded=0;whiteSpace=wrap;html=1;fillColor=#1ba1e2;fontColor=#ffffff;strokeColor=#000000;" parent="1" vertex="1"><mxGeometry x="-160" y="461" width="120" height="30" as="geometry"/></mxCell><mxCell id="G9y6PR_vMMPn82gqfAbM-14" value="" style="endArrow=classic;html=1;rounded=0;entryX=0;entryY=0.5;entryDx=0;entryDy=0;edgeStyle=orthogonalEdgeStyle;startArrow=none;exitX=1;exitY=0.5;exitDx=0;exitDy=0;" parent="1" source="G9y6PR_vMMPn82gqfAbM-16" target="G9y6PR_vMMPn82gqfAbM-10" edge="1"><mxGeometry width="50" height="50" relative="1" as="geometry"><mxPoint x="100" y="380" as="sourcePoint"/><mxPoint x="230" y="280" as="targetPoint"/><Array as="points"><mxPoint x="40" y="256"/></Array></mxGeometry></mxCell><mxCell id="G9y6PR_vMMPn82gqfAbM-15" value="" style="endArrow=classic;html=1;rounded=0;entryX=0;entryY=0.5;entryDx=0;entryDy=0;exitX=1;exitY=0.5;exitDx=0;exitDy=0;edgeStyle=orthogonalEdgeStyle;startArrow=none;" parent="1" source="G9y6PR_vMMPn82gqfAbM-20" target="G9y6PR_vMMPn82gqfAbM-10" edge="1"><mxGeometry width="50" height="50" relative="1" as="geometry"><mxPoint x="-50" y="570" as="sourcePoint"/><mxPoint y="520" as="targetPoint"/><Array as="points"><mxPoint x="120" y="476"/><mxPoint x="120" y="256"/></Array></mxGeometry></mxCell><mxCell id="G9y6PR_vMMPn82gqfAbM-16" value="highflip-proto" style="rounded=0;whiteSpace=wrap;html=1;" parent="1" vertex="1"><mxGeometry x="-40" y="239" width="80" height="30" as="geometry"/></mxCell><mxCell id="G9y6PR_vMMPn82gqfAbM-20" value="highflip-proto" style="rounded=0;whiteSpace=wrap;html=1;" parent="1" vertex="1"><mxGeometry x="-40" y="461" width="80" height="30" as="geometry"/></mxCell><mxCell id="G9y6PR_vMMPn82gqfAbM-26" value="" style="edgeStyle=orthogonalEdgeStyle;rounded=0;orthogonalLoop=1;jettySize=auto;html=1;endArrow=none;endFill=0;entryX=0.5;entryY=0;entryDx=0;entryDy=0;" parent="1" source="G9y6PR_vMMPn82gqfAbM-23" target="G9y6PR_vMMPn82gqfAbM-12" edge="1"><mxGeometry relative="1" as="geometry"/></mxCell><mxCell id="G9y6PR_vMMPn82gqfAbM-23" value="3rd Party&lt;br&gt;Federated Learning Platform" style="rounded=0;whiteSpace=wrap;html=1;dashed=1;" parent="1" vertex="1"><mxGeometry x="-160" y="300" width="200" height="109" as="geometry"/></mxCell><mxCell id="G9y6PR_vMMPn82gqfAbM-29" value="" style="edgeStyle=orthogonalEdgeStyle;rounded=0;orthogonalLoop=1;jettySize=auto;html=1;endArrow=none;endFill=0;" parent="1" source="G9y6PR_vMMPn82gqfAbM-27" target="G9y6PR_vMMPn82gqfAbM-28" edge="1"><mxGeometry relative="1" as="geometry"/></mxCell><mxCell id="G9y6PR_vMMPn82gqfAbM-27" value="3rd Party&lt;br&gt;Federated Learning Platform" style="rounded=0;whiteSpace=wrap;html=1;" parent="1" vertex="1"><mxGeometry x="560" y="300" width="200" height="109" as="geometry"/></mxCell><mxCell id="G9y6PR_vMMPn82gqfAbM-28" value="component" style="rounded=0;whiteSpace=wrap;html=1;" parent="1" vertex="1"><mxGeometry x="560" y="430" width="200" height="50" as="geometry"/></mxCell><mxCell id="G9y6PR_vMMPn82gqfAbM-31" value="" style="edgeStyle=orthogonalEdgeStyle;rounded=0;orthogonalLoop=1;jettySize=auto;html=1;endArrow=none;endFill=0;" parent="1" source="G9y6PR_vMMPn82gqfAbM-30" target="G9y6PR_vMMPn82gqfAbM-27" edge="1"><mxGeometry relative="1" as="geometry"/></mxCell><mxCell id="G9y6PR_vMMPn82gqfAbM-30" value="" style="ellipse;whiteSpace=wrap;html=1;aspect=fixed;" parent="1" vertex="1"><mxGeometry x="645" y="241" width="30" height="30" as="geometry"/></mxCell><mxCell id="G9y6PR_vMMPn82gqfAbM-32" value="" style="endArrow=classic;html=1;rounded=0;exitX=0.996;exitY=0.6;exitDx=0;exitDy=0;exitPerimeter=0;edgeStyle=orthogonalEdgeStyle;entryX=0;entryY=0.5;entryDx=0;entryDy=0;" parent="1" source="G9y6PR_vMMPn82gqfAbM-2" target="G9y6PR_vMMPn82gqfAbM-30" edge="1"><mxGeometry width="50" height="50" relative="1" as="geometry"><mxPoint x="620" y="280" as="sourcePoint"/><mxPoint x="670" y="230" as="targetPoint"/><Array as="points"><mxPoint x="520" y="460"/><mxPoint x="520" y="256"/></Array></mxGeometry></mxCell></root></mxGraphModel></diagram><diagram id="DAX1e8KZuahsWEWPGWL8" name="Page-8"><mxGraphModel dx="1355" dy="878" grid="1" gridSize="10" guides="1" tooltips="1" connect="1" arrows="1" fold="1" page="1" pageScale="1" pageWidth="850" pageHeight="1100" math="0" shadow="0"><root><mxCell id="0"/><mxCell id="1" parent="0"/></root></mxGraphModel></diagram></mxfile>